<?xml version="1.0" encoding="UTF-8" standalone="no"?>
<!DOCTYPE svg PUBLIC "-//W3C//DTD SVG 1.1//EN" "http://www.w3.org/Graphics/SVG/1.1/DTD/svg11.dtd">
<svg width="100%" height="100%" viewBox="0 0 780 838" version="1.1" xmlns="http://www.w3.org/2000/svg" xmlns:xlink="http://www.w3.org/1999/xlink" xml:space="preserve" xmlns:serif="http://www.serif.com/" style="fill-rule:evenodd;clip-rule:evenodd;stroke-linejoin:round;stroke-miterlimit:1.41421;">
    <g transform="matrix(4.16667,0,0,4.16667,0,0)">
        <path d="M94.717,29.611L94.717,41.215C123.658,43.957 146.366,68.094 146.366,97.374C146.366,128.486 120.729,153.798 89.217,153.798C57.706,153.798 32.068,128.486 32.068,97.374C32.068,66.592 57.167,41.504 88.217,40.973L88.217,40.374L88.217,29.399L88.217,21.874L84.717,21.874L84.717,29.537C48.914,31.839 20.494,61.376 20.494,97.374C20.494,134.869 51.323,165.374 89.217,165.374C127.111,165.374 157.941,134.869 157.941,97.374C157.941,61.712 130.047,32.396 94.717,29.611Z" style="fill:rgb(232,194,107);fill-rule:nonzero;"/>
        <path d="M186.229,97.311C186.229,45.614 145.68,3.215 94.717,0.234L94.717,12.28C139.056,15.245 174.229,52.235 174.229,97.311C174.229,144.317 135.985,182.56 88.978,182.56C88.053,182.56 87.136,182.525 86.217,182.496L86.217,194.496L86.218,194.496L86.218,201L89.718,201L89.718,194.55C143.003,194.151 186.229,150.687 186.229,97.311Z" style="fill:rgb(13,129,134);fill-rule:nonzero;"/>
        <path d="M94.717,14.521L94.717,26.416C131.282,29.338 160.149,59.992 160.149,97.295C160.149,136.522 128.235,168.434 89.009,168.434C52.682,168.434 22.653,141.059 18.406,105.86L13.784,106.426L0,107.924L0.377,111.403L7.125,110.671C13.543,150.094 47.8,180.292 89.009,180.292C134.774,180.292 172.007,143.059 172.007,97.295C172.007,53.451 137.826,17.468 94.717,14.521Z" style="fill:rgb(196,217,58);fill-rule:nonzero;"/>
        <path d="M133.429,121.936L126.868,118.148C126.599,118.635 126.324,119.119 126.036,119.594L132.597,123.381C128.315,130.494 122.338,136.471 115.226,140.752L111.438,134.192C110.963,134.48 110.479,134.755 109.992,135.024L113.779,141.584C106.729,145.516 98.648,147.806 90.051,147.946L90.051,140.352C89.773,140.358 89.497,140.374 89.217,140.374C88.938,140.374 88.662,140.358 88.384,140.352L88.384,147.946C79.786,147.806 71.705,145.516 64.654,141.584L68.442,135.023C67.955,134.755 67.472,134.48 66.997,134.192L63.21,140.752C56.097,136.471 50.119,130.494 45.839,123.381L52.398,119.594C52.111,119.119 51.836,118.635 51.567,118.149L45.007,121.936C41.074,114.885 38.785,106.805 38.644,98.208L46.238,98.208C46.232,97.93 46.217,97.653 46.217,97.374C46.217,97.094 46.232,96.818 46.238,96.54L38.644,96.54C38.785,87.943 41.074,79.862 45.006,72.813L51.566,76.6C51.835,76.113 52.11,75.629 52.397,75.154L45.838,71.367C50.119,64.254 56.097,58.276 63.21,53.996L66.997,60.555C67.472,60.268 67.955,59.993 68.442,59.724L64.655,53.164C71.705,49.232 79.786,46.941 88.384,46.801L88.384,54.395C88.662,54.389 88.938,54.374 89.217,54.374C89.497,54.374 89.773,54.389 90.051,54.395L90.051,46.801C98.649,46.942 106.729,49.232 113.78,53.164L109.993,59.724C110.479,59.993 110.962,60.267 111.437,60.554L115.224,53.995C122.337,58.275 128.315,64.254 132.597,71.367L126.037,75.154C126.324,75.629 126.599,76.112 126.868,76.599L133.429,72.812C137.361,79.862 139.651,87.943 139.791,96.541L132.196,96.541C132.202,96.819 132.218,97.095 132.218,97.374C132.218,97.653 132.202,97.93 132.196,98.208L139.791,98.208C139.651,106.805 137.361,114.885 133.429,121.936ZM89.217,44.78C60.216,44.78 36.623,68.374 36.623,97.374C36.623,126.374 60.216,149.967 89.217,149.967C118.219,149.967 141.813,126.374 141.813,97.374C141.813,68.374 118.219,44.78 89.217,44.78Z" style="fill:rgb(205,204,204);fill-rule:nonzero;"/>
        <path d="M90.717,95.874L90.717,63.041L87.717,63.041L87.717,98.382L60.415,125.684L61.004,126.274L88.404,98.874L107.549,98.874L107.549,95.874L90.717,95.874Z" style="fill:rgb(205,204,204);fill-rule:nonzero;"/>
    </g>
</svg>
