<?xml version="1.0" encoding="UTF-8" standalone="no"?>
<!DOCTYPE svg PUBLIC "-//W3C//DTD SVG 1.1//EN" "http://www.w3.org/Graphics/SVG/1.1/DTD/svg11.dtd">
<svg version="1.1" xmlns="http://www.w3.org/2000/svg" xmlns:xlink="http://www.w3.org/1999/xlink" xml:space="preserve" xmlns:serif="http://www.serif.com/">
  <symbol id="schematic" width="100%" height="100%" viewBox="0 0 796 796" style="fill-rule:evenodd;clip-rule:evenodd;stroke-linejoin:round;stroke-miterlimit:1.41421;">
    <g transform="matrix(4.16667,0,0,4.16667,0,0)">
      <path d="M95.25,0.5C42.645,0.5 0,43.145 0,95.75C0,148.355 42.645,191 95.25,191C147.855,191 190.5,148.355 190.5,95.75C190.5,43.145 147.855,0.5 95.25,0.5ZM95.25,5.5C145.014,5.5 185.5,45.986 185.5,95.75C185.5,145.514 145.014,186 95.25,186C45.485,186 5,145.514 5,95.75C5,45.986 45.485,5.5 95.25,5.5Z" style="fill:rgb(13,129,134);fill-rule:nonzero;"/>
      <path d="M143.356,142.12L94.446,142.12L101.229,135.487L103.817,138.075L105.002,136.891L102.428,134.317L109.626,127.277L112.12,129.772L113.306,128.588L110.824,126.106L118.909,118.202L121.301,120.593L122.486,119.408L120.107,117.029L127.305,109.991L129.604,112.289L130.789,111.104L128.505,108.818L135.703,101.778L137.908,103.985L139.093,102.8L136.901,100.608L143.356,94.297L143.356,142.12ZM55.981,131.226L55.981,53.28L129.317,53.28L129.317,102.162L119.051,112.202L119.051,78.842L92.649,59.546L66.249,78.842L66.249,124.101L106.882,124.101L99.595,131.226L55.981,131.226ZM146.265,87.388C145.484,87.06 144.588,87.231 143.986,87.82L134.347,97.248L134.347,50.765C134.347,49.376 133.221,48.25 131.832,48.25L53.467,48.25C52.079,48.25 50.953,49.376 50.953,50.765L50.953,133.738C50.953,135.128 52.079,136.252 53.467,136.252L94.452,136.252L87.841,142.718C87.231,143.313 87.044,144.218 87.365,145.006C87.687,145.795 88.455,146.311 89.306,146.311L145.452,146.311C146.609,146.311 147.547,145.373 147.547,144.216L147.547,89.319C147.547,88.476 147.041,87.714 146.265,87.388Z" style="fill:rgb(13,129,134);fill-rule:nonzero;"/>
      <path d="M134.875,134.038L118.119,134.038L134.875,117.654L134.875,134.038ZM136.271,114.338C135.896,114.18 135.468,114.262 135.178,114.545L114.947,134.325C114.656,134.611 114.566,135.047 114.72,135.424C114.874,135.804 115.243,136.05 115.651,136.05L135.881,136.05C136.437,136.05 136.887,135.6 136.887,135.045L136.887,115.264C136.887,114.86 136.645,114.494 136.271,114.338Z" style="fill:rgb(13,129,134);fill-rule:nonzero;"/>
    </g>
  </symbol>

  <symbol id="detail" width="100%" height="100%" viewBox="0 0 796 796" style="fill-rule:evenodd;clip-rule:evenodd;stroke-linejoin:round;stroke-miterlimit:1.41421;">
    <g transform="matrix(4.16667,0,0,4.16667,0,0)">
      <path d="M95.25,0.5C42.645,0.5 0,43.145 0,95.75C0,148.355 42.645,191 95.25,191C147.855,191 190.5,148.355 190.5,95.75C190.5,43.145 147.855,0.5 95.25,0.5ZM95.25,5.5C145.014,5.5 185.5,45.986 185.5,95.75C185.5,145.514 145.014,186 95.25,186C45.485,186 5,145.514 5,95.75C5,45.986 45.485,5.5 95.25,5.5Z" style="fill:rgb(13,129,134);fill-rule:nonzero;"/>
      <rect x="134.479" y="52.732" width="4.856" height="8.742" style="fill:rgb(13,129,134);fill-rule:nonzero;"/>
      <rect x="134.479" y="66.341" width="4.856" height="8.742" style="fill:rgb(13,129,134);fill-rule:nonzero;"/>
      <rect x="134.479" y="79.951" width="4.856" height="8.742" style="fill:rgb(13,129,134);fill-rule:nonzero;"/>
      <rect x="134.479" y="92.588" width="4.856" height="8.741" style="fill:rgb(13,129,134);fill-rule:nonzero;"/>
      <rect x="134.479" y="105.226" width="4.856" height="8.742" style="fill:rgb(13,129,134);fill-rule:nonzero;"/>
      <rect x="130.106" y="118.833" width="13.6" height="4.857" style="fill:rgb(13,129,134);fill-rule:nonzero;"/>
      <rect x="130.106" y="43.984" width="13.6" height="4.857" style="fill:rgb(13,129,134);fill-rule:nonzero;"/>
      <rect x="103.408" y="136.286" width="8.742" height="4.858" style="fill:rgb(13,129,134);fill-rule:nonzero;"/>
      <rect x="89.798" y="136.286" width="8.743" height="4.858" style="fill:rgb(13,129,134);fill-rule:nonzero;"/>
      <rect x="77.162" y="136.286" width="8.741" height="4.858" style="fill:rgb(13,129,134);fill-rule:nonzero;"/>
      <rect x="64.524" y="136.286" width="8.742" height="4.858" style="fill:rgb(13,129,134);fill-rule:nonzero;"/>
      <rect x="54.801" y="131.915" width="4.856" height="13.6" style="fill:rgb(13,129,134);fill-rule:nonzero;"/>
      <rect x="117.014" y="131.915" width="4.856" height="13.6" style="fill:rgb(13,129,134);fill-rule:nonzero;"/>
      <path d="M83.232,103.411L73.405,93.585L77.526,89.465L83.232,95.169L99.137,79.266L103.258,83.387L83.232,103.411ZM121.842,67.787L88.332,45.429L54.822,67.787L54.822,123.636L121.842,123.636L121.842,67.787Z" style="fill:rgb(13,129,134);fill-rule:nonzero;"/>
    </g>
  </symbol>

  <symbol id="scheduling" width="100%" height="100%" viewBox="0 0 796 796" style="fill-rule:evenodd;clip-rule:evenodd;stroke-linejoin:round;stroke-miterlimit:1.41421;">
    <g transform="matrix(4.16667,0,0,4.16667,0,0)">
      <path d="M95.25,186C45.485,186 5,145.514 5,95.75C5,45.986 45.485,5.5 95.25,5.5C145.014,5.5 185.5,45.986 185.5,95.75C185.5,145.514 145.014,186 95.25,186ZM95.25,0.5C42.645,0.5 0,43.145 0,95.75C0,148.355 42.645,191 95.25,191C147.855,191 190.5,148.355 190.5,95.75C190.5,43.145 147.855,0.5 95.25,0.5Z" style="fill:rgb(13,129,134);fill-rule:nonzero;"/>
      <path d="M133.016,72.751L57.483,72.751L57.483,62.91C57.483,60.341 59.573,58.251 62.142,58.251L67.984,58.251L67.984,62.75C67.984,63.854 68.88,64.75 69.984,64.75C71.089,64.75 71.984,63.854 71.984,62.75L71.984,58.251L76.991,58.251L76.991,62.75C76.991,63.854 77.887,64.75 78.991,64.75C80.096,64.75 80.991,63.854 80.991,62.75L80.991,58.251L109.516,58.251L109.516,62.75C109.516,63.854 110.412,64.75 111.516,64.75C112.621,64.75 113.516,63.854 113.516,62.75L113.516,58.251L118.523,58.251L118.523,62.75C118.523,63.854 119.418,64.75 120.523,64.75C121.627,64.75 122.523,63.854 122.523,62.75L122.523,58.251L128.356,58.251C130.925,58.251 133.016,60.341 133.016,62.91L133.016,72.751ZM133.016,134.592C133.016,137.16 130.925,139.25 128.356,139.25L62.142,139.25C59.573,139.25 57.483,137.16 57.483,134.592L57.483,76.751L133.016,76.751L133.016,134.592ZM128.356,53.251L122.523,53.251L122.523,49.25C122.523,48.145 121.627,47.25 120.523,47.25C119.418,47.25 118.523,48.145 118.523,49.25L118.523,53.251L113.516,53.251L113.516,49.25C113.516,48.145 112.621,47.25 111.516,47.25C110.412,47.25 109.516,48.145 109.516,49.25L109.516,53.251L80.991,53.251L80.991,49.25C80.991,48.145 80.096,47.25 78.991,47.25C77.887,47.25 76.991,48.145 76.991,49.25L76.991,53.251L71.984,53.251L71.984,49.25C71.984,48.145 71.089,47.25 69.984,47.25C68.88,47.25 67.984,48.145 67.984,49.25L67.984,53.251L62.142,53.251C56.816,53.251 52.483,57.584 52.483,62.91L52.483,134.592C52.483,139.918 56.816,144.25 62.142,144.25L128.356,144.25C133.684,144.25 138.016,139.918 138.016,134.592L138.016,62.91C138.016,57.584 133.684,53.251 128.356,53.251Z" style="fill:rgb(13,129,134);fill-rule:nonzero;"/>
      <path d="M70.234,87.748L80.234,87.748L80.234,93.748L70.234,93.748L70.234,87.748ZM68.234,97.748L82.234,97.748C83.338,97.748 84.234,96.853 84.234,95.748L84.234,85.748C84.234,84.644 83.338,83.748 82.234,83.748L68.234,83.748C67.129,83.748 66.234,84.644 66.234,85.748L66.234,95.748C66.234,96.853 67.129,97.748 68.234,97.748Z" style="fill:rgb(13,129,134);fill-rule:nonzero;"/>
      <path d="M90.25,87.748L100.25,87.748L100.25,93.748L90.25,93.748L90.25,87.748ZM88.25,97.748L102.25,97.748C103.354,97.748 104.25,96.853 104.25,95.748L104.25,85.748C104.25,84.644 103.354,83.748 102.25,83.748L88.25,83.748C87.145,83.748 86.25,84.644 86.25,85.748L86.25,95.748C86.25,96.853 87.145,97.748 88.25,97.748Z" style="fill:rgb(13,129,134);fill-rule:nonzero;"/>
      <path d="M110.266,87.748L120.266,87.748L120.266,93.748L110.266,93.748L110.266,87.748ZM108.266,97.748L122.266,97.748C123.37,97.748 124.266,96.853 124.266,95.748L124.266,85.748C124.266,84.644 123.37,83.748 122.266,83.748L108.266,83.748C107.161,83.748 106.266,84.644 106.266,85.748L106.266,95.748C106.266,96.853 107.161,97.748 108.266,97.748Z" style="fill:rgb(13,129,134);fill-rule:nonzero;"/>
      <path d="M70.234,104.763L80.234,104.763L80.234,110.763L70.234,110.763L70.234,104.763ZM68.234,114.763L82.234,114.763C83.338,114.763 84.234,113.867 84.234,112.763L84.234,102.763C84.234,101.658 83.338,100.763 82.234,100.763L68.234,100.763C67.129,100.763 66.234,101.658 66.234,102.763L66.234,112.763C66.234,113.867 67.129,114.763 68.234,114.763Z" style="fill:rgb(13,129,134);fill-rule:nonzero;"/>
      <path d="M90.25,104.763L100.25,104.763L100.25,110.763L90.25,110.763L90.25,104.763ZM88.25,114.763L102.25,114.763C103.354,114.763 104.25,113.867 104.25,112.763L104.25,102.763C104.25,101.658 103.354,100.763 102.25,100.763L88.25,100.763C87.145,100.763 86.25,101.658 86.25,102.763L86.25,112.763C86.25,113.867 87.145,114.763 88.25,114.763Z" style="fill:rgb(13,129,134);fill-rule:nonzero;"/>
      <path d="M110.266,104.763L120.266,104.763L120.266,110.763L110.266,110.763L110.266,104.763ZM108.266,114.763L122.266,114.763C123.37,114.763 124.266,113.867 124.266,112.763L124.266,102.763C124.266,101.658 123.37,100.763 122.266,100.763L108.266,100.763C107.161,100.763 106.266,101.658 106.266,102.763L106.266,112.763C106.266,113.867 107.161,114.763 108.266,114.763Z" style="fill:rgb(13,129,134);fill-rule:nonzero;"/>
      <path d="M70.234,121.775L80.234,121.775L80.234,127.775L70.234,127.775L70.234,121.775ZM68.234,131.775L82.234,131.775C83.338,131.775 84.234,130.881 84.234,129.775L84.234,119.775C84.234,118.671 83.338,117.775 82.234,117.775L68.234,117.775C67.129,117.775 66.234,118.671 66.234,119.775L66.234,129.775C66.234,130.881 67.129,131.775 68.234,131.775Z" style="fill:rgb(13,129,134);fill-rule:nonzero;"/>
      <path d="M90.25,121.775L100.25,121.775L100.25,127.775L90.25,127.775L90.25,121.775ZM88.25,131.775L102.25,131.775C103.354,131.775 104.25,130.881 104.25,129.775L104.25,119.775C104.25,118.671 103.354,117.775 102.25,117.775L88.25,117.775C87.145,117.775 86.25,118.671 86.25,119.775L86.25,129.775C86.25,130.881 87.145,131.775 88.25,131.775Z" style="fill:rgb(13,129,134);fill-rule:nonzero;"/>
    </g>
  </symbol>

  <symbol id="construction" width="100%" height="100%" viewBox="0 0 796 796" style="fill-rule:evenodd;clip-rule:evenodd;stroke-linejoin:round;stroke-miterlimit:1.41421;">
    <g transform="matrix(4.16667,0,0,4.16667,0,0)">
      <path d="M140.354,140.771C135.542,141.401 110.532,144.594 96.487,144.594L95.732,144.59L95.494,144.591L94.758,144.59L94.012,144.594C79.969,144.594 54.954,141.401 50.144,140.77C50.059,140.32 49.989,139.438 50.176,137.853C51.731,124.641 63.648,117.283 70.446,115.018C79.695,111.935 86.121,106.233 86.39,105.992C86.449,105.939 86.506,105.884 86.56,105.825C88.22,106.843 91.245,108.449 94.271,108.827L94.271,108.93L95.257,108.908L96.226,108.915L96.226,108.827C99.253,108.449 102.279,106.843 103.94,105.826C103.994,105.884 104.05,105.939 104.109,105.992C104.381,106.235 110.835,111.944 120.054,115.018C126.852,117.283 138.771,124.642 140.323,137.853C140.51,139.436 140.439,140.319 140.354,140.771ZM79.849,91.03C79.405,90.273 78.984,89.558 78.611,88.999C78.17,88.336 77.646,87.61 77.086,86.837C75.454,84.58 72.988,81.169 72.793,79.013C72.633,77.257 75.28,75.93 75.298,75.922C75.509,75.824 75.691,75.691 75.86,75.547C81.451,76.037 88.093,76.307 95.067,76.316L95.434,76.316L95.578,76.315L95.579,76.315C102.495,76.302 109.082,76.033 114.636,75.547C114.803,75.689 114.982,75.819 115.19,75.916C115.216,75.929 117.867,77.239 117.707,79.011C117.511,81.17 115.042,84.582 113.41,86.841C112.854,87.61 112.327,88.337 111.888,88.999C111.517,89.558 111.096,90.273 110.651,91.03C108.99,93.859 106.477,98.132 103.077,100.401C102.967,100.476 102.863,100.559 102.762,100.655C102.67,100.705 102.581,100.763 102.495,100.824C101.46,101.582 97.919,103.768 95.25,103.927C92.576,103.768 89.039,101.582 88.008,100.826C87.92,100.764 87.83,100.705 87.737,100.655C87.635,100.559 87.53,100.475 87.422,100.401C84.02,98.13 81.51,93.858 79.849,91.03ZM68.611,69.723C69.615,69.55 70.402,68.76 70.57,67.756C72.138,58.386 78.979,50.613 88.062,47.83L89.128,53.456C89.335,54.546 90.252,55.347 91.359,55.403L91.49,55.407C92.538,55.407 93.48,54.702 93.78,53.693L95.25,48.76L96.717,53.693C97.018,54.702 97.963,55.407 99.016,55.407L99.139,55.403C100.248,55.347 101.164,54.546 101.371,53.456L102.438,47.83C111.521,50.613 118.362,58.386 119.93,67.756C120.098,68.761 120.885,69.55 121.887,69.723C122.002,69.742 122.113,69.761 122.223,69.781C117.201,70.645 107.96,71.505 95.435,71.522L95.068,71.521C82.544,71.505 73.3,70.645 68.277,69.781C68.387,69.761 68.499,69.742 68.611,69.723ZM145.264,137.27C143.647,123.543 132.228,113.833 121.628,110.299C114.946,108.071 109.742,104.168 108.047,102.801C111.193,99.926 113.428,96.123 114.964,93.511C115.382,92.799 115.743,92.184 116.027,91.758C116.421,91.166 116.913,90.487 117.441,89.756C119.624,86.738 122.341,82.98 122.661,79.462C122.834,77.556 122.216,75.998 121.344,74.773C129.338,73.576 130.996,72.008 130.996,69.776C130.996,67.059 127.828,66.004 124.33,65.3C121.719,53.791 112.603,44.87 101.032,42.533C100.399,42.408 99.748,42.539 99.219,42.894C99.001,43.041 98.808,43.224 98.651,43.431C98.293,42.592 97.483,42.017 96.558,41.972C96.262,41.957 95.965,41.951 95.71,41.949C95.621,41.938 95.528,41.933 95.429,41.933L95.428,41.933L95.241,41.936L95.064,41.933C94.972,41.933 94.88,41.937 94.832,41.946C94.534,41.951 94.237,41.957 93.94,41.972C93.014,42.017 92.204,42.592 91.849,43.432C91.69,43.224 91.5,43.041 91.28,42.894C90.753,42.539 90.103,42.408 89.468,42.533C77.897,44.87 68.781,53.791 66.169,65.3C62.671,66.004 59.502,67.058 59.502,69.776C59.502,72.008 61.161,73.576 69.158,74.774C68.286,75.999 67.665,77.557 67.838,79.462C68.158,82.978 70.874,86.735 73.058,89.755L73.132,89.858C73.628,90.545 74.095,91.191 74.472,91.758C74.757,92.185 75.119,92.799 75.561,93.55C77.072,96.124 79.304,99.925 82.454,102.801C80.755,104.169 75.545,108.074 68.872,110.299C58.271,113.833 46.85,123.543 45.235,137.27C44.835,140.674 45.241,143.004 46.477,144.395C47.307,145.326 48.252,145.551 48.717,145.6C51.728,146.007 78.571,149.567 93.931,149.567L94.753,149.563L95.121,149.565L95.726,149.563L96.569,149.567C111.929,149.567 138.771,146.007 141.757,145.603C142.247,145.551 143.192,145.326 144.021,144.395C145.258,143.005 145.665,140.674 145.264,137.27Z" style="fill:rgb(13,129,134);fill-rule:nonzero;"/>
      <path d="M95.25,0.5C42.645,0.5 0,43.145 0,95.75C0,148.355 42.645,191 95.25,191C147.855,191 190.5,148.355 190.5,95.75C190.5,43.145 147.855,0.5 95.25,0.5ZM95.25,5.5C145.014,5.5 185.5,45.986 185.5,95.75C185.5,145.514 145.014,186 95.25,186C45.485,186 5,145.514 5,95.75C5,45.986 45.485,5.5 95.25,5.5Z" style="fill:rgb(13,129,134);fill-rule:nonzero;"/>
    </g>
  </symbol>

  <symbol id="completion" width="100%" height="100%" viewBox="0 0 796 796" style="fill-rule:evenodd;clip-rule:evenodd;stroke-linejoin:round;stroke-miterlimit:1.41421;">
    <g transform="matrix(4.16667,0,0,4.16667,0,0)">
      <path d="M95.25,0.5C42.645,0.5 0,43.145 0,95.75C0,148.355 42.645,191 95.25,191C147.855,191 190.5,148.355 190.5,95.75C190.5,43.145 147.855,0.5 95.25,0.5ZM95.25,5.5C145.014,5.5 185.5,45.986 185.5,95.75C185.5,145.514 145.014,186 95.25,186C45.485,186 5,145.514 5,95.75C5,45.986 45.485,5.5 95.25,5.5Z" style="fill:rgb(13,129,134);fill-rule:nonzero;"/>
      <path d="M105.051,117.82L105.051,126.763L66.26,126.763L66.26,117.82L105.051,117.82ZM105.051,105.638L105.051,112.752L66.26,112.752L66.26,105.638L105.051,105.638ZM86.569,75.898C84.301,75.898 82.443,77.619 82.239,79.858L43.417,79.858L43.417,77.47L105.051,60.376L105.051,79.858L100.647,79.858C100.443,77.619 98.585,75.898 96.316,75.898L86.569,75.898ZM87.276,90.519L87.276,80.967L95.609,80.967L95.609,90.519L87.276,90.519ZM61.898,92.346L50.324,92.346C47.919,92.346 45.962,94.302 45.962,96.707L45.962,126.763L44.537,126.763C43.919,126.763 43.417,126.26 43.417,125.642L43.417,84.927L82.208,84.927L82.208,91.225C82.208,93.63 84.164,95.587 86.569,95.587L96.316,95.587C98.721,95.587 100.678,93.63 100.678,91.225L100.678,84.927L105.051,84.927L105.051,100.569L66.26,100.569L66.26,96.707C66.26,94.302 64.304,92.346 61.898,92.346ZM61.191,97.415L61.191,126.458L51.031,126.458L51.031,97.415L61.191,97.415ZM147.79,126.763L110.12,126.763L110.12,85.634L148.911,95.272L148.911,125.642C148.911,126.26 148.408,126.763 147.79,126.763ZM160.013,93.573C159.663,92.993 159.109,92.583 158.452,92.42L110.12,80.411L110.12,58.97L111.309,58.641C111.962,58.46 112.505,58.036 112.838,57.446C113.172,56.857 113.255,56.173 113.074,55.521C112.771,54.427 111.768,53.663 110.634,53.663C110.405,53.663 110.177,53.694 109.955,53.756L31.981,75.382C30.635,75.755 29.843,77.155 30.217,78.501C30.52,79.595 31.523,80.358 32.657,80.358C32.887,80.358 33.116,80.328 33.336,80.266L38.348,78.875L38.348,125.642C38.348,129.055 41.125,131.831 44.537,131.831L147.79,131.831C151.203,131.831 153.979,129.055 153.979,125.642L153.979,96.532L157.23,97.339C157.431,97.389 157.636,97.415 157.843,97.415C159.009,97.415 160.02,96.623 160.3,95.492C160.464,94.834 160.361,94.153 160.013,93.573Z" style="fill:rgb(13,129,134);fill-rule:nonzero;"/>
      <path d="M141.297,101.373L141.297,110.011L133.573,110.011L133.573,101.373L141.297,101.373ZM142.003,96.305L132.866,96.305C130.461,96.305 128.504,98.261 128.504,100.666L128.504,110.718C128.504,113.123 130.461,115.079 132.866,115.079L142.003,115.079C144.408,115.079 146.365,113.123 146.365,110.718L146.365,100.666C146.365,98.261 144.408,96.305 142.003,96.305Z" style="fill:rgb(13,129,134);fill-rule:nonzero;"/>
    </g>
  </symbol>
</svg>
