<svg xmlns="http://www.w3.org/2000/svg" viewBox="0 0 450 450"><defs><style>.cls-1{isolation:isolate;}.cls-2{opacity:0.3;}.cls-2,.cls-4{mix-blend-mode:screen;}.cls-3,.cls-5{opacity:0.5;}.cls-4{opacity:0.4;}</style></defs><title>Artboard 3</title><g class="cls-1"><g id="layer"><path d="M265.05,257H265l-11.81-5.85,0,0L243,240.59l-14.1-15.44-14.32-16L200.33,193.9l-21.58-14.39-23.23-15.42L118.75,130.6l-20.11-7L63.79,114a.13.13,0,0,1-.09-.13.14.14,0,0,1,.1-.12l44.52-9.24L95,94.6a.12.12,0,0,1,.07-.22l24-2.12L83.2,56.18a.12.12,0,0,1,0-.15.13.13,0,0,1,.14-.06l48,12.17-5.55-16.45a.13.13,0,0,1,0-.14.12.12,0,0,1,.14,0l31.08,16,28.66,6.75L216.51,76l31.65,1.52,29.2,1.29,31.44,2.81,18.59,2.8,18.76,4.67h0l18.48,11.22,0,0,20.92,27.28,15,24.42a.14.14,0,0,1,0,.06L401.77,169a.11.11,0,0,1,0,.11l-5.24,4a.09.09,0,0,1-.11,0l-12.68-4a.14.14,0,0,1-.08-.07L372,144.66l-18.19-15.4,10.26,23.57h0l6,15.66,3.33,12.34a.08.08,0,0,1,0,0l-.67,8.31a.15.15,0,0,1-.1.12l-8.15,1.79a.13.13,0,0,1-.09,0l-7.68-4.18-.05,0L352,177.11a.2.2,0,0,1,0-.11l11.57-23.57-16.23,15.1a.13.13,0,0,1-.12,0,.14.14,0,0,1-.08-.09l-2.81-10.09L328.1,137.74l-17.56-4.85-19.66-5.12-39.53,5.13-15.49,13.74-7.07,20.17,5.7,13.12L251,198.45l12.67,15.48,0,0,8,18.84,3,15.27a.16.16,0,0,1,0,.12l-9.5,8.79A.12.12,0,0,1,265.05,257Zm-11.73-6.07,11.71,5.8,9.39-8.69-2.93-15.18-8-18.79-12.65-15.46-16.54-18.54,0,0-5.73-13.19a.14.14,0,0,1,0-.09l7.1-20.24s0,0,0-.06l15.54-13.78a.09.09,0,0,1,.07,0l39.6-5.14h0l19.69,5.12,17.6,4.86.06.05,16.25,20.69a.05.05,0,0,1,0,0l2.76,9.91,16.51-15.36-10.43-24a.13.13,0,0,1,0-.15.14.14,0,0,1,.16,0l18.61,15.77a.05.05,0,0,1,0,0L383.81,169l12.57,3.94,5.14-4-1.14-16.79-14.95-24.38-20.91-27.25L346.07,89.35l-18.72-4.67-18.58-2.8-31.43-2.8-29.2-1.29L216.5,76.27l-30.86-1.74-28.71-6.76L126.1,51.9l5.52,16.37a.15.15,0,0,1,0,.13.13.13,0,0,1-.12,0L83.7,56.32l35.75,36a.11.11,0,0,1,0,.13.12.12,0,0,1-.1.08L95.44,94.6l13.26,9.82a.11.11,0,0,1,0,.13.11.11,0,0,1-.09.09l-44.3,9.2,34.36,9.52,20.14,7a.05.05,0,0,1,0,0l36.79,33.49,23.21,15.41,21.6,14.41L214.8,209l14.32,16,14.11,15.44Zm103.53-64.23,7.6,4.14,8-1.77.66-8.19-3.32-12.31L364,153.19l-11.72,23.86Z"/><path d="M265.05,257a.12.12,0,0,1-.11-.08l-2.89-7-8.79,1.21h0a.12.12,0,0,1-.13-.07h0l-3.47-8.87-6.55-1.59a.13.13,0,0,1-.1-.1.13.13,0,0,1,.06-.12l4.71-3-2.91-7.46L229,225.19a.13.13,0,0,1-.09-.1.14.14,0,0,1,0-.12l10.48-8.6-24.75-7.2a.14.14,0,0,1-.09-.08.11.11,0,0,1,0-.11l3.36-5-17.61-10.09h0l0,0h0v0l-8.44-17.2-13,2.85a.12.12,0,0,1-.13,0,.14.14,0,0,1,0-.14l5.84-10.25-29-5a.13.13,0,0,1-.1-.09h0l-7.31-30.07v-.05h0L163,115.66h0l24.62-21.91h0v0L216.44,76a.11.11,0,0,1,.1,0,.11.11,0,0,1,.07.06l4.49,8.68,27-7.23h.07s0,0,0,0h0l20.12,12.89,8.91-11.57h0a.12.12,0,0,1,.07,0h0l.07,0,18.73,11.76,12.56-9,.07,0h0a.08.08,0,0,1,.07,0h0l11.43,9.88,7-7.08a.09.09,0,0,1,.1,0,.11.11,0,0,1,.09,0l4.39,7.06,14.23-2.44s0,0,0,0h0l.05,0h0l0,0L359.05,104l5.49-3.66,0,0h.09a.08.08,0,0,1,0,0h0l9,20.58,3,3.47,8.85,3.16h0l0,0,0,0h0l5,12.91,9.91,11.46a.2.2,0,0,1,0,.11l-1.82,9.25,2.95,7.56a.11.11,0,0,1,0,.15.12.12,0,0,1-.15,0l-3.67-3-1.37,7,0,0h0a.08.08,0,0,1,0,0l-.06,0h-.06l0,0h0a0,0,0,0,1,0,0l-7.6-8.9-4.9,4.94a.12.12,0,0,1-.14,0,.14.14,0,0,1-.07-.12l.45-10.31-12-14.1a.09.09,0,0,1,0-.07l-1.2-7.07-17.05-8.46,9.45,22.85.86.87h0s0,0,0,0l.7,2.91L370,168.5h0v.05h0l-1.13,4.63,3.79,16a.13.13,0,0,1-.22.11l-5.92-6.49-2,8.23a.11.11,0,0,1-.1.09.13.13,0,0,1-.13,0l-11.94-19.5-.16,5.51a.12.12,0,0,1-.1.11.1.1,0,0,1-.13-.06l-4.86-8.61a.12.12,0,0,1,0-.13.11.11,0,0,1,.11-.06h0l3.16,0-6.08-9.93-16.24-20.69-8.52-9.83-8.92,5a.13.13,0,0,1-.16,0,.14.14,0,0,1,0-.15l5.45-9-1.76-2-23.24,6.12h-.08L279,123l-27.64,9.89h0l-7.86.53-7.58,13.19,0,0-13.2,12.59,6.11,7.48a.09.09,0,0,1,0,.05h0a.11.11,0,0,1,0,.1L217,178.17l8.76,5.22,8.62-3.51h.11l0,0L245,194.87l6,3.56,0,0h0v0h0l0,0h0l.73,5.95,7,9.88,4.84-.46a.1.1,0,0,1,.11.05.13.13,0,0,1,0,.12l-2,4.48,10,14.24h0s0,0,0,0h0v0h0l-2.89,10.59,5.79,4.53h0l0,0h0a.08.08,0,0,1,0,0h0v0h0a.11.11,0,0,1,0,.08h0v0h0l-.06,0h0l-7.3,1-2.09,7.69a.13.13,0,0,1-.12.09Zm-2.75-7.1L265,256.5l2-7.24Zm-2.45-5.24-6.25,6.19,8.35-1.15Zm-5.69-1.37-.75,7.4,6.15-6.1Zm-4.2-1,3.21,8.23.75-7.27Zm10.2,2.47,2,4.93,4.87-.68.67-2.42Zm7.82,1.89-.64,2.33,6.54-.91Zm.06-.24,6,1.44-5.25-4.11Zm-8-1.94,7.74,1.88.76-2.78-4.24-3.32Zm-5.87-1.41,5.55,1.34-4.57-11Zm1.21-9.8,4.55,11,4.17-4.14Zm9.1,6.81,4.13,3.24,2.74-10ZM249.85,242l4.09,1,1-9.89-6.86,4.39Zm-6.4-1.55,6.1,1.48-1.68-4.31Zm11.8-7.63,9.05,7.09,7.1-7-13.11-6.79ZM245.17,230l2.83,7.23,6.8-4.35Zm-.11-.29,9.64,2.88L240,216.88Zm13.33-3.87,12.82,6.64-9.64-13.69Zm-18.12-9.1,14.66,15.73-1.06-8.69Zm13.87,7.18,1,8.46,2.89-6.42ZM229.29,225l15.46,4.63-5.11-13.12Zm24.82-1.37,4.06,2.11,3.23-7.18-2.78-3.95-5.55.53Zm-14-7.24,13.72,7.1-1-8.32Zm18.78-1.81,2.62,3.72,1.87-4.15Zm-9.61-13.22-9.36,14.8,12.86-1.24-1.25-10.37Zm-12.24-4L239.76,216l9.37-14.81-2-2.84Zm-18.72,6.56,20.91,12-14.39-19.7-1.23-.11Zm-3.42,5,23.81,6.93-20.53-11.76Zm10.27-12.71,14.31,19.58-2.7-18.5ZM251.84,205l1.2,9.9,5.41-.52Zm-2.41-3.86,2,2.9-.62-5.14ZM201,194l17.13,9.82,5.23-7.73Zm46.48,4.35,1.81,2.58,1.44-2.28Zm-.19-.27,3.12.29-5-3Zm-10.26-1,9.93.93-2.1-3-8.9-5.3ZM225,196l11.77,1.1-1.09-7.49-5.43-3.24-5.91,8.72Zm-1.2-.12.87.09-.48-.66Zm-22.84-2.13,22.56,2.11.52-.76L218,186.81Zm17.27-7,5.95,8.15,5.85-8.64-4.31-2.56Zm17.68,2.72,8.6,5.12-9.9-14.06Zm-22-8.28L201,193.45l16.83-6.85Zm-5.78-7.89-7.34,20.08,13-12.39Zm-6.49,1.28-1,18.44,7.24-19.81Zm-9.45,2.07,8,16.35-3.07-17.44Zm5.2-1.14,3,17.24,1-18.12Zm155.07-4.38,12,19.56,2-8.1-12.75-14h-1.15Zm-122,15.06,5.25,3.12-1.31-8.94Zm136.27-3.67,5.71,6.25-3.56-15ZM214,181l4,5.52,7.38-3-8.66-5.16Zm12,2.56,4.16,2.48,3.9-5.76Zm128-15,12.48,13.67,2.22-9.06-1.08-4.54Zm-145.47,4.84,5.38,7.35,2.68-2.56Zm-23.68-4.29-5.74,10.08,12.68-2.78-3.27-6.67Zm23.53,3.9,8.4,5,11.46-11Zm139.11-4.48,4.53,8,.16-5.44-1.58-2.58Zm-158.67,1.26,3.22,6.57,5-1.1-.73-4.18Zm7.78,1.34.72,4.07,4.05-.89.13-2.34Zm5.15.88-.12,2.25,5.79-1.27Zm0-.25,5.73,1-5.59-3.66Zm4.53-14.3,1.87,15.25,10.51-10Zm12.64,5.33-10.4,9.92,19.8-6ZM202,167.42l5.91,5.27L206,157.38l-3.43-1.44Zm165.89,1.24,1,4,1-4Zm26.27-5.72,2.28,9.53,1.29-6.57Zm-5.22,1.11,7.06,8.28-4.68-10.69Zm-187,4.78,4.81,3.15-4.75-4.24Zm-5.36,2.07,4.95.85.15-2.79-6.15-4Zm194.94-9.45,4.5,10.27-2.17-9-2-1.61Zm-202.82,8.09,7.61,1.31-1.07-6.1L189.44,161l-2.68,4.72Zm162.21-1,1.3,2.13.07-2.13Zm-165.91.33,3.4.58L186.61,166Zm-29.08-5,28.82,5,1.8-3.16-4.81-9.79-10.09-6.61Zm228.43-4.85-.43,9.72,4.69-4.73ZM195.41,164.6l6.22,4.07.07-1.14-6.85-6.11ZM398,165.8l3.41,2.81-2.64-6.74Zm-30.17,2.61h1.76l-2.14-1.59Zm-14-.07,13.79.07-.43-1.81-14.2-10.51-.06,0L352.51,167Zm-1.26,0h.92l-.89-1Zm-1.77,0h1.52l0-1.23-7.05-7.72Zm16.61-1.87,2.33,1.72-4.5-10.88ZM194.78,161l6.93,6.19.61-11.38-8-3.38-.78,1.38Zm149.87-2.63,7.62,8.35.31-10.56Zm-125.57,4.25,9.16,3.86-5.79-7.08ZM353.2,156,367,166.22l-2.46-10.38-1.11-2.69ZM394,162.54l3.73,3.08.81-4.19-2-5.13-3.25,3.29Zm-211.93-6.36,4.55,9.25,2.6-4.57Zm7.49,4.6,5.55,3.63-.57-3.26-3.45-3.07Zm194.73-2.1,4.42,5.18,2.44-2.47-.61-1.39-6.08-5ZM159.24,141.24l-3.47,22.41,15.59-14.49Zm-10.76-7.05,7.08,29.15L159,141.09Zm57.74,23,12.61,5.32,3.47-3.3-18.62-22.78ZM392,160.89l1.67,1.38-.59-2.47Zm-1-.54.37.85.3-.29Zm5.77-4.24,1.89,4.87,1.66-8.46Zm-205.52,1.74,3.25,2.9-1.16-6.58Zm199.53,2,1.06.88,1.21-1.22-3-12.42-5.13-2.55-.08,1.8Zm-208.89-4.11,7.49,4.9,1.55-2.73-14.2-12.67Zm202.61-1.09,5.85,4.84-5.51-12.58Zm5.86-7.42,2.89,12.07,3.22-3.25-2.8-7.17ZM203.87,136.29l18.61,22.76,13-12.43Zm169.27,9.31,10.93,12.8.16-3.63Zm-26.48,5.87-2.05,6.67,8-2.22v-.06Zm-17.82-13.18L344.3,158l.16-8.12ZM177,145.13,191,157.68l2.21-3.89-.34-1.93ZM344.7,150l-.14,7.41,1.88-6.12Zm-142.12,5.64L206,157.1l-2.4-19.64ZM394,149l2.66,6.81,3.64-3.68Zm-41.15,6.7.1.08,10.39-2.9-.09-.22-10.19-4.33Zm-158.41-3.51,7.9,3.34,1-19Zm152.3-1,5.86,4.34.21-7.3-4.56-1.94Zm-175-2.09,9.7,6.34-5.18-10.54Zm200.53-4.56,11.95,9.89.35-8.07-1.12-2.57-7.59-3.76Zm-8.62,8.52.5,1.22-.3-1.28ZM193.19,152l.26,1.47.62-1.1Zm159.87-3.88,10,4.27-.12-.31-9.75-9.76Zm-159.92,3.59,1.06.44,9-15.88-12.13,3.88Zm200.71-3,6.15,3.06-9-10.47Zm-217.17-3.95,16.18,6.83-2-11.36ZM353.24,142l9.49,9.5L353.6,129.4Zm-8.53,7.76,1.81,1.34,1.49-4.84-3.21-1.37ZM329.1,138.16l15.36,11.38.09-4.79ZM159.29,141l12.26,8,4.54-4.22-16.41-6.33Zm231,5.95,3.26,1.62-3-7.81L388.13,138Zm-41.94-.83,4.49,1.91.18-5.93-2.63-2.63Zm36.61-1.81,5,2.5-2.2-9.17-2.42-2.8Zm-180.78-8.15,31.37,10.24-5.4-12Zm26.24-1.79,5.38,12,7.37-12.82Zm114.42,10.25,3.27,1.4,2.08-6.75L345,134.07Zm39-.59.8,1.83.06-1.4ZM187.74,122.44l-11.17,22.07L190.82,140Zm-28,15.75,16.36,6.31-13-28.33Zm168.8-.54,16,6.83.2-10.66-1.36-1.36ZM163.29,115.93l13,28.51,11.29-22.31Zm207.77,21.74,1.13,6.62,3.46-4.35Zm12.6,6,1,.51.42-9.63-2.51-2.91L379.89,135ZM376,139.86l7.27,3.61-3.6-8.23Zm-25.6-.7,2.56,2.55.34-12Zm-201.1-4.7,9.72,6.35.38-2.46Zm238.66,3,2.2,2.54-4.12-10.55Zm-200-15.1,3.08,17.5,12.19-3.9Zm183,15,4.8,2.38L379.6,135l-3-6.83-7.12.25Zm-26-3.64,5.23,5.24,3.06-10-8.25,2.88Zm-196.52.14,11,4.24,3.4-21.92Zm188.21-8.12-8.2,11.65,14.71-5.13Zm-9-2.44.54,14,8.24-11.7-4.6-4.6ZM354,128.92l16.74,8.31-1.5-8.83Zm31.38,5.51,2.28,2.64-2-8.45Zm-62.28-8.53L328,137l-.53-13.55Zm-3.31,1.86,7.94,9.16L322.87,126Zm-131.69-5.62,15.41,13.73L222.45,118ZM222.77,118l-18.88,17.82,25-4.31ZM229,131.77l-23.05,4,24.1-1.64Zm147.92-3.62,2.89,6.61,2.66-3.34-2.91-3.36Zm5.88,3.26,2.37,2.75.26-6Zm-153.55.32,1.07,2.36,13-.89,2.49-4.33Zm114.46.64,1.1,1.11,0-1.5Zm-97.62-3.48-2.46,4.29,7.37-.5Zm.17-.19,4.93,3.82-.41-7.31ZM251,125l.42,7.46,14.37-14.77-3.51-1.41Zm65.11-1.15-5.16,8.55,8.46-4.74ZM266,117.82,252,132.3l21.5-11.51Zm70.82,7.71,6.63,6.64,1.33-.46.2-10.12-3.34-2.9Zm-63.09-4.62-20.9,11.19,25.78-9.23Zm71.49.89-.19,9.82,8.2-2.85Zm-122.18-3.74,6.05,13.43,16.5-2.85Zm156.78,10,2.75,3.18,2.68-3.36Zm-22-10.07-4.2,10.71,15.51-.52-1.11-6.54ZM223,117.75l22.7,10.66-15-24.64Zm128.16-2.19,2.39,12.8,4.1-10.48ZM231,103.77l14.95,24.51.76-18.22Zm114.29,17.71,7.82,6.8-7.68-14.47Zm-94.75-.42-4.07,7.16,4.29-3.31Zm-3.58-10.9-.76,18,4.31-7.59-.52-9.22Zm121.43,11.55,1.09,6.44,7.06-.24L374.79,124Zm-22.81-8.15L353.22,128l-2.34-12.56Zm29.58,10.57,1.65,3.77,2.54-.09-2.72-3.15Zm1.94.7,2.57,3,5.25-.18Zm-60.83-1.18,3.38,3.91,3.16-1.77-2.55-5.73-2.16.56Zm-36.9-.77,11.37,4.56-2.2-7.84Zm21.15-7.57-9.27,12.12,22.77-6-7.25-8.37Zm-11.75,4.21,2.21,7.85,9.11-11.91Zm31.73.47,2.53,5.68,4.49-2.51-.19-5Zm11.68.84,4.52,4.52,4.81-6.83-2-1.77Zm-81.41-.17.23,4.07,11-8.53-7.12-2.85ZM375,123.82l1.27.46-2.17-2.52Zm-6.68-2.39,6.36,2.27-1.14-2.58-6.56-7.6Zm-53.87.15,1.63,1.88,1.65-2.74Zm13.11-3.45.19,4.89,4-2.25-3-3ZM274,120.76l4.94,2,9.45-3.38-1.55-5.47Zm-86.16-9.38,0,10.53,34.55-4.19-14.59-10Zm-24.22,4.38,24,6.13,0-10.47ZM307,113l7.26,8.39,3.65-1,1.43-2.36-3.64-8.18Zm51,4.76,10.06,3.6-1.39-8.18-4.73-5.48Zm-16.17.74,3.2,2.78.15-7.52Zm-12.75-.75,2.91,2.92,7.27-4.08-1.35-1.16Zm-62.84-.11,7.52,3,13.09-7-3.76-13.34Zm100.67-4.57,6.3,7.29-8.28-18.91Zm-47.43,5.27-1.2,2,1.87-.5Zm-69.25-6.84.5,8.72,4-6.94Zm69.41,6.58.75,1.7,6.92-1.82-.07-1.7-4-4Zm-32.5-4.3,1.55,5.52,11.67-4.18,3.83-5-3.23-3.73Zm52.55,2.86,2,1.7,3.24-4.61Zm-12.19-.12.06,1.37,1-.27Zm-11.54-6.72,3.55,8L323,112l-3.49-3.49Zm35.17,5.5,6.63,2.37,4-10.18L359,104.33l-8.85,5.9ZM208.23,107.7l14.54,9.92,7.65-13.93Zm119.23,8.44,1.39,1.39,8.81-2.32L327.06,106Zm-65,0,3.47,1.38,15.84-16.29Zm75.69-.81,1.28,1.11,4.9-2.74ZM255,113.14l7.21,2.89,20.5-15.82-21.16,1.39ZM323.29,112l3.91,3.92-.38-9.75ZM187.57,94.11l-24.08,21.43,24.14-4.37Zm158,19.19,5.28,1.88-.9-4.8Zm-18-7.18,10.36,9,6.94-1.83Zm-23.27,4.17-3.56,4.65,5.8-2.07Zm-21-10.11L287,113.52l13.72-7.34-5-5.81Zm62.93-9.81-.8,22.72,4.47-3Zm-96,20.84,4.58,1.83,6.49-11.42-11.57.77Zm77-5.54,17.45,7.25-12.89-11.16Zm8.8-7.55,9.21,14.79.82-23.4Zm-31.48,12,2.33,2.69,8.78-3.14-4-8.91Zm27.43-8.49,12.83,11.1-9-14.42Zm30.1,5.82,4.55,5.26-2-11.77Zm-42.26,1,3.36,3.37,3.53-5.83ZM187.82,94.07l.06,17.05,19.71-3.56Zm59.11,15.83,3,1.2-.49-8.7-2.2.15Zm99.4-20.24,3.78,20.3,8.73-5.82Zm-45.17,16.59,3.15,3.64,6.9-9Zm-69.94-2.65,15.46,6.2.3-7.24Zm80.83-2.54,3.78,8.49,3.46-1.24Zm.08-.28,7.42,7.44,7-2.51ZM188.31,94.1l19.63,13.4,22.09-4Zm170.91,10.09,2.61,3,2.52-6.43Zm-63.15-3.81,4.92,5.68,10.18-5.45Zm24.86-2.79,6,7.94,4.58-3.93-6.27-5.42Zm-8.88,2.9,14.53,5-5.9-7.79ZM248,78.1l-17.1,25.27L247,102.31ZM188.22,93.82l42.2,9.51L221,85.06Zm33-8.82,9.45,18.27,17.19-25.4Zm26.95-4.8-.92,22.1,2.17-.15Zm.12-2.23,1.38,24.17,11.74-.78,4.11-7.22Zm77.25,18.12,6.18,5.34,3.92-3.36-2.74-4.39Zm-59.81-1.82-4,7.07L282.49,100Zm30.12,5.85,15.36.24L305,96.43l-10.72,1.84Zm9.47-3.75,6.17,3.87-.73-4.81Zm5.68-1,.75,4.83,5.89-6Zm7.05-1.2-5.94,6,8.41-2.75ZM284.46,100l11.05.17L294,98.32Zm-6.84-20.49,5.57,20.39,7.48-5.33Zm13.21,15.25-7.19,5.13,10.12-1.74Zm-22.28-4.13,14.36,9.19L277.3,79.23Zm-2.67,3.47,16.3,5.55L268.4,90.78Zm25.16.52,3,3.48,10.59-1.82-8.48-5.32Zm42.11-1,2.68,4.3,9.74-8.36Zm-14.83.53,2.45,3.25L325,96l-2.9-2.51Zm-21.94-3.38L305,96.17l5.71-1L308.7,82Zm26.08,2.67,2.86,2.48,7.45-2.44-1-1.63ZM309,82.23l2,12.91,6.9-1.18Zm-31-2.72,12.87,14.87,5.06-3.61Zm-28.78-1,16.44,15.43,2.53-3.29Zm71.09,13.4-1.95,2,3.54-.6Zm-10.7-9.27,8.46,11.18,2.05-2.08Zm-93.16-6.31-28,17.17,32.36-8.66ZM332,91.78l1,1.6,11.44-3.74Zm-11.53-.06,1.72,1.49,9.4-1.61-4.26-6.84Z"/><path d="M155.59,164.11a.16.16,0,0,1-.1-.05l-28.55-36.14-8.09,2.69a.13.13,0,0,1-.16-.07l-4.71-12L98.72,123.6a.14.14,0,0,1-.14,0,.12.12,0,0,1,0-.14l9.94-19h0l10.73-12.15,12.13-24h0l0,0h0l0,0h0L157,67.52a.08.08,0,0,1,.08,0l14.41,12.28,14.15-5.54a.14.14,0,0,1,.11,0,.11.11,0,0,1,.06.09l2,19.43a.13.13,0,0,1,0,.08h0l0,0h0l0,0-26.2,8.73,1.65,13h0s0,0,0,0h0a.14.14,0,0,1,0,.06h0v0h0l0,0-17.8,5.93,3.1,12.09a.15.15,0,0,1-.07.15.14.14,0,0,1-.16,0l-7.43-10.68-13.56,4.52,28.5,36.08a.12.12,0,0,1,0,.17A.11.11,0,0,1,155.59,164.11ZM141,123.23l7,10-2.92-11.41Zm-26.78-4.79,4.66,11.9,7.9-2.63-8.42-10.65Zm4.4-1.47L127,127.62l13.57-4.52L133,112.18Zm-10-12.15-9.68,18.44,15-5Zm24.64,7.28,7.6,10.92,4.16-1.39-2.56-10-4.79-1Zm9.47-.43,2.53,9.88,17.34-5.78Zm-33.67-6.41,5.07,12.94,4.08-1.35Zm-.12-.55,9.52,12.05L132.86,112,131,109.25Zm33.72,6.7,20.15,4.15-7.25-10.89-13.47,4.49Zm13.15-6.82,7.08,10.64-1.59-12.47Zm-24.48,4.74,1.78,2.55,4.07-1.35Zm6.81,1.14,4.25.88-.54-2.11Zm-7-1.44,6.52,1.34,4.14-1.38-4-15.72-13.84,5.41Zm-22.06-4.55,21.7,4.48-7.09-10.19ZM138,93.17l4,15.74,13.39-4.46L145.85,90.1Zm8.1-3.16,9.56,14.36,5.61-1.87L159,85Zm-26.74,2.56-10.29,11.65,14.47-5.66Zm39.92-7.72,2.23,17.57,25.85-8.61L163.76,83.1ZM119.54,92.4l4.23,6.07L137.69,93l-2.75-10.75ZM171.66,80l15.88,13.52-2-19Zm-7.58,3,22.86,10.38L171.4,80.11Zm-28.92-.84,2.77,10.8,7.78-3-6.8-10.22Zm-3.7-13.46L119.69,92l15.19-10Zm7.66,10.86L146,89.79,159,84.69l-.51-4L146,75Zm19.64,1.3.48,3.77,4.2-1.64Zm0-.29,5,2.29,7.41-2.9L157.13,68ZM131.8,69l3.3,12.88,3.67-2.41Zm14.42,5.87,12.24,5.56-1.6-12.56Zm-14.38-6.25L139,79.32l6.72-4.42Zm.2-.19L146,74.74l10.58-7Z"/><path d="M390.43,122h0l-11.33-3h0a.1.1,0,0,1,0,0h0v0l-1.56-7.64-12.88-10.7h0l0,0h0s0,0,0,0h0a.11.11,0,0,1,0,0,.1.1,0,0,1,0-.05h0l9.47-4.4-27.94-6.58a.12.12,0,0,1-.09-.15.13.13,0,0,1,.15-.09l28.28,6.66h.05l14.12,6.5h0l11.88,6.25h0l0,0s0,0,0,0a.06.06,0,0,1,0,0h0l-1.65,10.18h0a.08.08,0,0,1,0,0h0l0,0h0L390.47,122h0Zm4.09-5.34-3.74,5,7.71-2.82Zm-15.06,2.15,10.45,2.79-6-4.94Zm10.34-4.68.72,7.41,3.78-5Zm-3.22,1.27,3.67,6-.71-7.36Zm-2.38,1.14,5.72,4.75-3.56-5.78Zm-2.59-1.83-2.21,3.85,4.34-2.08Zm-3.89-3.23,1.43,7,2.27-3.94Zm16.95,5,3.77,2-2.4-3.83Zm1.54-2,2.51,4,1.51-9.36Zm-14.47,0,2.25,1.87,2.24-1.07-2.57-4.15Zm8.08-.64,4.63,2.49,1.45-1.92-1.67-2.68Zm-6-3,2.64,4.29,2.82-1.35Zm-6.17.19,3.9,3.24,2-3.43-.14-.23-6.54-3.52Zm16.82.54,1.6,2.58,4-5.24Zm-10.53-1,5.58,3-1.05-10.89Zm4.79-7.77,1,10.7,4.35-2.08Zm.18-.19,5.43,8.7,5.82-2.79Zm-23.25-1.58,11.68,9.7-.78-3.84Zm17.9,9.34.16.08,4.63-8.06-10.22-.83Zm-6.78-3.65,6.34,3.41-5.3-8.6-2.14-.17Zm-11.58-6.22,11.29,6.07-1.07-5.24Zm12.76.79,9.9.81-13.12-6Zm-2.33-.19,2,.17-3-4.83Zm-10.53-.86,10.27.84-1.05-5.12Z"/><path d="M163.07,115.86a.08.08,0,0,1-.07,0L83.22,56.19a.11.11,0,0,1,0-.15.12.12,0,0,1,.13-.07L185.67,74.28a.16.16,0,0,1,.09.07.13.13,0,0,1,0,.12L163.18,115.8a.16.16,0,0,1-.08.06ZM83.79,56.31,163,115.55l22.43-41Z"/><path d="M98.68,123.61a.18.18,0,0,1-.09,0L76.11,102.2l-19.7,3.34,7.5,8.2a.12.12,0,0,1,0,.15.13.13,0,0,1-.14.06L42,108h0s0,0,0,0,0,0,0,0a.13.13,0,0,1,0-.06h0v0h0a.05.05,0,0,1,0,0l0,0,11.78-4.91a.12.12,0,0,1,.14,0l2.26,2.47L75.88,102l-19-18.15a.12.12,0,0,1,0-.15.13.13,0,0,1,.14-.06l17.17,4a.13.13,0,0,1,.1.1l2,14.2,18.8-7.5a.11.11,0,0,1,.11,0,.11.11,0,0,1,.06.09l3.58,29a.11.11,0,0,1-.07.12Zm-22.3-21.5,22.13,21L95,94.68Zm-33.74,5.77,20.8,5.71-7.33-8Zm11.17-4.8-10.68,4.46,12.78-2.17ZM57.35,84,76,101.73,74,87.81Z"/><path d="M83.29,56.22h0L67.78,52.16a.14.14,0,0,1-.09-.08L61.82,33.83a.13.13,0,0,1,.06-.14.12.12,0,0,1,.15,0L83.36,56a.11.11,0,0,1,.06.1.12.12,0,0,1-.12.13ZM67.91,51.94l15,3.92L62.23,34.27Z"/><path d="M125.88,51.77h-.06l-30.66-17a.1.1,0,0,1,0-.06l-4.73-11.4a.13.13,0,0,1,0-.15.12.12,0,0,1,.15,0L126,51.55a.12.12,0,0,1-.08.22ZM95.32,34.6l29.34,16.23L90.8,23.7Z"/><path d="M95.1,94.63h0a.13.13,0,0,1-.1-.06L82.06,73.22a.12.12,0,0,1,.17-.17l20.52,10.59,23-32.07a.13.13,0,0,1,.15,0,.13.13,0,0,1,.07.14l-6.51,40.71a.14.14,0,0,1-.07.1.14.14,0,0,1-.11,0L102.82,84,95.2,94.58A.12.12,0,0,1,95.1,94.63ZM82.5,73.47,95.11,94.28l7.49-10.43ZM103,83.76l16.3,8.41,6.4-40Z"/><g class="cls-2"><polygon class="cls-3" points="390.43 121.88 346.12 89.23 379.1 118.85 390.43 121.88"/><polygon class="cls-3" points="379.1 118.85 364.61 100.44 390.43 121.88 379.1 118.85"/><polygon class="cls-3" points="353.49 128.81 326.93 105.71 345.28 113.33 353.49 128.81"/><polygon class="cls-3" points="372.05 144.59 339.49 116.63 345.28 113.33 372.05 144.59"/><polygon class="cls-3" points="345.28 113.33 298.76 85.56 353.49 128.81 345.28 113.33"/><polygon class="cls-3" points="251.29 132.78 246.02 128.7 290.89 127.65 251.29 132.78"/><polygon class="cls-3" points="235.75 146.57 246.02 128.7 256.3 128.46 235.75 146.57"/><polygon class="cls-3" points="158.61 80.62 125.88 51.65 156.96 67.65 158.61 80.62"/><polygon class="cls-3" points="61.94 33.8 67.81 52.04 83.29 56.09 61.94 33.8"/><polygon class="cls-3" points="82.17 73.16 95.1 94.5 119.49 92.51 82.17 73.16"/><polygon class="cls-3" points="41.37 79.13 50.35 90.24 33.55 82.99 41.37 79.13"/><polygon class="cls-3" points="179.06 86.47 185.65 74.41 248.15 77.66 179.06 86.47"/><polygon class="cls-3" points="155.59 163.98 184.74 169 201.43 194.67 155.59 163.98"/><polygon class="cls-3" points="155.59 163.98 116.78 125.31 189.92 176.93 155.59 163.98"/><polygon class="cls-3" points="118.81 130.49 114.05 118.36 155.59 163.98 118.81 130.49"/><polygon class="cls-3" points="42.07 107.85 98.68 123.48 114.05 118.36 42.07 107.85"/><polygon class="cls-3" points="63.82 113.83 118.81 130.49 126.76 127.48 63.82 113.83"/><polygon class="cls-3" points="396.4 173.06 383.73 169.09 372.11 144.59 396.4 173.06"/><polygon class="cls-3" points="364.43 190.98 356.75 186.81 347.24 168.44 364.43 190.98"/><polygon class="cls-3" points="372.58 189.18 356.75 186.81 364.43 190.98 372.58 189.18"/><polygon class="cls-3" points="347.24 168.44 344.59 158.25 356.75 186.81 347.24 168.44"/><polygon class="cls-3" points="323.01 126.03 328.48 138.06 344.42 158.32 323.01 126.03"/><polygon class="cls-3" points="328.01 133.57 290.89 127.65 328.17 137.63 328.01 133.57"/><polygon class="cls-3" points="200.42 193.81 265.05 256.89 243.13 240.5 200.42 193.81"/><polygon class="cls-3" points="274.55 248.1 265.05 256.89 253.25 251.04 274.55 248.1"/><polygon class="cls-3" points="265.08 256.46 253.25 251.04 229.03 225.07 265.08 256.46"/><polygon class="cls-3" points="401.65 169.02 396.4 173.06 383.73 169.09 401.65 169.02"/></g><path d="M59.27,73.28a.11.11,0,0,1-.08,0L25.71,40.78a.14.14,0,0,1,0-.16.12.12,0,0,1,.15,0l24.65,8.64a.12.12,0,0,1,.07.07l8.83,23.84a.11.11,0,0,1,0,.14A.08.08,0,0,1,59.27,73.28ZM26.29,41,59,72.69,50.35,49.42Z"/><path d="M92.05,43.28l-.07,0L68.16,26.87a.13.13,0,0,1,0-.11L69.58,6.27a.13.13,0,0,1,.1-.12.12.12,0,0,1,.13.06L92.14,43.06a.11.11,0,0,1,0,.09.12.12,0,0,1-.12.13ZM68.36,26.71l23.29,16L69.8,6.67Z"/><path d="M54.1,41.15a.14.14,0,0,1-.11-.06L45.28,25.75a.15.15,0,0,1,0-.16.12.12,0,0,1,.15,0l5.19,3.49s0,0,.05.07L54.21,41a.1.1,0,0,1,0,.07.12.12,0,0,1-.12.13ZM45.76,26.08,53.67,40,50.48,29.25Z"/><path d="M65.85,74.83h0a.12.12,0,0,1-.09-.1L63.79,59.34a.12.12,0,0,1,.08-.14.11.11,0,0,1,.14,0l6.31,9.48a.14.14,0,0,1,0,.15L66,74.78A.16.16,0,0,1,65.85,74.83Zm-1.75-15,1.84,14.55,4.12-5.58Z"/><path d="M50.35,90.36h0L33.5,83.1a.12.12,0,0,1-.07-.11.13.13,0,0,1,.07-.12L41.32,79a.14.14,0,0,1,.15,0l9,11.11a.11.11,0,0,1,0,.15A.1.1,0,0,1,50.35,90.36ZM33.85,83l16.09,6.94-8.6-10.63Z"/><path d="M277.65,79.86a.76.76,0,1,1,.51-.94A.76.76,0,0,1,277.65,79.86Z"/><path d="M131.71,69a.76.76,0,1,1,.51-.94A.76.76,0,0,1,131.71,69Z"/><path d="M83.51,56.82a.76.76,0,1,1,.51-.94A.77.77,0,0,1,83.51,56.82Z"/><path d="M119.58,93.09a.76.76,0,1,1,.51-.94A.76.76,0,0,1,119.58,93.09Z"/><path d="M95.31,95.23a.76.76,0,1,1,.51-.94A.76.76,0,0,1,95.31,95.23Z"/><path d="M108.84,105.25a.76.76,0,1,1,.51-.94A.76.76,0,0,1,108.84,105.25Z"/><path d="M64,114.55a.76.76,0,1,1,.51-.94A.76.76,0,0,1,64,114.55Z"/><path d="M98.89,124.21a.76.76,0,0,1-.43-1.45.75.75,0,0,1,.94.51A.76.76,0,0,1,98.89,124.21Z"/><path d="M119,131.22a.76.76,0,0,1-.44-1.45.76.76,0,1,1,.44,1.45Z"/><path d="M155.81,164.71a.76.76,0,1,1,.51-.94A.76.76,0,0,1,155.81,164.71Z"/><path d="M179,180.13a.76.76,0,1,1,.51-.94A.76.76,0,0,1,179,180.13Z"/><path d="M200.64,194.54a.76.76,0,1,1,.51-.94A.75.75,0,0,1,200.64,194.54Z"/><path d="M214.93,209.77a.76.76,0,1,1,.51-.94A.76.76,0,0,1,214.93,209.77Z"/><path d="M229.25,225.79a.76.76,0,1,1,.51-.94A.76.76,0,0,1,229.25,225.79Z"/><path d="M243.35,241.23a.76.76,0,1,1,.51-.94A.76.76,0,0,1,243.35,241.23Z"/><path d="M253.46,251.76a.76.76,0,1,1,.51-.94A.76.76,0,0,1,253.46,251.76Z"/><path d="M265.27,257.61a.76.76,0,1,1,.51-.94A.76.76,0,0,1,265.27,257.61Z"/><path d="M271.82,233.57a.76.76,0,1,1,.51-.94A.76.76,0,0,1,271.82,233.57Z"/><path d="M263.81,214.74a.76.76,0,0,1-.43-1.45.75.75,0,0,1,.94.51A.76.76,0,0,1,263.81,214.74Z"/><path d="M251.14,199.26a.76.76,0,1,1,.51-.94A.75.75,0,0,1,251.14,199.26Z"/><path d="M234.6,180.72a.76.76,0,1,1,.51-.94A.76.76,0,0,1,234.6,180.72Z"/><path d="M228.87,167.54a.76.76,0,0,1-.94-.51.76.76,0,0,1,.51-.94.76.76,0,0,1,.43,1.45Z"/><path d="M236,147.29a.76.76,0,1,1,.51-.94A.76.76,0,0,1,236,147.29Z"/><path d="M251.51,133.51a.76.76,0,1,1,.51-.94A.76.76,0,0,1,251.51,133.51Z"/><path d="M291.11,128.37a.76.76,0,1,1,.51-.94A.76.76,0,0,1,291.11,128.37Z"/><path d="M310.79,133.5a.76.76,0,1,1,.51-.95A.76.76,0,0,1,310.79,133.5Z"/><path d="M328.39,138.36a.76.76,0,1,1,.51-.94A.76.76,0,0,1,328.39,138.36Z"/><path d="M344.64,159.05a.76.76,0,1,1,.51-.94A.76.76,0,0,1,344.64,159.05Z"/><path d="M347.45,169.16a.76.76,0,1,1,.51-.94A.76.76,0,0,1,347.45,169.16Z"/><path d="M364.18,153.6a.76.76,0,1,1,.51-.94A.76.76,0,0,1,364.18,153.6Z"/><path d="M352.31,177.78a.76.76,0,1,1,.51-.94A.76.76,0,0,1,352.31,177.78Z"/><path d="M357,187.53a.76.76,0,1,1,.51-.94A.75.75,0,0,1,357,187.53Z"/><path d="M364.65,191.71a.76.76,0,1,1,.51-1A.77.77,0,0,1,364.65,191.71Z"/><path d="M372.8,189.91a.76.76,0,1,1,.51-.94A.76.76,0,0,1,372.8,189.91Z"/><path d="M373.47,181.6a.76.76,0,1,1,.51-.94A.76.76,0,0,1,373.47,181.6Z"/><path d="M370.14,169.27a.76.76,0,1,1,.51-.94A.76.76,0,0,1,370.14,169.27Z"/><path d="M364.18,153.6a.76.76,0,1,1,.51-.94A.76.76,0,0,1,364.18,153.6Z"/><path d="M353.71,129.54a.76.76,0,1,1,.51-.94A.76.76,0,0,1,353.71,129.54Z"/><path d="M353.71,129.54a.76.76,0,1,1,.51-.94A.76.76,0,0,1,353.71,129.54Z"/><path d="M372.33,145.31a.76.76,0,1,1,.51-.94A.75.75,0,0,1,372.33,145.31Z"/><path d="M377.78,156.81a.75.75,0,0,1-.94-.51.76.76,0,1,1,.94.51Z"/><path d="M383.94,169.81a.76.76,0,1,1,.51-.94A.76.76,0,0,1,383.94,169.81Z"/><path d="M396.62,173.78a.76.76,0,1,1,.51-.94A.76.76,0,0,1,396.62,173.78Z"/><path d="M401.86,169.74a.76.76,0,1,1,.51-.94A.76.76,0,0,1,401.86,169.74Z"/><path d="M400.72,152.86a.76.76,0,1,1,.51-.94A.76.76,0,0,1,400.72,152.86Z"/><path d="M385.75,128.45a.76.76,0,1,1,.51-.94A.76.76,0,0,1,385.75,128.45Z"/><path d="M364.82,101.17a.76.76,0,1,1,.51-.94A.76.76,0,0,1,364.82,101.17Z"/><path d="M346.34,90a.76.76,0,0,1-.94-.51.76.76,0,1,1,.94.51Z"/><path d="M327.59,85.28a.75.75,0,0,1-.94-.51.76.76,0,1,1,.94.51Z"/><path d="M309,82.49a.76.76,0,1,1,.51-.95A.76.76,0,0,1,309,82.49Z"/><path d="M277.57,79.68a.76.76,0,1,1,.51-.94A.76.76,0,0,1,277.57,79.68Z"/><path d="M248.37,78.39a.76.76,0,1,1,.51-.94A.76.76,0,0,1,248.37,78.39Z"/><path d="M216.72,76.87a.76.76,0,1,1,.51-.94A.76.76,0,0,1,216.72,76.87Z"/><path d="M185.86,75.13a.76.76,0,1,1,.51-.94A.76.76,0,0,1,185.86,75.13Z"/><path d="M157.18,68.37a.76.76,0,1,1,.51-.94A.76.76,0,0,1,157.18,68.37Z"/><path d="M126.1,52.37a.76.76,0,1,1-.44-1.45.76.76,0,0,1,.44,1.45Z"/><path d="M273.62,243.92a.76.76,0,1,1,.51-.94A.77.77,0,0,1,273.62,243.92Z"/><path d="M352.31,177.78a.76.76,0,1,1,.51-.94A.76.76,0,0,1,352.31,177.78Z"/><path d="M357,187.53a.76.76,0,1,1,.51-.94A.75.75,0,0,1,357,187.53Z"/><path d="M357,187.53a.76.76,0,1,1,.51-.94A.75.75,0,0,1,357,187.53Z"/><path d="M352.31,177.78a.76.76,0,1,1,.51-.94A.76.76,0,0,1,352.31,177.78Z"/><path d="M345.49,114.06a.76.76,0,1,1,.51-1A.76.76,0,0,1,345.49,114.06Z"/><path d="M327.59,85.28a.75.75,0,0,1-.94-.51.76.76,0,1,1,.94.51Z"/><path d="M311.87,101.21a.75.75,0,0,1-.94-.51.76.76,0,1,1,1.45-.43A.74.74,0,0,1,311.87,101.21Z"/><path d="M346.34,90a.76.76,0,0,1-.94-.51.76.76,0,1,1,.94.51Z"/><path d="M400.72,152.86a.76.76,0,1,1,.51-.94A.76.76,0,0,1,400.72,152.86Z"/><path d="M353.71,129.54a.76.76,0,1,1,.51-.94A.76.76,0,0,1,353.71,129.54Z"/><path d="M385.75,128.45a.76.76,0,1,1,.51-.94A.76.76,0,0,1,385.75,128.45Z"/><path d="M345.49,114.06a.76.76,0,1,1,.51-1A.76.76,0,0,1,345.49,114.06Z"/><path d="M364.82,101.17a.76.76,0,1,1,.51-.94A.76.76,0,0,1,364.82,101.17Z"/><path d="M396.62,173.78a.76.76,0,1,1,.51-.94A.76.76,0,0,1,396.62,173.78Z"/><path d="M372.33,145.31a.76.76,0,1,1,.51-.94A.75.75,0,0,1,372.33,145.31Z"/><path d="M401.86,169.74a.76.76,0,1,1,.51-.94A.76.76,0,0,1,401.86,169.74Z"/><path d="M385.75,128.45a.76.76,0,1,1,.51-.94A.76.76,0,0,1,385.75,128.45Z"/><path d="M396.62,173.78a.76.76,0,1,1,.51-.94A.76.76,0,0,1,396.62,173.78Z"/><path d="M400.72,152.86a.76.76,0,1,1,.51-.94A.76.76,0,0,1,400.72,152.86Z"/><path d="M383.94,169.81a.76.76,0,1,1,.51-.94A.76.76,0,0,1,383.94,169.81Z"/><path d="M385.75,128.45a.76.76,0,1,1,.51-.94A.76.76,0,0,1,385.75,128.45Z"/><path d="M372.33,145.31a.76.76,0,1,1,.51-.94A.75.75,0,0,1,372.33,145.31Z"/><path d="M364.82,101.17a.76.76,0,1,1,.51-.94A.76.76,0,0,1,364.82,101.17Z"/><path d="M353.71,129.54a.76.76,0,1,1,.51-.94A.76.76,0,0,1,353.71,129.54Z"/><path d="M346.34,90a.76.76,0,0,1-.94-.51.76.76,0,1,1,.94.51Z"/><path d="M345.49,114.06a.76.76,0,1,1,.51-1A.76.76,0,0,1,345.49,114.06Z"/><path d="M309,82.49a.76.76,0,1,1,.51-.95A.76.76,0,0,1,309,82.49Z"/><path d="M327.14,106.44a.76.76,0,1,1-.43-1.45.75.75,0,0,1,.94.51A.76.76,0,0,1,327.14,106.44Z"/><path d="M346.34,90a.76.76,0,0,1-.94-.51.76.76,0,1,1,.94.51Z"/><path d="M283.33,100.78a.76.76,0,1,1,.51-.94A.76.76,0,0,1,283.33,100.78Z"/><path d="M309,82.49a.76.76,0,1,1,.51-.95A.76.76,0,0,1,309,82.49Z"/><path d="M311.87,101.21a.75.75,0,0,1-.94-.51.76.76,0,1,1,1.45-.43A.74.74,0,0,1,311.87,101.21Z"/><path d="M364.18,153.6a.76.76,0,1,1,.51-.94A.76.76,0,0,1,364.18,153.6Z"/><path d="M372.8,189.91a.76.76,0,1,1,.51-.94A.76.76,0,0,1,372.8,189.91Z"/><path d="M344.64,159.05a.76.76,0,1,1,.51-.94A.76.76,0,0,1,344.64,159.05Z"/><path d="M364.65,191.71a.76.76,0,1,1,.51-1A.77.77,0,0,1,364.65,191.71Z"/><path d="M370.14,169.27a.76.76,0,1,1,.51-.94A.76.76,0,0,1,370.14,169.27Z"/><path d="M347.45,169.16a.76.76,0,1,1,.51-.94A.76.76,0,0,1,347.45,169.16Z"/><path d="M352.31,177.78a.76.76,0,1,1,.51-.94A.76.76,0,0,1,352.31,177.78Z"/><path d="M353.71,129.54a.76.76,0,1,1,.51-.94A.76.76,0,0,1,353.71,129.54Z"/><path d="M370.14,169.27a.76.76,0,1,1,.51-.94A.76.76,0,0,1,370.14,169.27Z"/><path d="M328.39,138.36a.76.76,0,1,1,.51-.94A.76.76,0,0,1,328.39,138.36Z"/><path d="M353.71,129.54a.76.76,0,1,1,.51-.94A.76.76,0,0,1,353.71,129.54Z"/><path d="M344.64,159.05a.76.76,0,1,1,.51-.94A.76.76,0,0,1,344.64,159.05Z"/><path d="M364.18,153.6a.76.76,0,1,1,.51-.94A.76.76,0,0,1,364.18,153.6Z"/><path d="M328.39,138.36a.76.76,0,1,1,.51-.94A.76.76,0,0,1,328.39,138.36Z"/><path d="M344.64,159.05a.76.76,0,1,1,.51-.94A.76.76,0,0,1,344.64,159.05Z"/><path d="M345.49,114.06a.76.76,0,1,1,.51-1A.76.76,0,0,1,345.49,114.06Z"/><path d="M310.79,133.5a.76.76,0,1,1,.51-.95A.76.76,0,0,1,310.79,133.5Z"/><path d="M327.14,106.44a.76.76,0,1,1-.43-1.45.75.75,0,0,1,.94.51A.76.76,0,0,1,327.14,106.44Z"/><path d="M251.51,133.51a.76.76,0,1,1,.51-.94A.76.76,0,0,1,251.51,133.51Z"/><path d="M311.87,101.21a.75.75,0,0,1-.94-.51.76.76,0,1,1,1.45-.43A.74.74,0,0,1,311.87,101.21Z"/><path d="M291.11,128.37a.76.76,0,1,1,.51-.94A.76.76,0,0,1,291.11,128.37Z"/><path d="M345.49,114.06a.76.76,0,1,1,.51-1A.76.76,0,0,1,345.49,114.06Z"/><path d="M328.39,138.36a.76.76,0,1,1,.51-.94A.76.76,0,0,1,328.39,138.36Z"/><path d="M327.14,106.44a.76.76,0,1,1-.43-1.45.75.75,0,0,1,.94.51A.76.76,0,0,1,327.14,106.44Z"/><path d="M353.71,129.54a.76.76,0,1,1,.51-.94A.76.76,0,0,1,353.71,129.54Z"/><path d="M345.49,114.06a.76.76,0,1,1,.51-1A.76.76,0,0,1,345.49,114.06Z"/><path d="M327.14,106.44a.76.76,0,1,1-.43-1.45.75.75,0,0,1,.94.51A.76.76,0,0,1,327.14,106.44Z"/><path d="M311.87,101.21a.75.75,0,0,1-.94-.51.76.76,0,1,1,1.45-.43A.74.74,0,0,1,311.87,101.21Z"/><path d="M328.39,138.36a.76.76,0,1,1,.51-.94A.76.76,0,0,1,328.39,138.36Z"/><path d="M277.57,79.68a.76.76,0,1,1,.51-.94A.76.76,0,0,1,277.57,79.68Z"/><path d="M311.87,101.21a.75.75,0,0,1-.94-.51.76.76,0,1,1,1.45-.43A.74.74,0,0,1,311.87,101.21Z"/><path d="M283.33,100.78a.76.76,0,1,1,.51-.94A.76.76,0,0,1,283.33,100.78Z"/><path d="M265.89,94.84a.76.76,0,1,1,.51-.94A.76.76,0,0,1,265.89,94.84Z"/><path d="M283.33,100.78a.76.76,0,1,1,.51-.94A.76.76,0,0,1,283.33,100.78Z"/><path d="M248.37,78.39a.76.76,0,1,1,.51-.94A.76.76,0,0,1,248.37,78.39Z"/><path d="M265.89,94.84a.76.76,0,1,1,.51-.94A.76.76,0,0,1,265.89,94.84Z"/><path d="M246.23,129.42a.75.75,0,0,1-.94-.51.76.76,0,1,1,.94.51Z"/><path d="M283.33,100.78a.76.76,0,1,1,.51-.94A.76.76,0,0,1,283.33,100.78Z"/><path d="M291.11,128.37a.76.76,0,1,1,.51-.94A.76.76,0,0,1,291.11,128.37Z"/><path d="M230.87,104.24a.76.76,0,1,1,.51-.94A.76.76,0,0,1,230.87,104.24Z"/><path d="M283.33,100.78a.76.76,0,1,1,.51-.94A.76.76,0,0,1,283.33,100.78Z"/><path d="M251.51,133.51a.76.76,0,1,1,.51-.94A.76.76,0,0,1,251.51,133.51Z"/><path d="M248.37,78.39a.76.76,0,1,1,.51-.94A.76.76,0,0,1,248.37,78.39Z"/><path d="M246.23,129.42a.75.75,0,0,1-.94-.51.76.76,0,1,1,.94.51Z"/><path d="M230.87,104.24a.76.76,0,1,1,.51-.94A.76.76,0,0,1,230.87,104.24Z"/><path d="M248.37,78.39a.76.76,0,1,1,.51-.94A.76.76,0,0,1,248.37,78.39Z"/><path d="M187.91,94.56a.76.76,0,1,1,.51-.94A.76.76,0,0,1,187.91,94.56Z"/><path d="M230.87,104.24a.76.76,0,1,1,.51-.94A.76.76,0,0,1,230.87,104.24Z"/><path d="M216.72,76.87a.76.76,0,1,1,.51-.94A.76.76,0,0,1,216.72,76.87Z"/><path d="M187.91,94.56a.76.76,0,1,1,.51-.94A.76.76,0,0,1,187.91,94.56Z"/><path d="M223,118.53a.76.76,0,1,1,.51-.94A.76.76,0,0,1,223,118.53Z"/><path d="M230.87,104.24a.76.76,0,1,1,.51-.94A.76.76,0,0,1,230.87,104.24Z"/><path d="M163.29,116.46a.75.75,0,0,1-.95-.51.76.76,0,1,1,.95.51Z"/><path d="M187.91,94.56a.76.76,0,1,1,.51-.94A.76.76,0,0,1,187.91,94.56Z"/><path d="M188,122.78a.76.76,0,1,1,.51-.94A.76.76,0,0,1,188,122.78Z"/><path d="M163.29,116.46a.75.75,0,0,1-.95-.51.76.76,0,1,1,.95.51Z"/><path d="M176.54,145.45a.76.76,0,1,1,.51-.94A.77.77,0,0,1,176.54,145.45Z"/><path d="M148.5,134.64a.76.76,0,1,1,.51-.94A.76.76,0,0,1,148.5,134.64Z"/><path d="M163.29,116.46a.75.75,0,0,1-.95-.51.76.76,0,1,1,.95.51Z"/><path d="M155.81,164.71a.76.76,0,1,1,.51-.94A.76.76,0,0,1,155.81,164.71Z"/><path d="M148.5,134.64a.76.76,0,1,1,.51-.94A.76.76,0,0,1,148.5,134.64Z"/><path d="M208.24,173.73a.76.76,0,1,1,.51-.94A.76.76,0,0,1,208.24,173.73Z"/><path d="M155.81,164.71a.76.76,0,1,1,.51-.94A.76.76,0,0,1,155.81,164.71Z"/><path d="M176.54,145.45a.76.76,0,1,1,.51-.94A.77.77,0,0,1,176.54,145.45Z"/><path d="M188,122.78a.76.76,0,1,1,.51-.94A.76.76,0,0,1,188,122.78Z"/><path d="M223,118.53a.76.76,0,1,1,.51-.94A.76.76,0,0,1,223,118.53Z"/><path d="M203.71,136.76a.76.76,0,1,1,.51-.94A.76.76,0,0,1,203.71,136.76Z"/><path d="M251.51,133.51a.76.76,0,1,1,.51-.94A.76.76,0,0,1,251.51,133.51Z"/><path d="M246.23,129.42a.75.75,0,0,1-.94-.51.76.76,0,1,1,.94.51Z"/><path d="M223,118.53a.76.76,0,1,1,.51-.94A.76.76,0,0,1,223,118.53Z"/><path d="M236,147.29a.76.76,0,1,1,.51-.94A.76.76,0,0,1,236,147.29Z"/><path d="M246.23,129.42a.75.75,0,0,1-.94-.51.76.76,0,1,1,.94.51Z"/><path d="M203.71,136.76a.76.76,0,1,1,.51-.94A.76.76,0,0,1,203.71,136.76Z"/><path d="M200.64,194.54a.76.76,0,1,1,.51-.94A.75.75,0,0,1,200.64,194.54Z"/><path d="M228.87,167.54a.76.76,0,0,1-.94-.51.76.76,0,0,1,.51-.94.76.76,0,0,1,.43,1.45Z"/><path d="M176.54,145.45a.76.76,0,1,1,.51-.94A.77.77,0,0,1,176.54,145.45Z"/><path d="M203.71,136.76a.76.76,0,1,1,.51-.94A.76.76,0,0,1,203.71,136.76Z"/><path d="M188,122.78a.76.76,0,1,1,.51-.94A.76.76,0,0,1,188,122.78Z"/><path d="M200.64,194.54a.76.76,0,1,1,.51-.94A.75.75,0,0,1,200.64,194.54Z"/><path d="M176.54,145.45a.76.76,0,1,1,.51-.94A.77.77,0,0,1,176.54,145.45Z"/><path d="M208.24,173.73a.76.76,0,1,1,.51-.94A.76.76,0,0,1,208.24,173.73Z"/><path d="M203.71,136.76a.76.76,0,1,1,.51-.94A.76.76,0,0,1,203.71,136.76Z"/><path d="M179,180.13a.76.76,0,1,1,.51-.94A.76.76,0,0,1,179,180.13Z"/><path d="M208.24,173.73a.76.76,0,1,1,.51-.94A.76.76,0,0,1,208.24,173.73Z"/><path d="M236,147.29a.76.76,0,1,1,.51-.94A.76.76,0,0,1,236,147.29Z"/><path d="M203.71,136.76a.76.76,0,1,1,.51-.94A.76.76,0,0,1,203.71,136.76Z"/><path d="M228.87,167.54a.76.76,0,0,1-.94-.51.76.76,0,0,1,.51-.94.76.76,0,0,1,.43,1.45Z"/><path d="M208.24,173.73a.76.76,0,1,1,.51-.94A.76.76,0,0,1,208.24,173.73Z"/><path d="M200.64,194.54a.76.76,0,1,1,.51-.94A.75.75,0,0,1,200.64,194.54Z"/><path d="M239.91,217a.76.76,0,1,1,.51-.94A.76.76,0,0,1,239.91,217Z"/><path d="M208.24,173.73a.76.76,0,1,1,.51-.94A.76.76,0,0,1,208.24,173.73Z"/><path d="M251.14,199.26a.76.76,0,1,1,.51-.94A.75.75,0,0,1,251.14,199.26Z"/><path d="M200.64,194.54a.76.76,0,1,1,.51-.94A.75.75,0,0,1,200.64,194.54Z"/><path d="M234.6,180.72a.76.76,0,1,1,.51-.94A.76.76,0,0,1,234.6,180.72Z"/><path d="M214.93,209.77a.76.76,0,1,1,.51-.94A.76.76,0,0,1,214.93,209.77Z"/><path d="M239.91,217a.76.76,0,1,1,.51-.94A.76.76,0,0,1,239.91,217Z"/><path d="M251.14,199.26a.76.76,0,1,1,.51-.94A.75.75,0,0,1,251.14,199.26Z"/><path d="M255.32,233.58a.76.76,0,1,1,.51-.94A.75.75,0,0,1,255.32,233.58Z"/><path d="M229.25,225.79a.76.76,0,1,1,.51-.94A.76.76,0,0,1,229.25,225.79Z"/><path d="M239.91,217a.76.76,0,1,1,.51-.94A.76.76,0,0,1,239.91,217Z"/><path d="M234.6,180.72a.76.76,0,1,1,.51-.94A.76.76,0,0,1,234.6,180.72Z"/><path d="M271.82,233.57a.76.76,0,1,1,.51-.94A.76.76,0,0,1,271.82,233.57Z"/><path d="M239.91,217a.76.76,0,1,1,.51-.94A.76.76,0,0,1,239.91,217Z"/><path d="M263.81,214.74a.76.76,0,0,1-.43-1.45.75.75,0,0,1,.94.51A.76.76,0,0,1,263.81,214.74Z"/><path d="M255.32,233.58a.76.76,0,1,1,.51-.94A.75.75,0,0,1,255.32,233.58Z"/><path d="M239.91,217a.76.76,0,1,1,.51-.94A.76.76,0,0,1,239.91,217Z"/><path d="M253.46,251.76a.76.76,0,1,1,.51-.94A.76.76,0,0,1,253.46,251.76Z"/><path d="M255.32,233.58a.76.76,0,1,1,.51-.94A.75.75,0,0,1,255.32,233.58Z"/><path d="M243.35,241.23a.76.76,0,1,1,.51-.94A.76.76,0,0,1,243.35,241.23Z"/><path d="M255.32,233.58a.76.76,0,1,1,.51-.94A.75.75,0,0,1,255.32,233.58Z"/><path d="M265.27,257.61a.76.76,0,1,1,.51-.94A.76.76,0,0,1,265.27,257.61Z"/><path d="M271.82,233.57a.76.76,0,1,1,.51-.94A.76.76,0,0,1,271.82,233.57Z"/><path d="M253.46,251.76a.76.76,0,1,1,.51-.94A.76.76,0,0,1,253.46,251.76Z"/><path d="M155.81,164.71a.76.76,0,1,1,.51-.94A.76.76,0,0,1,155.81,164.71Z"/><path d="M108.84,105.25a.76.76,0,1,1,.51-.94A.76.76,0,0,1,108.84,105.25Z"/><path d="M185.86,75.13a.76.76,0,1,1,.51-.94A.76.76,0,0,1,185.86,75.13Z"/><path d="M187.91,94.56a.76.76,0,1,1,.51-.94A.76.76,0,0,1,187.91,94.56Z"/><path d="M98.89,124.21a.76.76,0,0,1-.43-1.45.75.75,0,0,1,.94.51A.76.76,0,0,1,98.89,124.21Z"/><path d="M108.84,105.25a.76.76,0,1,1,.51-.94A.76.76,0,0,1,108.84,105.25Z"/><path d="M119,131.22a.76.76,0,0,1-.44-1.45.76.76,0,1,1,.44,1.45Z"/><path d="M163.29,116.46a.75.75,0,0,1-.95-.51.76.76,0,1,1,.95.51Z"/><path d="M108.84,105.25a.76.76,0,1,1,.51-.94A.76.76,0,0,1,108.84,105.25Z"/><path d="M119.58,93.09a.76.76,0,1,1,.51-.94A.76.76,0,0,1,119.58,93.09Z"/><path d="M148.5,134.64a.76.76,0,1,1,.51-.94A.76.76,0,0,1,148.5,134.64Z"/><path d="M131.71,69a.76.76,0,1,1,.51-.94A.76.76,0,0,1,131.71,69Z"/><path d="M163.29,116.46a.75.75,0,0,1-.95-.51.76.76,0,1,1,.95.51Z"/><path d="M157.18,68.37a.76.76,0,1,1,.51-.94A.76.76,0,0,1,157.18,68.37Z"/><path d="M119.58,93.09a.76.76,0,1,1,.51-.94A.76.76,0,0,1,119.58,93.09Z"/><path d="M131.71,69a.76.76,0,1,1,.51-.94A.76.76,0,0,1,131.71,69Z"/><path d="M187.91,94.56a.76.76,0,1,1,.51-.94A.76.76,0,0,1,187.91,94.56Z"/><path d="M157.18,68.37a.76.76,0,1,1,.51-.94A.76.76,0,0,1,157.18,68.37Z"/><path d="M131.71,69a.76.76,0,1,1,.51-.94A.76.76,0,0,1,131.71,69Z"/><path d="M374.62,96.62a.76.76,0,1,1,.51-.94A.76.76,0,0,1,374.62,96.62Z"/><path d="M390.64,122.61a.76.76,0,1,1-.43-1.45.75.75,0,0,1,.94.51A.76.76,0,0,1,390.64,122.61Z"/><path d="M364.82,101.17a.76.76,0,1,1,.51-.94A.76.76,0,0,1,364.82,101.17Z"/><path d="M388.76,103.13a.76.76,0,1,1,.51-.94A.76.76,0,0,1,388.76,103.13Z"/><path d="M379.31,119.58a.76.76,0,1,1,.51-.94A.76.76,0,0,1,379.31,119.58Z"/><path d="M374.62,96.62a.76.76,0,1,1,.51-.94A.76.76,0,0,1,374.62,96.62Z"/><path d="M364.82,101.17a.76.76,0,1,1,.51-.94A.76.76,0,0,1,364.82,101.17Z"/><path d="M399,119.55a.76.76,0,1,1,.51-.94A.75.75,0,0,1,399,119.55Z"/><path d="M388.76,103.13a.76.76,0,1,1,.51-.94A.76.76,0,0,1,388.76,103.13Z"/><path d="M390.64,122.61a.76.76,0,1,1-.43-1.45.75.75,0,0,1,.94.51A.76.76,0,0,1,390.64,122.61Z"/><path d="M400.65,109.37a.76.76,0,1,1,.51-.94A.76.76,0,0,1,400.65,109.37Z"/><path d="M379.31,119.58a.76.76,0,1,1,.51-.94A.76.76,0,0,1,379.31,119.58Z"/><path d="M390.64,122.61a.76.76,0,1,1-.43-1.45.75.75,0,0,1,.94.51A.76.76,0,0,1,390.64,122.61Z"/><path d="M399,119.55a.76.76,0,1,1,.51-.94A.75.75,0,0,1,399,119.55Z"/><path d="M400.65,109.37a.76.76,0,1,1,.51-.94A.76.76,0,0,1,400.65,109.37Z"/><path d="M388.76,103.13a.76.76,0,1,1,.51-.94A.76.76,0,0,1,388.76,103.13Z"/><path d="M374.62,96.62a.76.76,0,1,1,.51-.94A.76.76,0,0,1,374.62,96.62Z"/><path d="M346.34,90a.76.76,0,0,1-.94-.51.76.76,0,1,1,.94.51Z"/><path d="M185.86,75.13a.76.76,0,1,1,.51-.94A.76.76,0,0,1,185.86,75.13Z"/><path d="M163.29,116.46a.75.75,0,0,1-.95-.51.76.76,0,1,1,.95.51Z"/><path d="M83.51,56.82a.76.76,0,1,1,.51-.94A.77.77,0,0,1,83.51,56.82Z"/><path d="M76.37,102.79a.76.76,0,1,1,.51-.94A.75.75,0,0,1,76.37,102.79Z"/><path d="M74.32,88.44a.76.76,0,1,1,.51-.94A.76.76,0,0,1,74.32,88.44Z"/><path d="M57.14,84.48a.76.76,0,1,1,.51-.94A.75.75,0,0,1,57.14,84.48Z"/><path d="M76.37,102.79a.76.76,0,1,1,.51-.94A.75.75,0,0,1,76.37,102.79Z"/><path d="M95.31,95.23a.76.76,0,1,1,.51-.94A.76.76,0,0,1,95.31,95.23Z"/><path d="M98.89,124.21a.76.76,0,0,1-.43-1.45.75.75,0,0,1,.94.51A.76.76,0,0,1,98.89,124.21Z"/><path d="M76.37,102.79a.76.76,0,1,1,.51-.94A.75.75,0,0,1,76.37,102.79Z"/><path d="M42.28,108.57a.76.76,0,1,1,.51-.94A.76.76,0,0,1,42.28,108.57Z"/><path d="M54.06,103.66a.76.76,0,1,1,.51-.94A.76.76,0,0,1,54.06,103.66Z"/><path d="M64,114.55a.76.76,0,1,1,.51-.94A.76.76,0,0,1,64,114.55Z"/><path d="M42.28,108.57a.76.76,0,1,1,.51-.94A.76.76,0,0,1,42.28,108.57Z"/><path d="M62.16,34.52a.76.76,0,1,1,.51-.94A.76.76,0,0,1,62.16,34.52Z"/><path d="M68,52.77a.76.76,0,1,1,.51-.94A.75.75,0,0,1,68,52.77Z"/><path d="M83.51,56.82a.76.76,0,1,1,.51-.94A.77.77,0,0,1,83.51,56.82Z"/><path d="M95.44,35.42A.76.76,0,0,1,95,34a.75.75,0,0,1,.94.51A.76.76,0,0,1,95.44,35.42Z"/><path d="M90.71,24a.76.76,0,1,1,.51-.94A.76.76,0,0,1,90.71,24Z"/><path d="M126.1,52.37a.76.76,0,1,1-.44-1.45.76.76,0,0,1,.44,1.45Z"/><path d="M95.31,95.23a.76.76,0,1,1,.51-.94A.76.76,0,0,1,95.31,95.23Z"/><path d="M82.38,73.88a.76.76,0,1,1,.51-.94A.76.76,0,0,1,82.38,73.88Z"/><path d="M119.58,93.09a.76.76,0,1,1,.51-.94A.76.76,0,0,1,119.58,93.09Z"/><path d="M126.1,52.37a.76.76,0,1,1-.44-1.45.76.76,0,0,1,.44,1.45Z"/><path d="M95.31,95.23a.76.76,0,1,1,.51-.94A.76.76,0,0,1,95.31,95.23Z"/><path d="M50.66,50.05a.76.76,0,1,1,.51-.94A.76.76,0,0,1,50.66,50.05Z"/><path d="M59.49,73.88a.75.75,0,0,1-.94-.51.76.76,0,1,1,.94.51Z"/><path d="M26,41.41a.76.76,0,1,1,.51-.94A.76.76,0,0,1,26,41.41Z"/><path d="M68.45,27.5a.76.76,0,1,1,.51-.95A.76.76,0,0,1,68.45,27.5Z"/><path d="M92.27,43.88a.76.76,0,1,1,.51-.94A.76.76,0,0,1,92.27,43.88Z"/><path d="M69.92,7a.76.76,0,1,1,.51-.94A.76.76,0,0,1,69.92,7Z"/><path d="M41.59,79.86a.76.76,0,1,1,.51-.94A.75.75,0,0,1,41.59,79.86Z"/><path d="M50.57,91a.76.76,0,1,1,.51-.94A.76.76,0,0,1,50.57,91Z"/><path d="M33.77,83.71a.76.76,0,1,1,.51-.94A.75.75,0,0,1,33.77,83.71Z"/><path d="M45.61,26.41a.76.76,0,1,1,.51-.94A.76.76,0,0,1,45.61,26.41Z"/><path d="M54.32,41.75a.76.76,0,1,1,.51-.94A.76.76,0,0,1,54.32,41.75Z"/><path d="M50.8,29.9a.76.76,0,0,1-.43-1.45.75.75,0,0,1,.94.51A.76.76,0,0,1,50.8,29.9Z"/><path d="M66.07,75.43a.76.76,0,1,1,.51-.94A.76.76,0,0,1,66.07,75.43Z"/><path d="M70.43,69.53a.76.76,0,1,1,.51-.94A.76.76,0,0,1,70.43,69.53Z"/><path d="M64.13,60.05a.76.76,0,1,1,.51-.95A.77.77,0,0,1,64.13,60.05Z"/><path d="M258.07,251.37a.18.18,0,0,1-.1,0l-20-20.72a.09.09,0,0,1,0-.06h0v-.05l2.1-10.42-13.51-2.85h-.05a.13.13,0,0,1,0-.07L222,201.36l-34.76-20h0l-18.86-18.72h0L143.28,145a.11.11,0,0,1-.05-.14.12.12,0,0,1,.13-.08l19.74,2L146.54,96.48a.13.13,0,0,1,.06-.15.12.12,0,0,1,.16,0l25,32.22,29.78-14.14,14.15-25.08v0h0l0,0h0l0,0h0l26.5-3.07h0l56.47-.8h0L338,91.6a.07.07,0,0,1,.06,0l10.63,10.22,7-4.94h0l.06,0h0L374,99a.14.14,0,0,1,.1.07.11.11,0,0,1,0,.12c-1,1.74-2.17,3.72-3.31,5.7l11.11,6,13.64-3.6a.11.11,0,0,1,.12,0,.11.11,0,0,1,0,.13l-3.54,9.1a.12.12,0,0,1-.07.07.12.12,0,0,1-.1,0l-10.11-5.46-9.25,2.45,20,33.09h0l10,19.76a.15.15,0,0,1,0,.13.15.15,0,0,1-.12.05L390,165.2l2.18,6.45a.12.12,0,0,1-.07.15.12.12,0,0,1-.16-.06L388.53,165l-3.72-.45h0l-.05,0h0l0,0h0l-19.5-30.76-21.06-6.63,12.75,16.48h0l10.63,23.84h0l5.09,13.11a.14.14,0,0,1,0,.11.13.13,0,0,1-.09.06l-4.62.59,2.39,5.17a.13.13,0,0,1,0,.14.12.12,0,0,1-.14,0l-9.57-4.39c-.37-.07-2.47-2.28-31.39-48l-17.67-6.12-35.84-4.26-5,4.33a.17.17,0,0,1-.1,0,.18.18,0,0,1-.09-.06l-3.63-5.36-7.6-.9-31.81,24.48-.21,26.47L244,201.17l19,23.52v0h0l0,0,7.82,24.67v0h0v0h0v0h0s0,0,0,0h0l0,0h0l-12.69,1.8Zm1.61-8.19-1.46,7.91,12.16-1.72Zm-20.93-12.1,19.06,19.72-2.94-10.4Zm16.43,9.5L258,250.69l1.41-7.64Zm4.54,2.34,10.82,6.25L263,225.29Zm-4.63-2.68,4.4,2.55,3.29-17.85-11.28,2.6Zm-16.72-9.67,16.41,9.49-3.52-12.46Zm1.89-10.44-2.06,10.23,13-3-1.48-5.24Zm9.73,2,1.44,5.13,10.93-2.52Zm-.08-.27,12.28,2.59-13.79-7.94Zm-1.61-5.7,14.12,8.13-18.19-22.54Zm-8,3.68,9.32,2-1.55-5.48-6.33-3.64ZM226.79,217l13.27,2.79,1.46-7.24-6-3.47Zm0-12.91-.16,12.69,8.6-7.84Zm-4.5-2.59,4.1,14.69.15-12.25Zm19.49,10.93L248,216l-4-14.26Zm-6.12-3.53,5.9,3.4,2.16-10.75Zm-8.87-5.1,8.64,5,8.25-7.52-16.78-5.93Zm-4.59-2.65,4.35,2.51.1-8.43-6.77-2.39Zm-33.68-19.38L221.91,201l-2.3-8.24Zm38.38,13.29L243.66,201,227.2,173.36Zm-7.1-2.51,6.86,2.42.27-21.94-11.88,2.49Zm-32.06-11.32,31.77,11.22-4.7-16.88Zm173.3,1,8.89,4.08-2.28-4.93Zm3.35-7.91L360.82,182l6.74-.86Zm-34.85-39.94c15.28,24.17,29.18,45.83,30.94,47.56l0-.65c-.37-2.28-2.39-9.21-5.09-18L347,157.69a.22.22,0,0,1-.05-.08.12.12,0,0,1,0-.1l3.22-4.6-11.86-15.48Zm31.21,47.07v.07l3.5-7.5-3-6.42Zm3.78-7.43,3.27,7.09,4.54-.58-4.93-12.69ZM208.16,151.66l-20.58,29.39,27.18-5.68Zm-27.29,7.51L187.34,181l20.56-29.37Zm-12.19,3.41L187,180.81l-6.42-21.57Zm187.09,1c2.27,7.34,4.14,13.71,4.79,16.76l.52-13.19Zm-147.3-11.71L215,175.31l11.83-2.47ZM361.4,167.22l3,6.52,2.84-6.1Zm-144.53-18L227,172.33l.2-25.82Zm-8.44,2.22,18.21,20.79-10-22.94Zm180.4,13.62c.87,1.72,1.71,3.4,2.52,5l-1.65-4.88ZM361.31,167l5.93.43-10.11-22.68Zm-7.55-9.8L361,166.6,356.74,144l-4.93,7C352.46,153.07,353.12,155.12,353.76,157.16Zm1.89,6,5,3.35L354,157.86C354.55,159.67,355.11,161.46,355.65,163.2Zm34.23,1.74,12.36,1.47-9.76-19.31-4.84,11.18Zm-1.19-.15.92.11-2.12-6.28-.88,2C387.31,162.06,388,163.45,388.69,164.79Zm-3.68-.44,3.38.41-1.91-3.8Zm-3.12-12.46,3,12.18,1.47-3.4C384.9,157.83,383.4,154.87,381.89,151.89Zm-16.46-18.27,19.1,30.13-3.14-12.84c-7.73-15.28-15.63-30.83-17.15-33.61Zm-18.18,23.93,8.06,5.42c-.57-1.84-1.17-3.75-1.79-5.71l-3.17-4.14Zm-169.56-8.19-8.95,12.95L180.55,159ZM143.81,145,168.2,162.2l-5-15.22ZM170,147.66l-1.38,14.39,9-13-.2-.64Zm-6.53-.65,4.91,14.91,1.37-14.28Zm218.17,3.8,4.83,9.56.91-2.1-8.75-25.92-2-2.14Zm-203.76-1.72,2.92,9.84,26.74-7.5-29.25-2.94ZM379,132.78l8.49,25.15,4.8-11.1ZM350.5,152.91l2.8,3.65c-.54-1.72-1.1-3.48-1.67-5.26Zm-11.74-15.33,11.58,15.12,1.2-1.7c-1.07-3.35-2.18-6.77-3.27-10.13ZM203.83,126.31l4.47,24.91,8.22-2.16-10-23Zm-25.38,21.95,29.23,2.94-21.89-13.57Zm7.49-10.84L208,151.12l-4.45-24.79-10.56.84ZM348.57,141c1,3.05,2.06,6.37,3.15,9.77l4.9-7Zm16.07-23.41c2,3.63,9.14,17.75,16.49,32.27l-4.87-20Zm-157.87,8.52,10,22.91,10.3-2.71-16.56-20.5ZM177.6,148.17l.56.06,7.42-10.74L171.9,129Zm-7.58-.76,7.31.74-5.58-18.77Zm-6.65-.66,6.4.64,1.79-18.62L147,97.09ZM233,124l-5.5,22L258.77,122Zm145.84,8.21,12.92,13.67L372.9,114.61Zm-168-6.45,16.26,20.12-4.27-21.07Zm12.24-1,4.25,21L232.74,124Zm125.42,15.88,8,2.76-12.29-15.88C344.89,129.72,346.51,134.63,348.47,140.67Zm-10-3.45,9.69,3.35c-1.53-4.72-3.05-9.34-4.44-13.55l-12.71.45Zm-166.41-8.39,13.65,8.46,7-10.1Zm157.28,5.23,8.7,3-7.34-9.59-5.39.19C326.66,129.81,328,131.94,329.35,134.06Zm-17.12-5.93,16.74,5.8c-1.31-2.09-2.63-4.17-3.94-6.25Zm31.92-1.26L365,133.43l-8.34-12.81Zm12.75-6.36,8.25,12.67L364,117Zm19.58,9.21,1.95,2.06-5.21-15.43Zm-12.19-12.89,11.85,12.53-3.81-15.62Zm-163.07-2-28.87,13.7,20.53-1.62Zm65.93,8,3.43,5.07,4.76-4.09Zm54-1.39L312,127.89l12.91-.45Zm-45.19,2.19,34.69,4.13L283.74,117Zm28.57-19.45,7.09,23.54,7.23-9.93c-3.48-5.54-6.77-10.77-9.63-15.34ZM284,116.77l27.15,11L294,108.13ZM294.24,108l17,19.5-7-23.2Zm24.73,10-6.88,9.44,8.9-6.23Zm2.36,3.28q1.91,3,3.83,6.09l5.37-.19-6.16-8Zm3.25-2.28,6.25,8.17,12.68-.45-13-11.89Zm-123.06-4.2-8.32,12,10.34-.82ZM350.37,111l-6.31,15.69,12.47-6.23Zm-19.62,3.79,12.89,11.82-3.09-18.68Zm10-7,3.09,18.72,6.34-15.75-4.28-6.57ZM201.9,115.57l1.89,10.49,2.61-.2Zm.18-.23,4.58,10.5,3.66-.3Zm-.34-.81,8.88,11,12.13-1-7-34.79Zm14.19-24.91L223,124.54l9.8-.78L239,98.92ZM239.24,99l-6.18,24.72,25.93-2-8.69-18.21ZM267,122.6l8.63,1,7.88-6.78-5.71-2.3L265,119.64Zm-7.29-.87,7,.83-1.92-2.83Zm-9-18.11,8.58,18,4.17-3.82L255,105.37ZM263.54,118l-3.77,3.45,4.81-1.91Zm55.59-.13,2.06,3.28,3-2.12-3-4Zm31.36-7.19,6.27,9.64,7.1-3.55-11.41-11Zm-86.77,7.15,1.1,1.61,12.61-5-6.94-2.8Zm57.61-3,3.1,4,5.92-4.15L325,109.8Zm-11.9-12.42L319,117.62l2-2.79-10-13Zm-54,3.14,8.17,12.06,6.65-6.09Zm22.69,8.87,5.59,2.26,9.68-8.32Zm90.06-4.92c-2,3.45-3.56,6.3-3.9,7.09l7.93-3.06Zm-12-11.94,7.87,18.9c.44-1,2-3.83,3.9-7.14Zm26,13.56,9.75,5.26,3.4-8.74Zm-29.66-5.58,11.18,10.75-7.88-18.93Zm-41.26-3.81,9.88,12.9,3.64-5-10-9.2Zm13.85,7.87,5.42,5,9.94-7L337.93,92Zm-54.45,1.84,7.08,2.85L293.69,108l-13.19-5.5Zm97.6-2.16,4.16,4.16,9.09-2.4-10.89-5.88C369.84,106.55,369,108,368.29,109.27Zm-113.13-4.1,15.27,6.15,9.81-9L242.61,86.63Zm91-1.2,4.19,6.44,1.94-4.81-3.56-3.43Zm-31.08-3.64,9.91,9.09L337.66,92Zm41.49-2.8,11.56,11.55,2.33-4Zm-75.84,4.73,13.23,5.52,4.62-21.87Zm18.08-16.2-4.59,21.7,10-3.69Zm39.45,6.23,2.5,15.16,5.06-3.54ZM348.91,102l3.45,3.32,3.21-8Zm-98.43,1.25,4.27,1.72L243.1,87.8Zm106-6.06,14.07,7.59,3.23-5.54Zm-57.33-10.8L304.44,104l4.62-1.71C304.11,94.37,300.43,88.48,299.15,86.42Zm39.56,6.15L346,103.76l2.52-1.76Zm-99.41,6.2,10.84,4.37-7.83-16.42ZM300.24,87.7l9.06,14.49,1.59-.59Zm-57.37-1.23,37.58,15.69,18-16.47Zm56.85.14,11.41,14.9,3.45-1.27Zm-.57-.86,15.69,14.39,22.67-8.37Zm-82.89,3.74,22.8,9.19,3-12.18Z"/><path d="M143.35,145a.11.11,0,0,1-.1-.06l-15.84-24.16L83.62,103.71a.11.11,0,0,1-.08-.13.13.13,0,0,1,.11-.11l32.64-3.71-19.56-37a.11.11,0,0,1,0-.15.12.12,0,0,1,.15,0l43.81,29.63.78-1.66-36-42a.12.12,0,0,1,0-.17.14.14,0,0,1,.16,0l42.06,28.94,2.71-5.75a.12.12,0,0,1,.15-.07l25.24,7.9h0l.06,0c1.8,2.42,13.19,17.73,20.23,27.3l19.54-17.43a.12.12,0,0,1,.17,0,.11.11,0,0,1,0,.17L196.28,107c3,4.12,5.22,7.13,5.42,7.51a.12.12,0,0,1,0,.1.09.09,0,0,1,0,.07l-.11,0-15.35,1.27-14.45,12.89h0L143.41,145Zm-15.59-24.14,15.63,23.85,27.93-15.91Zm.68-.13,43.13,7.87,1-11.52Zm44.35-3.67-.95,11.38,14-12.46ZM153.34,98.84l-25.46,21.68,44.68-3.7.94-11.2C166,103.11,158.5,100.58,153.34,98.84Zm-69.16,4.82,43.05,16.78L116.42,100Zm32.5-3.69,10.81,20.42,10.76-22.87Zm30-3.38-18.32,23.17,24.68-21Zm-8.16.9-10.47,22.25L146.38,96.6Zm35.2,8.21-.93,11.1,13.3-1.1,4.81-4.29c-4-1.31-9.46-3.12-17-5.64Zm17.46,5.8-4.67,4.16,14.2-1.17C199.59,114.18,197,113.4,191.2,111.5Zm.21-.2c4.84,1.58,8.39,2.7,9.66,3l-7.37-5.07Zm2.48-2.21,7.26,5c-.71-1-2.58-3.6-5.05-7Zm-20.13-3.64c6.39,2.14,12.51,4.17,17.38,5.76l2.35-2.09-18.94-13Zm.81-9.65L193.68,109l2.27-2c-5.66-7.69-14.4-19.47-20-27Zm-21,2.85c6.15,2.08,13.2,4.46,20,6.72l.79-9.45-9.71-6.68ZM97.18,63.13l19.38,36.6,21.82-2.48,2.23-4.75ZM147,96.41l6.32,2.14,11.11-9.45-2.2-1.52Zm-6.14-3.77-2.15,4.58,7.64-.87Zm1-2.07,4.89,5.71L162,87.42l-14.12-9.71Zm-.87,1.84,5,3.41-4.28-5Zm23.87-3.33,9.53,6.55,1.33-15.8ZM106.33,49.15l35.29,41.21,6-12.79Zm56.09,38.29,2.17,1.49,10.08-8.59ZM148,77.48l14.25,9.81,13.3-7.72-24.87-7.78Z"/><path d="M357,144.41a.76.76,0,1,1,.51-.94A.76.76,0,0,1,357,144.41Z"/><path d="M367.66,168.26a.76.76,0,1,1,.51-.94A.76.76,0,0,1,367.66,168.26Z"/><path d="M372.75,181.37a.76.76,0,1,1,.51-.94A.76.76,0,0,1,372.75,181.37Z"/><path d="M360.83,182.9a.76.76,0,1,1,.51-.94A.76.76,0,0,1,360.83,182.9Z"/><path d="M367.66,168.26a.76.76,0,1,1,.51-.94A.76.76,0,0,1,367.66,168.26Z"/><path d="M361.42,167.81a.76.76,0,1,1,.51-.94A.76.76,0,0,1,361.42,167.81Z"/><path d="M347.29,158.31a.76.76,0,1,1,.51-.94A.76.76,0,0,1,347.29,158.31Z"/><path d="M357,144.41a.76.76,0,1,1,.51-.94A.76.76,0,0,1,357,144.41Z"/><path d="M311.77,128.76a.76.76,0,1,1,.51-.94A.76.76,0,0,1,311.77,128.76Z"/><path d="M356.06,97.74a.76.76,0,1,1,.51-.94A.76.76,0,0,1,356.06,97.74Z"/><path d="M372.63,114.29a.76.76,0,1,1,.51-.94A.76.76,0,0,1,372.63,114.29Z"/><path d="M395.78,108.17a.76.76,0,1,1,.51-.94A.75.75,0,0,1,395.78,108.17Z"/><path d="M392.24,117.27a.76.76,0,1,1,.51-.94A.76.76,0,0,1,392.24,117.27Z"/><path d="M356.06,97.74a.76.76,0,1,1,.51-.94A.76.76,0,0,1,356.06,97.74Z"/><path d="M374.2,99.89a.76.76,0,1,1,.51-.94A.76.76,0,0,1,374.2,99.89Z"/><path d="M364.29,117.51a.76.76,0,1,1,.51-.94A.76.76,0,0,1,364.29,117.51Z"/><path d="M392.24,172.41a.76.76,0,1,1,.51-.94A.75.75,0,0,1,392.24,172.41Z"/><path d="M372.63,114.29a.76.76,0,1,1,.51-.94A.76.76,0,0,1,372.63,114.29Z"/><path d="M385,165.18a.76.76,0,1,1,.51-.94A.76.76,0,0,1,385,165.18Z"/><path d="M392.68,147.53a.76.76,0,1,1,.51-.94A.76.76,0,0,1,392.68,147.53Z"/><path d="M402.67,167.29a.76.76,0,1,1,.51-.94A.76.76,0,0,1,402.67,167.29Z"/><path d="M385,165.18a.76.76,0,1,1,.51-.94A.76.76,0,0,1,385,165.18Z"/><path d="M365.52,134.38a.76.76,0,1,1,.51-.94A.76.76,0,0,1,365.52,134.38Z"/><path d="M344,127.62a.76.76,0,1,1,.51-.94A.76.76,0,0,1,344,127.62Z"/><path d="M356.06,97.74a.76.76,0,1,1,.51-.94A.76.76,0,0,1,356.06,97.74Z"/><path d="M364.29,117.51a.76.76,0,1,1,.51-.94A.76.76,0,0,1,364.29,117.51Z"/><path d="M372.63,114.29a.76.76,0,1,1,.51-.94A.76.76,0,0,1,372.63,114.29Z"/><path d="M392.68,147.53a.76.76,0,1,1,.51-.94A.76.76,0,0,1,392.68,147.53Z"/><path d="M364.29,117.51a.76.76,0,1,1,.51-.94A.76.76,0,0,1,364.29,117.51Z"/><path d="M365.52,134.38a.76.76,0,1,1,.51-.94A.76.76,0,0,1,365.52,134.38Z"/><path d="M338.22,92.45a.76.76,0,1,1,.51-.94A.76.76,0,0,1,338.22,92.45Z"/><path d="M364.29,117.51a.76.76,0,1,1,.51-.94A.76.76,0,0,1,364.29,117.51Z"/><path d="M344,127.62a.76.76,0,1,1,.51-.94A.76.76,0,0,1,344,127.62Z"/><path d="M357,144.41a.76.76,0,1,1,.51-.94A.76.76,0,0,1,357,144.41Z"/><path d="M361.42,167.81a.76.76,0,1,1,.51-.94A.76.76,0,0,1,361.42,167.81Z"/><path d="M370.42,187.3a.75.75,0,0,1-.94-.51.76.76,0,1,1,.94.51Z"/><path d="M360.83,182.9a.76.76,0,1,1,.51-.94A.76.76,0,0,1,360.83,182.9Z"/><path d="M361.42,167.81a.76.76,0,1,1,.51-.94A.76.76,0,0,1,361.42,167.81Z"/><path d="M299,86.28a.76.76,0,1,1,.51-.94A.76.76,0,0,1,299,86.28Z"/><path d="M360.83,182.9a.76.76,0,1,1,.51-.94A.76.76,0,0,1,360.83,182.9Z"/><path d="M344,127.62a.76.76,0,1,1,.51-.94A.76.76,0,0,1,344,127.62Z"/><path d="M311.77,128.76a.76.76,0,1,1,.51-.94A.76.76,0,0,1,311.77,128.76Z"/><path d="M338.22,92.45a.76.76,0,1,1,.51-.94A.76.76,0,0,1,338.22,92.45Z"/><path d="M344,127.62a.76.76,0,1,1,.51-.94A.76.76,0,0,1,344,127.62Z"/><path d="M299,86.28a.76.76,0,1,1,.51-.94A.76.76,0,0,1,299,86.28Z"/><path d="M338.22,92.45a.76.76,0,1,1,.51-.94A.76.76,0,0,1,338.22,92.45Z"/><path d="M294.24,108.68a.76.76,0,1,1,.51-.94A.76.76,0,0,1,294.24,108.68Z"/><path d="M311.77,128.76a.76.76,0,1,1,.51-.94A.76.76,0,0,1,311.77,128.76Z"/><path d="M299,86.28a.76.76,0,1,1,.51-.94A.76.76,0,0,1,299,86.28Z"/><path d="M294.24,108.68a.76.76,0,1,1,.51-.94A.76.76,0,0,1,294.24,108.68Z"/><path d="M270.77,128.85a.76.76,0,1,1,.51-.94A.76.76,0,0,1,270.77,128.85Z"/><path d="M242.48,87.08a.76.76,0,1,1,.51-.94A.75.75,0,0,1,242.48,87.08Z"/><path d="M294.24,108.68a.76.76,0,1,1,.51-.94A.76.76,0,0,1,294.24,108.68Z"/><path d="M259.4,122.52a.76.76,0,1,1,.51-.94A.76.76,0,0,1,259.4,122.52Z"/><path d="M299,86.28a.76.76,0,1,1,.51-.94A.76.76,0,0,1,299,86.28Z"/><path d="M242.48,87.08a.76.76,0,1,1,.51-.94A.75.75,0,0,1,242.48,87.08Z"/><path d="M216,90.15a.76.76,0,1,1,.51-.94A.75.75,0,0,1,216,90.15Z"/><path d="M311.77,128.76a.76.76,0,1,1,.51-.94A.76.76,0,0,1,311.77,128.76Z"/><path d="M259.4,122.52a.76.76,0,1,1,.51-.94A.76.76,0,0,1,259.4,122.52Z"/><path d="M242.48,87.08a.76.76,0,1,1,.51-.94A.75.75,0,0,1,242.48,87.08Z"/><path d="M227.5,147.08a.76.76,0,1,1,.51-.94A.75.75,0,0,1,227.5,147.08Z"/><path d="M216,90.15a.76.76,0,1,1,.51-.94A.75.75,0,0,1,216,90.15Z"/><path d="M201.81,115.27a.76.76,0,1,1,.51-1A.76.76,0,0,1,201.81,115.27Z"/><path d="M171.9,129.46a.76.76,0,1,1,.51-.94A.76.76,0,0,1,171.9,129.46Z"/><path d="M146.87,97.16a.75.75,0,0,1-.94-.51.76.76,0,0,1,1.45-.43A.74.74,0,0,1,146.87,97.16Z"/><path d="M168.66,163.25a.75.75,0,0,1-.94-.51.76.76,0,1,1,1.45-.43A.76.76,0,0,1,168.66,163.25Z"/><path d="M171.9,129.46a.76.76,0,1,1,.51-.94A.76.76,0,0,1,171.9,129.46Z"/><path d="M187.51,182A.76.76,0,1,1,188,181,.76.76,0,0,1,187.51,182Z"/><path d="M168.66,163.25a.75.75,0,0,1-.94-.51.76.76,0,1,1,1.45-.43A.76.76,0,0,1,168.66,163.25Z"/><path d="M143.57,145.59a.76.76,0,1,1,.51-.94A.75.75,0,0,1,143.57,145.59Z"/><path d="M208.42,152.1a.76.76,0,1,1,.51-.94A.76.76,0,0,1,208.42,152.1Z"/><path d="M168.66,163.25a.75.75,0,0,1-.94-.51.76.76,0,1,1,1.45-.43A.76.76,0,0,1,168.66,163.25Z"/><path d="M201.81,115.27a.76.76,0,1,1,.51-1A.76.76,0,0,1,201.81,115.27Z"/><path d="M208.42,152.1a.76.76,0,1,1,.51-.94A.76.76,0,0,1,208.42,152.1Z"/><path d="M171.9,129.46a.76.76,0,1,1,.51-.94A.76.76,0,0,1,171.9,129.46Z"/><path d="M259.4,122.52a.76.76,0,1,1,.51-.94A.76.76,0,0,1,259.4,122.52Z"/><path d="M227.5,147.08a.76.76,0,1,1,.51-.94A.75.75,0,0,1,227.5,147.08Z"/><path d="M201.81,115.27a.76.76,0,1,1,.51-1A.76.76,0,0,1,201.81,115.27Z"/><path d="M227.29,173.64a.76.76,0,1,1,.51-.94A.76.76,0,0,1,227.29,173.64Z"/><path d="M227.5,147.08a.76.76,0,1,1,.51-.94A.75.75,0,0,1,227.5,147.08Z"/><path d="M208.42,152.1a.76.76,0,1,1,.51-.94A.76.76,0,0,1,208.42,152.1Z"/><path d="M187.51,182A.76.76,0,1,1,188,181,.76.76,0,0,1,187.51,182Z"/><path d="M227.29,173.64a.76.76,0,1,1,.51-.94A.76.76,0,0,1,227.29,173.64Z"/><path d="M208.42,152.1a.76.76,0,1,1,.51-.94A.76.76,0,0,1,208.42,152.1Z"/><path d="M226.74,217.84a.76.76,0,1,1,.51-1A.76.76,0,0,1,226.74,217.84Z"/><path d="M227.29,173.64a.76.76,0,1,1,.51-.94A.76.76,0,0,1,227.29,173.64Z"/><path d="M244.16,202a.75.75,0,0,1-.94-.51.76.76,0,1,1,.94.51Z"/><path d="M226.74,217.84a.76.76,0,1,1,.51-1A.76.76,0,0,1,226.74,217.84Z"/><path d="M263.15,225.5a.76.76,0,1,1,.51-.94A.76.76,0,0,1,263.15,225.5Z"/><path d="M187.51,182A.76.76,0,1,1,188,181,.76.76,0,0,1,187.51,182Z"/><path d="M244.16,202a.75.75,0,0,1-.94-.51.76.76,0,1,1,.94.51Z"/><path d="M238.25,231.25a.76.76,0,0,1-.43-1.45.75.75,0,0,1,.94.51A.76.76,0,0,1,238.25,231.25Z"/><path d="M263.15,225.5a.76.76,0,1,1,.51-.94A.76.76,0,0,1,263.15,225.5Z"/><path d="M244.16,202a.75.75,0,0,1-.94-.51.76.76,0,1,1,.94.51Z"/><path d="M258.28,252a.76.76,0,1,1,.51-.94A.76.76,0,0,1,258.28,252Z"/><path d="M263.15,225.5a.76.76,0,1,1,.51-.94A.76.76,0,0,1,263.15,225.5Z"/><path d="M271,250.17a.76.76,0,1,1,.51-.94A.76.76,0,0,1,271,250.17Z"/><path d="M238.25,231.25a.76.76,0,0,1-.43-1.45.75.75,0,0,1,.94.51A.76.76,0,0,1,238.25,231.25Z"/><path d="M258.28,252a.76.76,0,1,1,.51-.94A.76.76,0,0,1,258.28,252Z"/><path d="M271,250.17a.76.76,0,1,1,.51-.94A.76.76,0,0,1,271,250.17Z"/><path d="M176,80.26a.76.76,0,1,1,.51-.94A.76.76,0,0,1,176,80.26Z"/><path d="M150.78,72.37a.76.76,0,1,1,.51-1A.77.77,0,0,1,150.78,72.37Z"/><path d="M127.72,121.4a.76.76,0,1,1,.51-.94A.76.76,0,0,1,127.72,121.4Z"/><path d="M97.06,63.47A.76.76,0,1,1,96.62,62a.75.75,0,0,1,.95.51A.76.76,0,0,1,97.06,63.47Z"/><path d="M146.87,97.16a.75.75,0,0,1-.94-.51.76.76,0,0,1,1.45-.43A.74.74,0,0,1,146.87,97.16Z"/><path d="M176,80.26a.76.76,0,1,1,.51-.94A.76.76,0,0,1,176,80.26Z"/><path d="M127.72,121.4a.76.76,0,1,1,.51-.94A.76.76,0,0,1,127.72,121.4Z"/><path d="M143.57,145.59a.76.76,0,1,1,.51-.94A.75.75,0,0,1,143.57,145.59Z"/><path d="M171.9,129.46a.76.76,0,1,1,.51-.94A.76.76,0,0,1,171.9,129.46Z"/><path d="M127.72,121.4a.76.76,0,1,1,.51-.94A.76.76,0,0,1,127.72,121.4Z"/><path d="M83.88,104.32a.76.76,0,1,1,.51-.94A.76.76,0,0,1,83.88,104.32Z"/><path d="M146.87,97.16a.75.75,0,0,1-.94-.51.76.76,0,0,1,1.45-.43A.74.74,0,0,1,146.87,97.16Z"/><path d="M127.72,121.4a.76.76,0,1,1,.51-.94A.76.76,0,0,1,127.72,121.4Z"/><path d="M201.81,115.27a.76.76,0,1,1,.51-1A.76.76,0,0,1,201.81,115.27Z"/><path d="M105.83,49.23a.76.76,0,1,1,.51-.94A.76.76,0,0,1,105.83,49.23Z"/><path d="M146.87,97.16a.75.75,0,0,1-.94-.51.76.76,0,0,1,1.45-.43A.74.74,0,0,1,146.87,97.16Z"/><path d="M201.81,115.27a.76.76,0,1,1,.51-1A.76.76,0,0,1,201.81,115.27Z"/><path d="M176,80.26a.76.76,0,1,1,.51-.94A.76.76,0,0,1,176,80.26Z"/><path d="M171.9,129.46a.76.76,0,1,1,.51-.94A.76.76,0,0,1,171.9,129.46Z"/><path d="M216,90.15a.76.76,0,1,1,.51-.94A.75.75,0,0,1,216,90.15Z"/><g class="cls-4"><polygon class="cls-3" points="365.31 133.66 298.03 85.77 353.49 128.81 365.31 133.66"/><polygon class="cls-3" points="390.43 121.88 355.85 97.02 379.21 119.02 390.43 121.88"/><polygon class="cls-3" points="202.99 186.78 243.13 240.5 200.42 193.81 202.99 186.78"/><polygon class="cls-3" points="53.81 103.08 118.81 130.49 42.07 107.85 53.81 103.08"/><polygon class="cls-3" points="119.03 131.22 200.42 193.81 155.6 164.27 119.03 131.22"/><polygon class="cls-3" points="246.22 128.93 270.56 128.12 251.29 132.78 246.22 128.93"/><polygon class="cls-3" points="381.59 152.43 372.11 144.59 383.73 168.74 381.59 152.43"/><polygon class="cls-3" points="356.75 186.81 347.24 168.44 364.38 190.78 356.75 186.81"/><polygon class="cls-3" points="290.89 127.65 288.37 118.69 328.02 137.6 290.89 127.65"/><polygon class="cls-3" points="251.29 132.78 295.53 121.58 290.89 127.65 251.29 132.78"/><polygon class="cls-3" points="347.24 168.44 344.45 158.13 356.75 186.81 347.24 168.44"/></g><path d="M275.7,241.61a.08.08,0,0,1-.07,0h0l0,0h0l-4.08-8.64a.11.11,0,0,1,0-.14l5.84-5.4-9.5-5.76h0l0,0h0l0-.05h0v-.05h0a.08.08,0,0,1,0,0h0l13-17.72h0l13.92-17.89h0L309,168.14h0l11.38-12.45h0l.05,0h.07a.05.05,0,0,1,0,0l16.31,11.39h0l15.57,10.61a.15.15,0,0,1,.05.14l-1.67,7.36,13.88,5.68h0a.12.12,0,0,1,.07.07h0v0l2.37,12.81,1.07-13.64a.14.14,0,0,1,.08-.1.13.13,0,0,1,.13,0l18.86,16.26h0l0,0h0v0l2,19.63v0h0a.14.14,0,0,1-.1.1h0l-32.64,5h0l-24.74,3.71h0L297,239.26h0l-21.29,2.35Zm10.42-8.92-10,8.63,20.53-2.27Zm-14.36.19,3.92,8.29,4.5-12.09-2.6-1.58Zm8.64-3.67L276,241.08l9.92-8.53ZM300.23,227l-3.07,12,33.91-4.34Zm-13.91,5.5,10.59,6.42L300,227l-5.59-1.39ZM338.16,227,332,234.52,355.8,231Zm-9.81-2.23,3.44,9.72,6.09-7.55ZM303.11,219l28.41,15.45-3.46-9.78Zm-2.82,7.79,30.54,7.57-28.5-15.5Zm-19.8,2.2,5.61,3.41,8-6.88-11.28-2.8Zm57.84-2.24,17.95,4.08-3.86-10.72-7.7-1.27Zm28.89-4.2-10.3,8.26,31.4-4.77Zm-14.52-2.4,3.83,10.62,7.89-8.68Zm12,2-7.07,7.77,9.25-7.41Zm-86.94,5.2,2.5,1.52,2.17-5.84Zm-9.34-5.67,9.12,5.54,4.89-4.53Zm26.2,3.72,5.42,1.34,2-7.7Zm33.62-.93,9.81,2.23,6.38-7.9-19.33-3.19Zm42.66-4.87L389,225.84,387,206.63Zm-3.43,2.75,20.21,3.34-17-5.9Zm-84.17.25,11,2.73,7.48-6.43Zm19.63-3.89,25,5.69-3.13-8.81Zm-33.39,2.8,13.05.94-.2-2Zm13.1-1.08.2,2L300.09,219Zm82.26,1.5,2.24.37,3.25-2.61-2.62-.91Zm-12.31-2,12,2,2.9-3.19L350,212.57Zm-71-7.21-13.23,8.67,14-1.15Zm-.84-8.55L268.43,221l13.17-8.64Zm1.08,8.39.76,7.66,19.26-1.59-14.19-9.89Zm63,6.1,7.42,1.23-2.6-7.2Zm23.06,0,2.67.93,16-12.83-10.11,2.49Zm-42.16-3.11,18.82,3.1,4.85-6Zm24.51-3,17.39,6,8.42-9.26Zm-36.05-21-11.77,27,19.9-8.47Zm8.23,18.76-19.31,8.22,21.56-3.08Zm-34.56-1.66,14.13,9.85-3.78-16.64Zm10.57-6.93L302.22,218,305,197.33Zm6.78-4.44-2.79,20.63L314,191.44Zm42,2.51-21.92,15.57,24.23-3Zm-20.53,8.69-1.66,6.77L346.39,200Zm-4.06,1.73,2,4.62-.4-5.31Zm1.86-.79.4,5.33,1.51-6.14ZM281,204l.81,8.19,5.64-3.7Zm86.1.84-16.53,7.28L376,209Zm-2.61-13.57-14.4,20.78L367,204.65Zm-17,8.22,2.29,12.54,14.38-20.76Zm-33.06-8.22,8.14,18.56,1.7-.72-1.18-15.66Zm8.92,2.24L324.56,209l2-.85,3.2-13Zm43.86,11.12,9.2,4.25,10.42-2.57-18.5-15.94Zm-86.2-.92,6.65,4.64,10.51-6.9-3.48-15.32ZM330,195.19l-3.15,12.86L347,199.47ZM295,186l3.47,15.29L305,197l1.08-8Zm55.74-.62-3.13,13.79,16.7-8.23ZM330.06,195l16.83,4.23L332,187.06Zm2-8.16,15.09,12.29-5.78-17.49-7.3-3Zm9.62-5.07,5.7,17.26,3.09-13.66Zm-35.32,7.39-1,7.71,8.64-5.67Zm17,4.16,6.44,1.62,2-8-7.59-6.18-1.63,1.73ZM314.5,191l8.62,2.17-.79-10.52Zm-8.11-2.18,7.7,2.07-5-22ZM317.2,175l-2.74,15.7,7.85-8.36-.26-3.39Zm-7.95-6.46,5,21.92L317,174.83ZM295,185.8l11.13,3,2.72-20.14Zm29.35-5.27,7.48,6.09,2-8.11-5.46-2.24Zm17.2.88,9,3.66,1.64-7.24L337,167.48Zm-19.25-2.23.22,2.93,1.46-1.56Zm11.81-.82,7.14,2.92-4.51-13.66Zm-11.84.48,1.88,1.53,3.95-4.21-6.22-2.54Zm-5-4.11,4.77,3.89-.38-5.11-3.9-1.6Zm11.3,1.34,5.34,2.19,2.61-10.66Zm-6.67-2.73L328.3,176l8.25-8.78-16-11.17Zm-12.1-4.69,7.24,5.9.48-2.73Zm8,3,3.84,1.57-1.24-16.45Zm-8.52-3.49,8.28,3.39,2.69-15.39Z"/><path d="M327.86,352.3h0L291,352.18h-.05l0-.05-6.41-8.83s0,0,0,0,0,0,0,0l-.76-22.43h0l-.61-32h0l-.31-26.87a0,0,0,0,1,0,0h0l0-.05,6-5.34h0a.11.11,0,0,1,.08,0l50.83-.76h0l29.3.29a.08.08,0,0,1,.07,0l5.35,3.53,0,0h0l4,7.79,0,0,.48,81.89h0s0,0,0,.05h0l0,0h0l-4.08,2.29h-.06l-46.81.66Zm1.1-6.37-1,6.12,44.86-.63Zm-37.54,6,35.83.12L307,343.2Zm16.41-8.64L327.76,352l.95-6.1Zm-18.76,0,2,8.55,15.47-8.67Zm-4.28,0,5.9,8.15-1.87-8.17Zm68.83-.28,21,8.33,3.92-2.2-3-5.69ZM329,345.69l44.71,5.58L352.91,343l-23.51.08Zm46.8-2.36,2.78,5.3L375,301.78Zm-66.86-.15,19.81,2.47.39-2.54Zm66-45.74,3.63,48.19-.44-76.19Zm-21.84,45.35,22.25.44-14.83-15.84Zm-65-2.39-3.26,2.68,3.87,0Zm.22-.18.65,2.84,17.65-.12-10-9.6Zm72.29-13.07L375.54,343,374.73,298ZM284,322.07l.71,20.88,3.43-2.83Zm38,11.06-14.58,9.8,21.78-.07,1.1-7.07Zm8.55,2.74-1.09,7,22.7-.07Zm-27.79-7.53L307,342.77l8.09-11.83-11.18-3.58Zm27.82,7.28,22.16,7.09L343.07,319,332,326.39Zm-33.68-2.44,9.85,9.46-4.2-14.12Zm46.4-14.38,9.66,23.8,7.42-15.41L348.94,315ZM315.37,331l-7.92,11.57L321.67,333ZM284,321.15l4.3,18.8,8.21-6.78ZM322.24,333l8.08,2.59,1.4-9Zm-38-11.89L296.7,333l5.76-4.75-.45-1.52Zm31.26,9.74,6.42,2.05,9.83-6.61,3.88-24.88Zm-11.35-3.63,11.1,3.55,20-29.22Zm-1.88-.34.38,1.25,1-.81Zm-.08-.29,1.68.54,31.3-25.85-36.37,13.92Zm46.94-11.68L360.48,327l14-29.16Zm-65,5.9,17.76,5.69-3.33-11.21Zm51.75-19.46-3.86,24.75L343,318.71ZM283.3,288.88l.6,31.71L298.52,315l-7.21-24.28Zm52.92,12.54,7,17.15,5.58-3.76Zm-44.63-10.64,7.16,24.13,36.68-14Zm44.53,10.16L349,314.67l25.39-17.07Zm21.69-23.49-21.64,23.23,38.42-3.35Zm-66.3,13.06,43.78,10.07-31.94-23.5L289.86,285ZM308,274.38l27.78,26.19,3.76-44.6Zm31.78-18.32L336,300.49l21.64-23.23Zm-36.16,20.88,30.68,22.58-26.53-25Zm54.39.33,16.73,19.81-.44-30.81-4.73-1.42Zm16.54-10.92.42,29.14,3.2-28.05Zm-91,22.32,7.72,1.77-1.59-5.35ZM283,262.75l.29,25.75,6.27-3.66Zm.09-.58,6.7,22.54,13.34-7.79ZM340,256l17.8,21.09,11.46-12.3Zm-57,5.86,20.31,14.94,4.18-2.44-18.73-17.66Zm6.07-5.21,18.65,17.58,31.4-18.33Zm85.39,9.46,3.51,1.05-3.6-7Zm-4.79-1.44,4.54,1.36-.09-6.14Zm-29.2-8.77,28.93,8.69,4.65-5-5.19-3.42Z"/><path d="M381.76,447.36a.12.12,0,0,1-.12-.1l-5.83-25.73-21.62,25.78h0l-.05,0H354l-18.57-11.76-48.81-.69a.13.13,0,0,1,0-.25l24.93-9-24.82,1.22a.12.12,0,0,1-.12-.06.14.14,0,0,1,0-.14l11.08-16-10.87-11.1s0,0,0,0h0s0,0,0-.06l1.38-16.16L286.31,380a.14.14,0,0,1,0-.14.13.13,0,0,1,.14,0l1.94.6,1.91-22.36-3.85-1.9a.12.12,0,0,1-.06-.13.13.13,0,0,1,.11-.11l4-.38.3-3.54a.12.12,0,0,1,.08-.1.15.15,0,0,1,.13,0l4,3.21,32.84-3.11h0l6.63,1.05h0L350,358.92l3.43-1.05-.1-5.36a.11.11,0,0,1,.06-.11.14.14,0,0,1,.14,0l5.34,3.8,15.76-4.81a.14.14,0,0,1,.11,0l3.56,2.78.33-5a.12.12,0,0,1,.09-.11.12.12,0,0,1,.14.06l3.72,6.56h0v0h0v40.26l-.7,51.17a.14.14,0,0,1-.12.13Zm-46.07-11.93L354,447l.4-30.9-2.83-.69Zm27-17.29-8.28,28.56,21.27-25.37Zm-8-2-.4,30.14,8.19-28.23ZM376,421.25l5.64,24.93.68-49.12Zm-88.68,13.4,47.55.68-22.52-9.76Zm25.25-9.25,22.79,9.87-.79-24-6.35-1.55Zm22.25-14.07.79,23.79,15.66-19.77Zm-37-.5L287,426.56l25.12-1.23Zm3.46-5L312.25,425l.5-19.08-9.81-2.4Zm17.46,1.55L312.66,425l15.28-15.32ZM298,410.62l13.76,14-10.61-18.59ZM313,406l-.49,18.66,6-17.31Zm50.46,9.4,12.31,5.68,1.82-24.49-10.69,7Zm-.73,2.52,11.92,2.92-11.26-5.19Zm15.13-21.57-1.76,23.56L382.34,396l-5.42-25.5.94,25.79h0Zm-23.23,19.59,7.86,1.92.67-2.32-8.47-3.91Zm-2.91-.71,2.66.65.06-4.08Zm3.1-3.81,8.41,3.88,3.34-11.54Zm-20-.33,16.62,4.07,2.91-3.67-19.78-8Zm-.14-7.82,19.64,7.93-7.7-17.58Zm30.61-12-10.4,19.84,11.78-7.68,3-10.31ZM328.43,409.5l6.14,1.5-.24-7.42Zm25.81-22,.44,23.46,10.39-19.81L355,386.85Zm-7.41,6,7.6,17.35L354,387.65Zm-59.53,6.24,10.54,10.75,3.19-4.6-1.85-3.24Zm31.58,7.48,9.27,2.27,6-6-13.6-1.1ZM313,405.72l5.62,1.38,1.68-4.83-7.19-.58Zm-9.91-2.43,9.66,2.37.11-4-8.19-.66Zm-3.59-.62,1.68,2.93,1.49-2.15Zm-.17-.3,3.5.86,1.55-2.24-6.12-.49Zm70.56-9.21-2.9,10,10.46-6.81Zm-49.24,8.89L334,403.13l-11-7.82Zm13.5-24,.41,25,11.95-9.66L341.11,381Zm-9,11.13,9.17,13.68L333.9,378l-4.22-1.78Zm-2.05,5.88L334,402.79,325,389.48Zm-34.64,4.63L299,402.29l-1-1.82Zm24.67,1.74,7.28.59,2.39-6.87-9.33-6.63Zm-8.28-.67,8,.65.34-12.71Zm-6.72-.54,6.43.52,8.59-12.38L298.89,384l-5.75,7.53Zm-11-.88,10.68.86-4.85-8.5Zm1.24-15.69L287.07,399l5.77-7.57ZM370,392.91l7.63,3.22-1-26.24Zm-56.44-4.64,9.35,6.65,2-5.7-5.38-8Zm63.35-19.15,5.46,25.73V356.4Zm-35.44,12,5.29,12.06,7.26-5.86,0-.91Zm24,9.85,4.33,1.83,6.54-22.56Zm-77-7.77,4.58,8,5.63-7.38-10-3.09Zm66.78,3.46,10,4.21,11.17-21.31ZM319.65,381l5.32,7.93,4.48-12.86-4.17-1.76Zm-20.6,2.75,14.15,4.37-2.44-19.72Zm12-15.16,2.4,19.41,5.91-7Zm43.19,17.94v.61l.49-.4Zm0-.27.72.31,21.49-17.37-22.59-2.69Zm-12.93-5.46L354,386.15l-.37-19.67L334,364.15Zm-52.64-.27,10.14,3.14,11.86-15.54-20.1-9.92Zm-2-.34,1.51,2.65.18-2.13Zm24.49-11.83,8.33,12.42,5.53-6.57Zm23,9.43,6.81,2.87-7-16Zm-4.38-1.85,4.13,1.74-.22-13Zm-4.32-1.83,4.09,1.73,3.92-11.24Zm-14.17-6L325.21,374l8.27-9.83Zm47.84-11.73,17.53,12.48,1.63-14.38-3.64-2.84Zm-5.28,9.86,21.89,2.6-22-8.27Zm-.11-5.94,22.16,8.33-17.07-12.16-5.14,1.57Zm24.78-5.71L377,368.28l5.34-12.41Zm-83.22.77,15.55,12.54,16.66-15.58Zm32.53-3-16.58,15.5,22.37-4ZM290.57,358l19.32,9.52-15-12.05-4.18.39Zm43.83,6,19.19,2.28-.11-5.74L350,359.18Zm.21-10.55-.68,10.43L349.61,359Zm-6.53-1.06,5.62,11.19.66-10.2Zm22.31,6.72,3.08,1.16,0-2.09ZM287,356.17l3.36,1.66.17-2Zm66.61-3.42.1,5.05,4.89-1.49Zm25,1.61,3.66,1.22-3.35-5.93Zm-87.49-2.06-.27,3.26,3.87-.37Z"/><path d="M312.84,447h-.06L286.6,434.88a.12.12,0,0,1-.06-.17.12.12,0,0,1,.16-.06l26,12-.47-21.25a.13.13,0,0,1,.12-.13h0a.13.13,0,0,1,.13.13l.47,21.44a.11.11,0,0,1-.06.11Z"/><path d="M286.65,434.89h0a.13.13,0,0,1-.13-.13l.07-8.06.19-27.25L286.3,380l.09-23.89a.13.13,0,0,1,0-.09l4.44-4a.12.12,0,1,1,.16.18l-4.39,4L286.55,380l.48,19.47-.26,35.31A.12.12,0,0,1,286.65,434.89Z"/><path d="M337,167.89a.76.76,0,1,1,.51-.94A.76.76,0,0,1,337,167.89Z"/><path d="M325.13,216.14a.76.76,0,1,1,.51-.94A.76.76,0,0,1,325.13,216.14Z"/><path d="M320.65,156.49a.76.76,0,1,1,.51-.94A.75.75,0,0,1,320.65,156.49Z"/><path d="M314.48,191.83a.76.76,0,1,1,.51-.94A.76.76,0,0,1,314.48,191.83Z"/><path d="M268.14,222.21a.75.75,0,0,1-.94-.51.76.76,0,1,1,.94.51Z"/><path d="M302.47,219.38a.76.76,0,1,1,.51-.94A.77.77,0,0,1,302.47,219.38Z"/><path d="M295,186.59a.76.76,0,1,1,.51-.94A.76.76,0,0,1,295,186.59Z"/><path d="M314.48,191.83a.76.76,0,1,1,.51-.94A.76.76,0,0,1,314.48,191.83Z"/><path d="M302.47,219.38a.76.76,0,1,1,.51-.94A.77.77,0,0,1,302.47,219.38Z"/><path d="M309.27,168.94a.76.76,0,1,1-.43-1.45.76.76,0,0,1,.43,1.45Z"/><path d="M314.48,191.83a.76.76,0,1,1,.51-.94A.76.76,0,0,1,314.48,191.83Z"/><path d="M337,167.89a.76.76,0,1,1,.51-.94A.76.76,0,0,1,337,167.89Z"/><path d="M347.62,200.17a.76.76,0,1,1,.51-.94A.75.75,0,0,1,347.62,200.17Z"/><path d="M325.13,216.14a.76.76,0,1,1,.51-.94A.76.76,0,0,1,325.13,216.14Z"/><path d="M314.48,191.83a.76.76,0,1,1,.51-.94A.76.76,0,0,1,314.48,191.83Z"/><path d="M347.62,200.17a.76.76,0,1,1,.51-.94A.75.75,0,0,1,347.62,200.17Z"/><path d="M309.27,168.94a.76.76,0,1,1-.43-1.45.76.76,0,0,1,.43,1.45Z"/><path d="M364.8,191.69a.76.76,0,1,1,.51-.94A.76.76,0,0,1,364.8,191.69Z"/><path d="M350,213.09a.76.76,0,1,1,.51-.94A.76.76,0,0,1,350,213.09Z"/><path d="M347.62,200.17a.76.76,0,1,1,.51-.94A.75.75,0,0,1,347.62,200.17Z"/><path d="M302.47,219.38a.76.76,0,1,1,.51-.94A.77.77,0,0,1,302.47,219.38Z"/><path d="M281.09,204.48a.75.75,0,0,1-.94-.5.76.76,0,1,1,1.45-.44A.75.75,0,0,1,281.09,204.48Z"/><path d="M283,223.28a.76.76,0,0,1-.94-.51.76.76,0,1,1,.94.51Z"/><path d="M332,235.42a.76.76,0,1,1,.51-.94A.76.76,0,0,1,332,235.42Z"/><path d="M356.7,231.71a.76.76,0,1,1,.51-.94A.76.76,0,0,1,356.7,231.71Z"/><path d="M389.33,226.75a.76.76,0,1,1,.51-.94A.76.76,0,0,1,389.33,226.75Z"/><path d="M350,213.09a.76.76,0,1,1,.51-.94A.76.76,0,0,1,350,213.09Z"/><path d="M376.66,209.76a.76.76,0,1,1-.43-1.45.75.75,0,0,1,.94.51A.76.76,0,0,1,376.66,209.76Z"/><path d="M356.7,231.71a.76.76,0,1,1,.51-.94A.76.76,0,0,1,356.7,231.71Z"/><path d="M387.36,207.12a.76.76,0,0,1-.94-.51.76.76,0,1,1,.94.51Z"/><path d="M389.33,226.75a.76.76,0,1,1,.51-.94A.76.76,0,0,1,389.33,226.75Z"/><path d="M325.13,216.14a.76.76,0,1,1,.51-.94A.76.76,0,0,1,325.13,216.14Z"/><path d="M332,235.42a.76.76,0,1,1,.51-.94A.76.76,0,0,1,332,235.42Z"/><path d="M350,213.09a.76.76,0,1,1,.51-.94A.76.76,0,0,1,350,213.09Z"/><path d="M356.7,231.71a.76.76,0,1,1,.51-.94A.76.76,0,0,1,356.7,231.71Z"/><path d="M302.47,219.38a.76.76,0,1,1,.51-.94A.77.77,0,0,1,302.47,219.38Z"/><path d="M332,235.42a.76.76,0,1,1,.51-.94A.76.76,0,0,1,332,235.42Z"/><path d="M297.2,239.86a.76.76,0,1,1,.51-.94A.76.76,0,0,1,297.2,239.86Z"/><path d="M302.47,219.38a.76.76,0,1,1,.51-.94A.77.77,0,0,1,302.47,219.38Z"/><path d="M275.91,242.21a.76.76,0,1,1,.51-.94A.76.76,0,0,1,275.91,242.21Z"/><path d="M283,223.28a.76.76,0,0,1-.94-.51.76.76,0,1,1,.94.51Z"/><path d="M271.82,233.57a.76.76,0,1,1,.51-.94A.76.76,0,0,1,271.82,233.57Z"/><path d="M275.91,242.21a.76.76,0,1,1,.51-.94A.76.76,0,0,1,275.91,242.21Z"/><path d="M297.2,239.86a.76.76,0,1,1,.51-.94A.76.76,0,0,1,297.2,239.86Z"/><path d="M268.14,222.21a.75.75,0,0,1-.94-.51.76.76,0,1,1,.94.51Z"/><path d="M283,223.28a.76.76,0,0,1-.94-.51.76.76,0,1,1,.94.51Z"/><path d="M302.47,219.38a.76.76,0,1,1,.51-.94A.77.77,0,0,1,302.47,219.38Z"/><path d="M325.13,216.14a.76.76,0,1,1,.51-.94A.76.76,0,0,1,325.13,216.14Z"/><path d="M350,213.09a.76.76,0,1,1,.51-.94A.76.76,0,0,1,350,213.09Z"/><path d="M367.35,205.45a.76.76,0,1,1,.51-.94A.76.76,0,0,1,367.35,205.45Z"/><path d="M376.66,209.76a.76.76,0,1,1-.43-1.45.75.75,0,0,1,.94.51A.76.76,0,0,1,376.66,209.76Z"/><path d="M387.36,207.12a.76.76,0,0,1-.94-.51.76.76,0,1,1,.94.51Z"/><path d="M368.49,190.86a.76.76,0,1,1,.51-.94A.76.76,0,0,1,368.49,190.86Z"/><path d="M367.35,205.45a.76.76,0,1,1,.51-.94A.76.76,0,0,1,367.35,205.45Z"/><path d="M364.8,191.69a.76.76,0,1,1,.51-.94A.76.76,0,0,1,364.8,191.69Z"/><path d="M347.62,200.17a.76.76,0,1,1,.51-.94A.75.75,0,0,1,347.62,200.17Z"/><path d="M352.53,178.5a.76.76,0,1,1,.51-.94A.76.76,0,0,1,352.53,178.5Z"/><path d="M337,167.89a.76.76,0,1,1,.51-.94A.76.76,0,0,1,337,167.89Z"/><path d="M320.65,156.49a.76.76,0,1,1,.51-.94A.75.75,0,0,1,320.65,156.49Z"/><path d="M320.65,156.49a.76.76,0,1,1,.51-.94A.75.75,0,0,1,320.65,156.49Z"/><path d="M309.27,168.94a.76.76,0,1,1-.43-1.45.76.76,0,0,1,.43,1.45Z"/><path d="M295,186.59a.76.76,0,1,1,.51-.94A.76.76,0,0,1,295,186.59Z"/><path d="M281.09,204.48a.75.75,0,0,1-.94-.5.76.76,0,1,1,1.45-.44A.75.75,0,0,1,281.09,204.48Z"/><path d="M268.14,222.21a.75.75,0,0,1-.94-.51.76.76,0,1,1,.94.51Z"/><path d="M307.2,343.79a.76.76,0,1,1,.51-1A.76.76,0,0,1,307.2,343.79Z"/><path d="M374.88,352.25c-.4.11-1.31-1.19-1.43-1.59s-.4.12,0,0,1.82.24,1.94.64A.77.77,0,0,1,374.88,352.25Z"/><path d="M353.15,343.63a.76.76,0,1,1,.51-.94A.75.75,0,0,1,353.15,343.63Z"/><path d="M375.06,298.16a.76.76,0,1,1,.51-.94A.76.76,0,0,1,375.06,298.16Z"/><path d="M307.2,343.79a.76.76,0,1,1,.51-1A.76.76,0,0,1,307.2,343.79Z"/><path d="M283.08,262.58a.76.76,0,1,1,.51-.95A.76.76,0,0,1,283.08,262.58Z"/><path d="M336.07,301.56a.76.76,0,1,1,.51-.94A.76.76,0,0,1,336.07,301.56Z"/><path d="M289,257.23a.76.76,0,1,1,.51-.94A.76.76,0,0,1,289,257.23Z"/><path d="M339.87,256.47a.76.76,0,1,1,.51-.94A.75.75,0,0,1,339.87,256.47Z"/><path d="M283.39,289.44a.76.76,0,1,1,.51-.94A.76.76,0,0,1,283.39,289.44Z"/><path d="M336.07,301.56a.76.76,0,1,1,.51-.94A.76.76,0,0,1,336.07,301.56Z"/><path d="M284,321.5a.76.76,0,1,1,.51-.94A.75.75,0,0,1,284,321.5Z"/><path d="M291.16,352.78a.76.76,0,1,1-.43-1.45.76.76,0,0,1,.43,1.45Z"/><path d="M307.2,343.79a.76.76,0,1,1,.51-1A.76.76,0,0,1,307.2,343.79Z"/><path d="M328.07,352.9a.76.76,0,1,1,.51-.94A.76.76,0,0,1,328.07,352.9Z"/><path d="M336.07,301.56a.76.76,0,1,1,.51-.94A.76.76,0,0,1,336.07,301.56Z"/><path d="M339.87,256.47a.76.76,0,1,1,.51-.94A.75.75,0,0,1,339.87,256.47Z"/><path d="M375.06,298.16a.76.76,0,1,1,.51-.94A.76.76,0,0,1,375.06,298.16Z"/><path d="M336.07,301.56a.76.76,0,1,1,.51-.94A.76.76,0,0,1,336.07,301.56Z"/><path d="M374.52,260.29a.76.76,0,1,1,.51-1A.76.76,0,0,1,374.52,260.29Z"/><path d="M369.17,256.76a.76.76,0,1,1,.51-.94A.76.76,0,0,1,369.17,256.76Z"/><path d="M339.87,256.47a.76.76,0,1,1,.51-.94A.75.75,0,0,1,339.87,256.47Z"/><path d="M378.49,268.07a.76.76,0,1,1,.51-.94A.75.75,0,0,1,378.49,268.07Z"/><path d="M379,350a.76.76,0,1,1,.51-.94A.75.75,0,0,1,379,350Z"/><path d="M375.06,298.16a.76.76,0,1,1,.51-.94A.76.76,0,0,1,375.06,298.16Z"/><path d="M374.52,260.29a.76.76,0,1,1,.51-1A.76.76,0,0,1,374.52,260.29Z"/><path d="M378.49,268.07a.76.76,0,1,1,.51-.94A.75.75,0,0,1,378.49,268.07Z"/><path d="M375.06,298.16a.76.76,0,1,1,.51-.94A.76.76,0,0,1,375.06,298.16Z"/><path d="M375.89,344.09a.76.76,0,1,1,.51-.94A.76.76,0,0,1,375.89,344.09Z"/><path d="M336.07,301.56a.76.76,0,1,1,.51-.94A.76.76,0,0,1,336.07,301.56Z"/><path d="M353.15,343.63a.76.76,0,1,1,.51-.94A.75.75,0,0,1,353.15,343.63Z"/><path d="M284,321.5a.76.76,0,1,1,.51-.94A.75.75,0,0,1,284,321.5Z"/><path d="M307.2,343.79a.76.76,0,1,1,.51-1A.76.76,0,0,1,307.2,343.79Z"/><path d="M336.07,301.56a.76.76,0,1,1,.51-.94A.76.76,0,0,1,336.07,301.56Z"/><path d="M284.76,343.94a.76.76,0,1,1,.51-.94A.76.76,0,0,1,284.76,343.94Z"/><path d="M307.2,343.79a.76.76,0,1,1,.51-1A.76.76,0,0,1,307.2,343.79Z"/><path d="M353.15,343.63a.76.76,0,1,1,.51-.94A.75.75,0,0,1,353.15,343.63Z"/><path d="M375.89,344.09a.76.76,0,1,1,.51-.94A.76.76,0,0,1,375.89,344.09Z"/><path d="M379,350a.76.76,0,1,1,.51-.94A.75.75,0,0,1,379,350Z"/><path d="M374.88,352.25c-.4.11-1.31-1.19-1.43-1.59s-.4.12,0,0,1.82.24,1.94.64A.77.77,0,0,1,374.88,352.25Z"/><path d="M328.07,352.9a.76.76,0,1,1,.51-.94A.76.76,0,0,1,328.07,352.9Z"/><path d="M291.16,352.78a.76.76,0,1,1-.43-1.45.76.76,0,0,1,.43,1.45Z"/><path d="M284.76,343.94a.76.76,0,1,1,.51-.94A.76.76,0,0,1,284.76,343.94Z"/><path d="M284,321.5a.76.76,0,1,1,.51-.94A.75.75,0,0,1,284,321.5Z"/><path d="M283.39,289.44a.76.76,0,1,1,.51-.94A.76.76,0,0,1,283.39,289.44Z"/><path d="M283.08,262.58a.76.76,0,1,1,.51-.95A.76.76,0,0,1,283.08,262.58Z"/><path d="M289,257.23a.76.76,0,1,1,.51-.94A.76.76,0,0,1,289,257.23Z"/><path d="M287.12,400.18a.76.76,0,1,1,.51-.94A.76.76,0,0,1,287.12,400.18Z"/><path d="M376.09,422a.76.76,0,1,1,.51-.94A.76.76,0,0,1,376.09,422Z"/><path d="M354.31,448a.76.76,0,1,1,.51-.94A.76.76,0,0,1,354.31,448Z"/><path d="M335.72,436.19a.76.76,0,1,1,.51-.95A.77.77,0,0,1,335.72,436.19Z"/><path d="M354.78,412.14a.76.76,0,1,1,.51-.94A.76.76,0,0,1,354.78,412.14Z"/><path d="M376.09,422a.76.76,0,1,1,.51-.94A.76.76,0,0,1,376.09,422Z"/><path d="M382,448a.76.76,0,1,1,.51-.94A.75.75,0,0,1,382,448Z"/><path d="M382.69,396.76a.76.76,0,1,1,.51-.94A.76.76,0,0,1,382.69,396.76Z"/><path d="M377.12,369.39c-.4.12.12.4,0,0s-.4.12,0,0-.12-.4,0,0S377.52,369.27,377.12,369.39Z"/><path d="M382.69,356.52a.76.76,0,1,1,.51-.94A.76.76,0,0,1,382.69,356.52Z"/><path d="M378.62,355.17a.76.76,0,1,1,.51-.94A.76.76,0,0,1,378.62,355.17Z"/><path d="M379,350a.76.76,0,1,1,.51-.94A.75.75,0,0,1,379,350Z"/><path d="M382.69,356.52a.76.76,0,1,1,.51-.94A.76.76,0,0,1,382.69,356.52Z"/><path d="M382.69,396.76a.76.76,0,1,1,.51-.94A.76.76,0,0,1,382.69,396.76Z"/><path d="M376.09,422a.76.76,0,1,1,.51-.94A.76.76,0,0,1,376.09,422Z"/><path d="M378,397.05a.76.76,0,1,1,.51-.94A.75.75,0,0,1,378,397.05Z"/><path d="M354.78,412.14a.76.76,0,1,1,.51-.94A.76.76,0,0,1,354.78,412.14Z"/><path d="M354.31,448a.76.76,0,1,1,.51-.94A.76.76,0,0,1,354.31,448Z"/><path d="M377.12,369.39c-.4.12.12.4,0,0s-.4.12,0,0-.12-.4,0,0S377.52,369.27,377.12,369.39Z"/><path d="M334.66,404a.75.75,0,0,1-.94-.51.76.76,0,1,1,.94.51Z"/><path d="M354.78,412.14a.76.76,0,1,1,.51-.94A.76.76,0,0,1,354.78,412.14Z"/><path d="M353.67,353.23a.76.76,0,1,1,.51-.94A.76.76,0,0,1,353.67,353.23Z"/><path d="M377.12,369.39c-.4.12.12.4,0,0s-.4.12,0,0-.12-.4,0,0S377.52,369.27,377.12,369.39Z"/><path d="M354.78,412.14a.76.76,0,1,1,.51-.94A.76.76,0,0,1,354.78,412.14Z"/><path d="M334,364.73a.76.76,0,1,1,.51-1A.76.76,0,0,1,334,364.73Z"/><path d="M377.12,369.39c-.4.12.12.4,0,0s-.4.12,0,0-.12-.4,0,0S377.52,369.27,377.12,369.39Z"/><path d="M334.71,354a.76.76,0,1,1,.51-.94A.76.76,0,0,1,334.71,354Z"/><path d="M334.71,354a.76.76,0,1,1,.51-.94A.76.76,0,0,1,334.71,354Z"/><path d="M334,364.73a.76.76,0,1,1,.51-1A.76.76,0,0,1,334,364.73Z"/><path d="M374.88,352.25c-.4.11-1.31-1.19-1.43-1.59s-.4.12,0,0,1.82.24,1.94.64A.77.77,0,0,1,374.88,352.25Z"/><path d="M378.62,355.17a.76.76,0,1,1,.51-.94A.76.76,0,0,1,378.62,355.17Z"/><path d="M377.12,369.39c-.4.12.12.4,0,0s-.4.12,0,0-.12-.4,0,0S377.52,369.27,377.12,369.39Z"/><path d="M378,397.05a.76.76,0,1,1,.51-.94A.75.75,0,0,1,378,397.05Z"/><path d="M311.06,368.81a.76.76,0,1,1,.51-.94A.76.76,0,0,1,311.06,368.81Z"/><path d="M287.12,400.18a.76.76,0,1,1,.51-.94A.76.76,0,0,1,287.12,400.18Z"/><path d="M291.16,352.78a.76.76,0,1,1-.43-1.45.76.76,0,0,1,.43,1.45Z"/><path d="M311.06,368.81a.76.76,0,1,1,.51-.94A.76.76,0,0,1,311.06,368.81Z"/><path d="M286.73,356.81a.76.76,0,1,1,.51-.94A.75.75,0,0,1,286.73,356.81Z"/><path d="M328.07,352.9a.76.76,0,1,1,.51-.94A.76.76,0,0,1,328.07,352.9Z"/><path d="M334,364.73a.76.76,0,1,1,.51-1A.76.76,0,0,1,334,364.73Z"/><path d="M311.06,368.81a.76.76,0,1,1,.51-.94A.76.76,0,0,1,311.06,368.81Z"/><path d="M328.07,352.9a.76.76,0,1,1,.51-.94A.76.76,0,0,1,328.07,352.9Z"/><path d="M334.71,354a.76.76,0,1,1,.51-.94A.76.76,0,0,1,334.71,354Z"/><path d="M334,364.73a.76.76,0,1,1,.51-1A.76.76,0,0,1,334,364.73Z"/><path d="M313.56,389a.76.76,0,1,1,.51-.94A.76.76,0,0,1,313.56,389Z"/><path d="M311.06,368.81a.76.76,0,1,1,.51-.94A.76.76,0,0,1,311.06,368.81Z"/><path d="M334.66,404a.75.75,0,0,1-.94-.51.76.76,0,1,1,.94.51Z"/><path d="M334,364.73a.76.76,0,1,1,.51-1A.76.76,0,0,1,334,364.73Z"/><path d="M312.58,426.16a.75.75,0,0,1-.94-.51.76.76,0,1,1,.94.51Z"/><path d="M286.64,380.7a.76.76,0,1,1,.51-.94A.76.76,0,0,1,286.64,380.7Z"/><path d="M313.56,389a.76.76,0,1,1,.51-.94A.76.76,0,0,1,313.56,389Z"/><path d="M334.66,404a.75.75,0,0,1-.94-.51.76.76,0,1,1,.94.51Z"/><path d="M287.12,400.18a.76.76,0,1,1,.51-.94A.76.76,0,0,1,287.12,400.18Z"/><path d="M312.58,426.16a.75.75,0,0,1-.94-.51.76.76,0,1,1,.94.51Z"/><path d="M313.56,389a.76.76,0,1,1,.51-.94A.76.76,0,0,1,313.56,389Z"/><path d="M286.93,427.42a.76.76,0,1,1,.51-.94A.76.76,0,0,1,286.93,427.42Z"/><path d="M312.58,426.16a.75.75,0,0,1-.94-.51.76.76,0,1,1,.94.51Z"/><path d="M286.86,435.49a.76.76,0,1,1,.51-.94A.76.76,0,0,1,286.86,435.49Z"/><path d="M335.72,436.19a.76.76,0,1,1,.51-.95A.77.77,0,0,1,335.72,436.19Z"/><path d="M312.58,426.16a.75.75,0,0,1-.94-.51.76.76,0,1,1,.94.51Z"/><path d="M334.66,404a.75.75,0,0,1-.94-.51.76.76,0,1,1,.94.51Z"/><path d="M335.72,436.19a.76.76,0,1,1,.51-.95A.77.77,0,0,1,335.72,436.19Z"/><path d="M286.86,435.49a.76.76,0,1,1,.51-.94A.76.76,0,0,1,286.86,435.49Z"/><path d="M313.05,447.61a.76.76,0,1,1,.51-.94A.76.76,0,0,1,313.05,447.61Z"/><path d="M312.58,426.16a.75.75,0,0,1-.94-.51.76.76,0,1,1,.94.51Z"/><path d="M286.86,435.49a.76.76,0,1,1,.51-.94A.76.76,0,0,1,286.86,435.49Z"/><path d="M286.93,427.42a.76.76,0,1,1,.51-.94A.76.76,0,0,1,286.93,427.42Z"/><path d="M287.12,400.18a.76.76,0,1,1,.51-.94A.76.76,0,0,1,287.12,400.18Z"/><path d="M286.64,380.7a.76.76,0,1,1,.51-.94A.76.76,0,0,1,286.64,380.7Z"/><path d="M286.73,356.81a.76.76,0,1,1,.51-.94A.75.75,0,0,1,286.73,356.81Z"/><path d="M291.16,352.78a.76.76,0,1,1-.43-1.45.76.76,0,0,1,.43,1.45Z"/><path d="M308.55,235.7h0l-32.7-1.9h0l-.06,0h0l0,0h0l0-.06h0v0l.76-13.7v0h0v0h0l12.29-18.06h0l14.53-20.2v0h0l15.92-10.86-2.62-6.53a.1.1,0,0,1,0-.12.12.12,0,0,1,.11-.05l11.6.54.07,0,17.66,13.32a0,0,0,0,1,0,0h0l16.48,24,17.94,2.5h0a.12.12,0,0,1,.09.1l2.58,13.93h0a.13.13,0,0,1,0,.06h0l-9.73,7.59a.14.14,0,0,1-.14,0l-14-6.86L342,231.27h0a.17.17,0,0,1-.1,0h0l-10.69-7.74-22.53,12.15h-.06Zm-31.82-2.1,31.21,1.81-12.52-6.11Zm33.88-7.81-1.88,9.54,22.19-12-2.35-1.7Zm-14.81,3.42,12.44,6.07-4.6-7.88Zm8.09-1.87,4.61,7.88,1.85-9.36Zm-27.17-7.17L276,233.45l12.38-7.6ZM288.63,226l-12.07,7.4,18.5-4.26Zm55.06-6.81-1.63,11.74,17-11.69-.52-.26Zm-12.3,4.22,10.31,7.48L339,219.29Zm7.84-4.16,2.64,11.26,1.57-11.32Zm-50.35,6.6,6.57,3.2,8.06-1.85-4.44-7.6Zm10.4-6.39,4.48,7.68,6.64-1.53,2.92-14.76Zm60.25-.26,13.83,6.76,9.38-7.32-22.87.32ZM277,220l11.65,5.69,10.33-6.34-2.51-4.31Zm36.62-9.22-2.91,14.73,17.63-4.06Zm15.31,10.79,2.27,1.65,7-3.79ZM314.23,211l14.39,10.44,10-2.31Zm-25.34-8.81-12,17.63,19.41-4.94ZM296.68,215l2.48,4.24,13.57-8.33Zm47.69-2.54-5,6.53,4.14-.06Zm-30-1.71L339,219l5.28-6.85Zm30.26,1.45-.93,6.73,14.29-.2Zm.73.08,13.18,6.44,1.23,0,4.67-3.21Zm19.43,3.27-4.57,3.15,21.49-.3Zm.3-.2,17.84,3-2.51-13.57ZM345.23,212l19.52,3.29L380,204.81Zm-56.06-9.85,7.38,12.62,16.52-4.2Zm25.47,8.36,29.74,1.37-2.12-6.17ZM345,205.23l-.28,6.62,35.11-7.27-17.26-2.4Zm-2.46.43,1.95,5.68.26-6.06Zm-14.79-14.22-13.94,19,28.4-4.94-3.66-10.69Zm-38.63,10.4,24.2,8.53L303.38,182Zm14.54-19.92,9.91,28.39,13.93-19Zm35.19,12.94,3.61,10.56,2.3-.4.36-8.22Zm6.51,2L345,205l17-3Zm0-.26,16.89,5.22-16.1-23.43Zm-6.63-2,6.38,2,.79-18.27-10.22,7.39ZM328,191.24l10.47,3.24-3-8.66Zm-24.27-9.56,23.77,9.39L319.37,171Zm24.79-16.28L327.8,191l7.57-5.47Zm-8.89,5.44,8,19.84.67-25.74Zm9-5.79,7,20.37,10.24-7.4ZM317,164.29l2.54,6.31,8.49-5.79Z"/><path d="M367.37,444l-.07,0L336.78,423l-2.88,20.07a.13.13,0,0,1-.1.11.17.17,0,0,1-.14-.06l-7.12-12.9-18,12.94a.11.11,0,0,1-.1,0,.16.16,0,0,1-.08-.06c-5.58-9.79-16.16-28.26-16.87-29.29a.12.12,0,0,1-.06-.07h0a.09.09,0,0,1,0-.07l6.75-34.85L295.42,343l-7.18-31.52v0l3.41-35.18a0,0,0,0,1,0,0h0v0l10-16.56h0a.12.12,0,0,1,.07-.05h.08l32.88,12.89,31.67-13.62a.14.14,0,0,1,.11,0,.1.1,0,0,1,.06.08l3.29,18.26v0l3.05,49.54s0,0,0,.05h0l0,.05h-.06l-23.49,7,17.17,6.28a.1.1,0,0,1,.06,0l7.05,10.31,0,0,3.67,18.74s0,0,0,0v0l-4.64,44.72h0l-5.11,29.71a.12.12,0,0,1-.08.09ZM337,422.88l30.29,20.73,5.05-29.32ZM291.87,414c.33.52,1,1.69,2.47,4.2s3.36,5.83,5.81,10.1c3.9,6.79,7.78,13.59,8.34,14.57L326.42,430,320.85,420l-6.67-1.28C297.5,415.46,293.07,414.43,291.87,414Zm34.87,16.08,7,12.59,2.82-19.62ZM321.17,420l5.45,9.87,9.76-7C335,422.63,328.63,421.45,321.17,420Zm-.16-.29c5.94,1.14,11.53,2.18,15.35,2.89L316,399.31l-4.7,2.81Zm38-26.22-22,29.1L372.29,414Zm-42.82,5.66,20.43,23.39,12.94-43.3Zm33.62-19.88L337,422.19l21.87-28.89Zm-58,34.45c1.69.65,16.06,3.48,28.91,5.93l-9.63-17.43Zm67.4-20.44,13.22,20.45L377,369.82Zm-60.84-14.08-6.63,34.28L310.94,402Zm.62.6,12.2,22.07,4.66-2.78Zm-.4-.84L316,399l33.3-19.87Zm51.41.08,9.07,14,17.73-23.43Zm-51.46-.33,50.84.13L313.15,356Zm23.8-36.64,27.48,36.7,23.42-28.05Zm51.07,8.84-23.21,27.79L377,369.31Zm-60.1,4.82,36,22.77L322,342.15Zm-7.91-4.71-6.78,27.11,14.35-22.32Zm-9.68-7.75,2.66,34.79,6.8-27.19Zm9.84,7.56,7.54,4.77,8.59-13.37ZM295.7,343l9.6,7.71,16.51-8.8L303.17,325Zm26.88-1.1,50.6,8.6-6.86-10-17.45-6.38Zm-34-30,7,30.77L303,324.87Zm37.76,7.24-4.14,22.66,26.29-7.83-7.08-2.59h0l0,0Zm-23.06,5.71,18.5,16.73-11-34.84Zm7.8-18.12L322,341.41l4.12-22.5ZM342,331.27l6.92,2.53,22.22-6.61Zm-4.75-37.82,4.34,37.63,31-4.34-26.45-37.66Zm-10.83,25.36,14.9,12.12L337,293.56l-6.57,3.24ZM346.29,289l26.29,37.43-3-48.92Zm-57.66,22.59,14.44,13.06,7.55-18.12Zm22.43-5.21,15.1,12.28,4-21.69Zm-19.2-29.66-3.35,34.64,22.11-5.09Zm13.05-1.37,6,30.69,23.54-33.2Zm29.55-2.13L311.21,306l19-9.35ZM292,276.42l18.59,29.28-5.92-30.36Zm42.67-2.91-4.2,23,6.48-3.2Zm.21-.38,2.31,20.05,8.74-4.31Zm.08-.31,11.19,15.94,23.12-11.4Zm.2-.22,34.38,4.54-3.22-17.94ZM301.7,260.1,292,276.17l12.61-1.08Zm.22-.14,2.95,15.11,29.27-2.49Z"/><path d="M308.77,236.3a.76.76,0,0,1-.43-1.45.75.75,0,0,1,.94.51A.76.76,0,0,1,308.77,236.3Z"/><path d="M339.29,219.83a.76.76,0,1,1,.51-.94A.76.76,0,0,1,339.29,219.83Z"/><path d="M383.32,219.22a.76.76,0,1,1,.51-.94A.75.75,0,0,1,383.32,219.22Z"/><path d="M373.59,226.81a.76.76,0,1,1,.51-.94A.76.76,0,0,1,373.59,226.81Z"/><path d="M344.77,212.73a.76.76,0,1,1,.51-.94A.76.76,0,0,1,344.77,212.73Z"/><path d="M342.12,231.9a.76.76,0,1,1,.51-.94A.76.76,0,0,1,342.12,231.9Z"/><path d="M380.74,205.28a.75.75,0,0,1-.94-.51.76.76,0,1,1,1.45-.43A.74.74,0,0,1,380.74,205.28Z"/><path d="M383.32,219.22a.76.76,0,1,1,.51-.94A.75.75,0,0,1,383.32,219.22Z"/><path d="M344.77,212.73a.76.76,0,1,1,.51-.94A.76.76,0,0,1,344.77,212.73Z"/><path d="M339.29,219.83a.76.76,0,1,1,.51-.94A.76.76,0,0,1,339.29,219.83Z"/><path d="M342.12,231.9a.76.76,0,1,1,.51-.94A.76.76,0,0,1,342.12,231.9Z"/><path d="M313.71,211.3a.76.76,0,1,1,.51-.94A.76.76,0,0,1,313.71,211.3Z"/><path d="M339.29,219.83a.76.76,0,1,1,.51-.94A.76.76,0,0,1,339.29,219.83Z"/><path d="M276.06,234.4a.76.76,0,1,1,.51-.94A.76.76,0,0,1,276.06,234.4Z"/><path d="M308.77,236.3a.76.76,0,0,1-.43-1.45.75.75,0,0,1,.94.51A.76.76,0,0,1,308.77,236.3Z"/><path d="M313.71,211.3a.76.76,0,1,1,.51-.94A.76.76,0,0,1,313.71,211.3Z"/><path d="M276.06,234.4a.76.76,0,1,1,.51-.94A.76.76,0,0,1,276.06,234.4Z"/><path d="M276.82,220.7a.76.76,0,1,1,.51-.94A.76.76,0,0,1,276.82,220.7Z"/><path d="M308.77,236.3a.76.76,0,0,1-.43-1.45.75.75,0,0,1,.94.51A.76.76,0,0,1,308.77,236.3Z"/><path d="M289.11,202.63a.76.76,0,1,1,.51-.94A.76.76,0,0,1,289.11,202.63Z"/><path d="M276.82,220.7a.76.76,0,1,1,.51-.94A.76.76,0,0,1,276.82,220.7Z"/><path d="M313.71,211.3a.76.76,0,1,1,.51-.94A.76.76,0,0,1,313.71,211.3Z"/><path d="M344.77,212.73a.76.76,0,1,1,.51-.94A.76.76,0,0,1,344.77,212.73Z"/><path d="M380.74,205.28a.75.75,0,0,1-.94-.51.76.76,0,1,1,1.45-.43A.74.74,0,0,1,380.74,205.28Z"/><path d="M362.76,202.78a.76.76,0,1,1,.51-.94A.76.76,0,0,1,362.76,202.78Z"/><path d="M346.24,178.75a.76.76,0,1,1,.51-.95A.76.76,0,0,1,346.24,178.75Z"/><path d="M344.77,212.73a.76.76,0,1,1,.51-.94A.76.76,0,0,1,344.77,212.73Z"/><path d="M328.58,165.43a.76.76,0,1,1-.44-1.45.75.75,0,0,1,.95.51A.76.76,0,0,1,328.58,165.43Z"/><path d="M346.24,178.75a.76.76,0,1,1,.51-.95A.76.76,0,0,1,346.24,178.75Z"/><path d="M327.89,192a.75.75,0,0,1-.94-.51.76.76,0,1,1,.94.51Z"/><path d="M362.76,202.78a.76.76,0,1,1,.51-.94A.76.76,0,0,1,362.76,202.78Z"/><path d="M313.71,211.3a.76.76,0,1,1,.51-.94A.76.76,0,0,1,313.71,211.3Z"/><path d="M289.11,202.63a.76.76,0,1,1,.51-.94A.76.76,0,0,1,289.11,202.63Z"/><path d="M303.63,182.43a.76.76,0,1,1,.51-.94A.76.76,0,0,1,303.63,182.43Z"/><path d="M327.89,192a.75.75,0,0,1-.94-.51.76.76,0,1,1,.94.51Z"/><path d="M313.71,211.3a.76.76,0,1,1,.51-.94A.76.76,0,0,1,313.71,211.3Z"/><path d="M303.63,182.43a.76.76,0,1,1,.51-.94A.76.76,0,0,1,303.63,182.43Z"/><path d="M328.58,165.43a.76.76,0,1,1-.44-1.45.75.75,0,0,1,.95.51A.76.76,0,0,1,328.58,165.43Z"/><path d="M327.89,192a.75.75,0,0,1-.94-.51.76.76,0,1,1,.94.51Z"/><path d="M317,164.89a.76.76,0,0,1-.94-.51.76.76,0,0,1,1.45-.44A.76.76,0,0,1,317,164.89Z"/><path d="M328.58,165.43a.76.76,0,1,1-.44-1.45.75.75,0,0,1,.95.51A.76.76,0,0,1,328.58,165.43Z"/><g class="cls-5"><polygon class="cls-3" points="389.12 226.02 275.7 241.49 387.14 206.39 389.12 226.02"/><polygon class="cls-3" points="378.27 267.35 375.68 343.37 374.3 259.56 378.27 267.35"/><polygon class="cls-3" points="374.52 260.29 374.73 351.72 378.75 349.23 374.52 260.29"/><polygon class="cls-3" points="375.68 343.37 378.75 349.23 284.48 343.12 375.68 343.37"/><polygon class="cls-3" points="374.73 351.72 376.4 343.15 291.28 351.98 374.73 351.72"/><polygon class="cls-3" points="382.47 355.8 374.73 351.72 375.68 343.37 382.47 355.8"/><polygon class="cls-3" points="378.54 348.5 381.72 447.25 382.47 355.8 378.54 348.5"/><polygon class="cls-3" points="375.68 343.37 375.88 421.25 382.47 355.8 375.68 343.37"/><polygon class="cls-3" points="290.98 352.27 374.73 351.72 284.84 343.15 290.98 352.27"/><polygon class="cls-3" points="271.61 232.85 267.8 221.45 387.14 206.39 271.61 232.85"/><polygon class="cls-3" points="275.56 241.65 282.74 222.56 373.38 226.09 275.56 241.65"/><polygon class="cls-3" points="316.86 163.98 267.92 221.49 320.43 155.77 316.86 163.98"/><polygon class="cls-3" points="296.99 239.14 344.55 212 386.89 206.5 296.99 239.14"/></g><path d="M298.5,379.59a.76.76,0,1,1,.51-.94A.76.76,0,0,1,298.5,379.59Z"/><path d="M334,443.82a.76.76,0,1,1,.51-.94A.76.76,0,0,1,334,443.82Z"/><path d="M336.9,423.55a.76.76,0,0,1-.43-1.45.76.76,0,1,1,.43,1.45Z"/><path d="M372.7,414.85a.76.76,0,1,1,.51-.94A.76.76,0,0,1,372.7,414.85Z"/><path d="M367.59,444.55a.76.76,0,1,1,.51-.94A.76.76,0,0,1,367.59,444.55Z"/><path d="M336.9,423.55a.76.76,0,0,1-.43-1.45.76.76,0,1,1,.43,1.45Z"/><path d="M308.67,443.82a.76.76,0,1,1,.51-.94A.76.76,0,0,1,308.67,443.82Z"/><path d="M291.75,414.48a.76.76,0,1,1,.51-.94A.76.76,0,0,1,291.75,414.48Z"/><path d="M336.9,423.55a.76.76,0,0,1-.43-1.45.76.76,0,1,1,.43,1.45Z"/><path d="M298.5,379.59a.76.76,0,1,1,.51-.94A.76.76,0,0,1,298.5,379.59Z"/><path d="M291.75,414.48a.76.76,0,1,1,.51-.94A.76.76,0,0,1,291.75,414.48Z"/><path d="M350,379.73a.76.76,0,1,1,.51-1A.76.76,0,0,1,350,379.73Z"/><path d="M336.9,423.55a.76.76,0,0,1-.43-1.45.76.76,0,1,1,.43,1.45Z"/><path d="M377.34,370.12a.76.76,0,1,1,.51-.94A.75.75,0,0,1,377.34,370.12Z"/><path d="M372.7,414.85a.76.76,0,1,1,.51-.94A.76.76,0,0,1,372.7,414.85Z"/><path d="M350,379.73a.76.76,0,1,1,.51-1A.76.76,0,0,1,350,379.73Z"/><path d="M377.34,370.12a.76.76,0,1,1,.51-.94A.75.75,0,0,1,377.34,370.12Z"/><path d="M373.66,351.38a.76.76,0,1,1,.51-.94A.76.76,0,0,1,373.66,351.38Z"/><path d="M350,379.73a.76.76,0,1,1,.51-1A.76.76,0,0,1,350,379.73Z"/><path d="M298.5,379.59a.76.76,0,1,1,.51-.94A.76.76,0,0,1,298.5,379.59Z"/><path d="M322.24,342.65a.76.76,0,1,1,.51-.94A.76.76,0,0,1,322.24,342.65Z"/><path d="M350,379.73a.76.76,0,1,1,.51-1A.76.76,0,0,1,350,379.73Z"/><path d="M305.5,351.58a.76.76,0,1,1,.51-.94A.76.76,0,0,1,305.5,351.58Z"/><path d="M298.5,379.59a.76.76,0,1,1,.51-.94A.76.76,0,0,1,298.5,379.59Z"/><path d="M295.76,343.75a.76.76,0,1,1,.51-.94A.76.76,0,0,1,295.76,343.75Z"/><path d="M305.5,351.58a.76.76,0,1,1,.51-.94A.76.76,0,0,1,305.5,351.58Z"/><path d="M322.24,342.65a.76.76,0,1,1,.51-.94A.76.76,0,0,1,322.24,342.65Z"/><path d="M373.66,351.38a.76.76,0,1,1,.51-.94A.76.76,0,0,1,373.66,351.38Z"/><path d="M366.62,341.07a.76.76,0,1,1,.51-.94A.76.76,0,0,1,366.62,341.07Z"/><path d="M341.66,331.94a.76.76,0,1,1,.51-.94A.76.76,0,0,1,341.66,331.94Z"/><path d="M373,327.56a.76.76,0,1,1,.51-.94A.77.77,0,0,1,373,327.56Z"/><path d="M322.24,342.65a.76.76,0,1,1,.51-.94A.76.76,0,0,1,322.24,342.65Z"/><path d="M288.58,312.22a.76.76,0,1,1,.51-.94A.76.76,0,0,1,288.58,312.22Z"/><path d="M295.76,343.75a.76.76,0,1,1,.51-.94A.76.76,0,0,1,295.76,343.75Z"/><path d="M311,307.05a.76.76,0,1,1-.43-1.45.75.75,0,0,1,.94.51A.76.76,0,0,1,311,307.05Z"/><path d="M322.24,342.65a.76.76,0,1,1,.51-.94A.76.76,0,0,1,322.24,342.65Z"/><path d="M334.9,273.39a.76.76,0,1,1,.51-.95A.76.76,0,0,1,334.9,273.39Z"/><path d="M341.66,331.94a.76.76,0,1,1,.51-.94A.76.76,0,0,1,341.66,331.94Z"/><path d="M311,307.05a.76.76,0,1,1-.43-1.45.75.75,0,0,1,.94.51A.76.76,0,0,1,311,307.05Z"/><path d="M369.9,278a.76.76,0,1,1,.51-.94A.76.76,0,0,1,369.9,278Z"/><path d="M373,327.56a.76.76,0,1,1,.51-.94A.77.77,0,0,1,373,327.56Z"/><path d="M334.9,273.39a.76.76,0,1,1,.51-.95A.76.76,0,0,1,334.9,273.39Z"/><path d="M366.62,259.75a.76.76,0,1,1,.51-.94A.76.76,0,0,1,366.62,259.75Z"/><path d="M369.9,278a.76.76,0,1,1,.51-.94A.76.76,0,0,1,369.9,278Z"/><path d="M334.9,273.39a.76.76,0,1,1,.51-.95A.76.76,0,0,1,334.9,273.39Z"/><path d="M311,307.05a.76.76,0,1,1-.43-1.45.75.75,0,0,1,.94.51A.76.76,0,0,1,311,307.05Z"/><path d="M288.58,312.22a.76.76,0,1,1,.51-.94A.76.76,0,0,1,288.58,312.22Z"/><path d="M292,277a.76.76,0,1,1,.51-.94A.76.76,0,0,1,292,277Z"/><path d="M311,307.05a.76.76,0,1,1-.43-1.45.75.75,0,0,1,.94.51A.76.76,0,0,1,311,307.05Z"/><path d="M302,260.48a.76.76,0,1,1,.51-.94A.76.76,0,0,1,302,260.48Z"/><path d="M334.9,273.39a.76.76,0,1,1,.51-.95A.76.76,0,0,1,334.9,273.39Z"/><path d="M292,277a.76.76,0,1,1,.51-.94A.76.76,0,0,1,292,277Z"/><path d="M302,260.48a.76.76,0,1,1,.51-.94A.76.76,0,0,1,302,260.48Z"/></g></g></svg>