<?xml version="1.0" encoding="UTF-8" standalone="no"?>
<!DOCTYPE svg PUBLIC "-//W3C//DTD SVG 1.1//EN" "http://www.w3.org/Graphics/SVG/1.1/DTD/svg11.dtd">
<svg width="100%" height="100%" viewBox="0 0 2075 1163" version="1.1" xmlns="http://www.w3.org/2000/svg" xmlns:xlink="http://www.w3.org/1999/xlink" xml:space="preserve" xmlns:serif="http://www.serif.com/" style="fill-rule:evenodd;clip-rule:evenodd;stroke-linejoin:round;stroke-miterlimit:1.41421;">
    <g transform="matrix(4.16667,0,0,4.16667,0,0)">
        <path d="M216.436,183.914L227.103,185.58C227.128,185.584 227.154,185.586 227.18,185.586C227.334,185.586 227.482,185.514 227.577,185.388C227.63,185.319 232.967,178.375 241.139,172.492C241.363,172.33 241.414,172.017 241.252,171.794C241.092,171.57 240.78,171.519 240.555,171.679C233.113,177.038 227.985,183.266 226.967,184.547L217.528,183.072C219.474,181.041 225.501,174.96 231.451,171.173C231.684,171.025 231.753,170.716 231.604,170.483C231.457,170.251 231.148,170.182 230.914,170.33C223.609,174.978 216.218,183.002 216.145,183.082C216.02,183.217 215.98,183.411 216.042,183.585C216.102,183.758 216.254,183.885 216.436,183.914Z" style="fill:rgb(34,30,31);fill-rule:nonzero;"/>
        <path d="M273.627,102.868L333.627,132.201C333.697,132.236 333.772,132.252 333.847,132.252C334.031,132.252 334.209,132.149 334.296,131.972C334.417,131.724 334.314,131.424 334.066,131.303L274.066,101.969C273.821,101.85 273.52,101.951 273.397,102.199C273.276,102.447 273.379,102.747 273.627,102.868Z" style="fill:rgb(34,30,31);fill-rule:nonzero;"/>
        <path d="M472.297,176.626L457.615,180.541L456.478,171.669L471.648,170.358L472.297,176.626ZM435.441,174.843C435.603,174.743 435.701,174.556 435.676,174.356C435.65,174.157 435.505,174 435.325,173.943L432.488,151.92L441.547,151.92L447.159,183.412C447.116,183.457 447.083,183.506 447.06,183.563L436.526,183.271L435.441,174.843ZM266.681,196.888C266.853,196.827 266.981,196.675 267.007,196.484L432.685,175.244L432.816,175.252C432.827,175.253 432.837,175.253 432.847,175.253C432.927,175.253 433,175.228 433.067,175.195L434.455,175.016L435.531,183.369C435.423,183.458 435.351,183.587 435.347,183.739C435.341,183.945 435.462,184.126 435.639,184.208L435.976,186.826L266.681,237.647L266.681,196.888ZM181.144,177.919C181.156,177.92 181.168,177.92 181.18,177.92C181.44,177.92 181.66,177.718 181.678,177.455L186.291,112.556C186.421,112.525 186.543,112.458 186.615,112.332L224.948,44.666C225.084,44.425 225,44.12 224.76,43.984C224.519,43.849 224.214,43.933 224.078,44.172L186.05,111.3C185.998,111.277 185.943,111.258 185.882,111.254C185.6,111.233 185.367,111.441 185.348,111.716L184.317,126.217L165.129,123.339L214.461,27.963L277.139,99.083C277.237,99.195 277.375,99.253 277.514,99.253C277.631,99.253 277.749,99.212 277.845,99.128C278.052,98.945 278.071,98.629 277.889,98.422L217.851,30.297L284.398,80.208C284.312,80.394 284.341,80.621 284.494,80.774L333.004,128.973L275.748,98.644C275.503,98.515 275.2,98.608 275.072,98.852C274.942,99.096 275.035,99.399 275.279,99.528L335.443,131.398L336.828,132.774C336.872,132.818 336.924,132.848 336.977,132.872L336.466,132.922C336.19,132.948 335.989,133.193 336.016,133.467C336.041,133.726 336.259,133.919 336.513,133.919C336.529,133.919 336.546,133.918 336.562,133.917L340.375,133.547L341.675,169.61L338.64,170.217L337.013,136.061C336.999,135.786 336.763,135.56 336.49,135.586C336.214,135.599 336.001,135.833 336.015,136.109L337.648,170.416L336.749,170.595C336.704,170.604 336.666,170.627 336.627,170.646L334.013,134.383C333.992,134.107 333.751,133.898 333.478,133.921C333.202,133.94 332.995,134.18 333.015,134.455L335.682,171.456C335.701,171.718 335.92,171.92 336.18,171.92C336.192,171.92 336.204,171.92 336.217,171.919C336.436,171.902 336.605,171.747 336.659,171.546C336.718,171.57 336.78,171.586 336.846,171.586C336.879,171.586 336.912,171.583 336.944,171.576L337.805,171.404C337.896,171.512 338.028,171.586 338.181,171.586C338.188,171.586 338.196,171.586 338.204,171.585C338.42,171.575 338.593,171.428 338.653,171.234L343.611,170.243C343.872,170.191 344.038,169.946 344.004,169.687L362.64,173.222L362.643,173.263L346.504,173.586C346.295,173.59 346.119,173.722 346.048,173.905L335.966,173.599C335.902,173.583 335.835,173.58 335.768,173.592L335.766,173.592L335.529,173.586C335.523,173.586 335.519,173.586 335.514,173.586C335.411,173.586 335.32,173.624 335.24,173.677L319.665,176.188L319.267,170.898L322.468,170.734C322.56,170.845 322.692,170.92 322.847,170.92C322.851,170.92 322.854,170.92 322.858,170.92C323.027,170.916 323.167,170.824 323.254,170.694L331.872,170.252C332.148,170.238 332.36,170.003 332.346,169.727C332.332,169.452 332.119,169.214 331.821,169.254L323.33,169.689L323.296,168.27L327.678,168.439L327.681,168.757C327.684,169.032 327.906,169.253 328.181,169.253C328.182,169.253 328.184,169.253 328.186,169.253C328.461,169.25 328.683,169.024 328.681,168.748L328.679,168.477L330.002,168.528L330.015,168.779C330.028,169.046 330.249,169.253 330.514,169.253C330.522,169.253 330.531,169.253 330.54,169.252C330.815,169.237 331.027,169.002 331.013,168.726L331.004,168.567L331.494,168.586C331.501,168.586 331.508,168.586 331.514,168.586C331.781,168.586 332.003,168.375 332.014,168.105C332.023,167.829 331.809,167.596 331.533,167.586L330.951,167.563L329.096,132.295L329.641,132.541C329.708,132.571 329.777,132.585 329.847,132.585C330.037,132.585 330.219,132.476 330.303,132.291C330.416,132.039 330.304,131.743 330.053,131.63L329.036,131.171L329.013,130.726C328.999,130.45 328.771,130.238 328.487,130.253C328.267,130.264 328.093,130.421 328.037,130.623C327.979,130.599 327.914,130.585 327.847,130.585C327.846,130.585 327.844,130.585 327.842,130.585C327.817,130.585 327.796,130.596 327.772,130.6L322.349,128.151L322.347,128.073C322.341,127.843 322.185,127.671 321.967,127.612C321.983,127.574 322.001,127.538 322.008,127.495C322.05,127.222 321.862,126.967 321.59,126.925L312.923,125.591C312.903,125.589 312.886,125.595 312.867,125.594C312.85,125.593 312.835,125.586 312.817,125.587C312.8,125.588 312.785,125.597 312.769,125.599C312.737,125.605 312.708,125.612 312.678,125.623C312.646,125.635 312.617,125.648 312.589,125.665C312.562,125.682 312.539,125.7 312.516,125.721C312.491,125.743 312.471,125.765 312.451,125.791C312.432,125.816 312.417,125.842 312.403,125.871C312.389,125.902 312.377,125.932 312.369,125.965C312.365,125.981 312.355,125.993 312.353,126.009C312.35,126.027 312.355,126.045 312.355,126.063C312.354,126.08 312.347,126.096 312.348,126.115L315.334,176.886L278.003,182.904L277.014,106.746C277.01,106.472 276.787,106.252 276.514,106.252C276.512,106.252 276.51,106.252 276.507,106.252C276.231,106.256 276.01,106.483 276.014,106.758L277.005,183.065L275.342,183.333L275.082,162.92L275.181,162.92C275.457,162.92 275.681,162.696 275.681,162.42C275.681,162.143 275.457,161.92 275.181,161.92L275.069,161.92L275.056,160.871C275.227,160.791 275.347,160.621 275.347,160.42C275.347,160.214 275.222,160.038 275.044,159.961L274.347,105.079C274.343,104.805 274.12,104.586 273.847,104.586C273.845,104.586 273.843,104.586 273.84,104.586C273.564,104.589 273.343,104.816 273.347,105.092L274.044,159.92L267.18,159.92C267.453,159.92 267.677,159.699 267.68,159.425L268.348,98.424C268.351,98.149 268.129,97.922 267.854,97.919C267.852,97.919 267.85,97.919 267.848,97.919C267.574,97.919 267.351,98.139 267.348,98.414L267.252,107.14C267.198,107.061 267.128,106.992 267.032,106.954L249.376,99.953L267.622,95.907C267.738,95.881 267.83,95.813 267.898,95.726L270.13,98.406C270.229,98.525 270.37,98.586 270.514,98.586C270.627,98.586 270.74,98.548 270.834,98.47C271.046,98.294 271.074,97.978 270.897,97.766L214.564,30.099C214.387,29.887 214.072,29.858 213.86,30.035C213.647,30.212 213.619,30.527 213.795,30.739L267.263,94.963L247.718,99.296L247.698,99.288C247.669,99.276 247.64,99.278 247.611,99.272C247.582,99.266 247.555,99.253 247.524,99.253C247.52,99.253 247.517,99.254 247.514,99.254C247.372,99.254 247.238,99.317 247.143,99.423L241.713,100.628C241.653,100.602 241.588,100.587 241.519,100.586C241.372,100.574 241.239,100.645 241.145,100.754L191.257,111.815C191.175,111.691 191.045,111.6 190.885,111.587C190.614,111.561 190.369,111.771 190.348,112.047L185.386,175.89C185.361,175.951 185.347,176.016 185.347,176.086C185.347,176.117 185.359,176.143 185.364,176.173L185.348,176.381C185.327,176.656 185.533,176.897 185.808,176.918C185.821,176.92 185.834,176.92 185.847,176.92C186.061,176.92 186.24,176.78 186.311,176.586L192.553,176.586C189.429,179.095 187.179,181.327 186.268,182.268C186.25,182.264 186.235,182.255 186.217,182.254L116.678,176.972L180.855,174.93L180.681,177.384C180.661,177.66 180.869,177.899 181.144,177.919ZM397.904,85.512L406.8,126.816L402.206,126.586C402.192,126.585 402.182,126.591 402.168,126.591L395.726,86.322L397.904,85.512ZM360.151,140.587C360.041,140.592 359.947,140.641 359.867,140.707L351.021,132.515L401.121,127.657L403.265,138.069L360.151,140.587ZM361.338,171.958L360.085,156.92L361.432,156.92L362.563,172.19L361.338,171.958ZM343.606,168.594C343.338,168.544 343.074,168.72 343.022,168.993C342.999,169.114 343.027,169.229 343.084,169.329L342.669,169.412L342.219,156.92L359.082,156.92L360.318,171.764L343.606,168.594ZM319.037,127.544C319.074,127.685 319.165,127.81 319.308,127.875L321.363,128.803L322.33,169.741L319.191,169.902L316.013,127.714C315.991,127.439 315.749,127.227 315.477,127.254C315.201,127.274 314.994,127.514 315.015,127.79L318.674,176.348L316.326,176.726L313.382,126.674L319.037,127.544ZM328.411,138.304L329.948,167.525L328.669,167.475L328.411,138.304ZM327.351,131.506L327.669,167.437L323.272,167.268L322.375,129.26L327.351,131.506ZM217.346,244.551C217.37,244.554 217.393,244.562 217.417,244.562C217.629,244.562 217.827,244.425 217.894,244.212C217.967,243.976 217.852,243.735 217.64,243.626L265.328,230.415L265.681,230.49L265.681,237.948L217.346,252.969L217.346,244.551ZM215.926,185.913C216.042,185.894 216.135,185.833 216.208,185.753L224.252,187.009L212.94,188.844C212.858,188.7 212.713,188.594 212.535,188.587C212.368,188.57 212.219,188.657 212.122,188.787L205.376,187.624L215.926,185.913ZM210.354,224.945C210.282,224.969 210.222,225.01 210.17,225.06L202.379,223.041L203.968,188.396L211.981,189.778L210.398,224.93L210.354,224.945ZM265.681,229.28L265.3,229.385L225.006,220.751C225.006,220.699 225.004,220.646 224.987,220.594C224.938,220.448 224.826,220.345 224.692,220.293L225.006,192.673L265.681,196.837L265.681,229.28ZM104.819,196.59L168.85,209.726L168.39,214.906C168.378,214.935 168.361,214.961 168.355,214.992C168.341,215.065 168.346,215.137 168.363,215.205L168.348,215.376C168.324,215.65 168.527,215.893 168.802,215.918C168.817,215.919 168.832,215.92 168.847,215.92C169.025,215.92 169.181,215.821 169.27,215.675L175.194,216.804C175.245,216.846 175.305,216.875 175.369,216.894C175.425,217.086 175.592,217.232 175.802,217.251C175.817,217.252 175.832,217.253 175.847,217.253C176.103,217.253 176.321,217.056 176.344,216.797L176.347,216.769L197.462,212.732C197.549,212.839 197.676,212.913 197.824,212.919C197.832,212.92 197.839,212.92 197.847,212.92C198.072,212.92 198.256,212.766 198.318,212.558C198.562,212.487 198.719,212.247 198.67,211.992C198.639,211.826 198.525,211.704 198.383,211.638L198.679,205.108C198.692,204.833 198.478,204.598 198.202,204.587C197.945,204.555 197.692,204.787 197.68,205.063L197.377,211.73L176.438,215.734L178.954,187.114L192.273,184.577C192.382,184.556 192.48,184.5 192.554,184.417C192.604,184.36 197.615,178.734 206.784,172.84C216.147,166.821 223.052,164.226 224.857,163.92L241.19,163.586C241.466,163.58 241.685,163.351 241.68,163.076C241.675,162.862 241.545,162.693 241.352,162.623L242.008,101.587L246.998,100.481L245.679,161.409C245.673,161.685 245.892,161.914 246.168,161.92C246.172,161.92 246.175,161.92 246.179,161.92C246.451,161.92 246.673,161.703 246.679,161.43L247.998,100.483L266.663,107.883C266.724,107.907 266.786,107.919 266.848,107.919C267.012,107.919 267.152,107.823 267.246,107.685L266.68,159.414C266.677,159.69 266.898,159.917 267.174,159.92L254.848,159.92C254.571,159.92 254.348,160.143 254.348,160.42C254.348,160.696 254.571,160.92 254.848,160.92L274.057,160.92L274.069,161.92L259.847,161.92C259.571,161.92 259.347,162.143 259.347,162.42C259.347,162.696 259.571,162.92 259.847,162.92L274.082,162.92L274.344,183.494L224.1,191.592C224.089,191.594 224.081,191.601 224.07,191.603C224.035,191.612 224.003,191.626 223.971,191.64C223.943,191.654 223.916,191.666 223.891,191.683C223.866,191.701 223.846,191.723 223.825,191.745C223.801,191.77 223.779,191.794 223.76,191.822C223.745,191.846 223.735,191.874 223.724,191.902C223.71,191.934 223.698,191.966 223.692,192.002C223.69,192.013 223.683,192.023 223.682,192.035C223.679,192.057 223.688,192.078 223.688,192.1C223.689,192.122 223.682,192.142 223.686,192.165C223.688,192.177 223.695,192.187 223.698,192.2C223.705,192.227 223.714,192.253 223.726,192.278C223.739,192.31 223.754,192.34 223.774,192.369C223.789,192.39 223.806,192.409 223.824,192.428C223.849,192.454 223.875,192.475 223.904,192.495C223.925,192.509 223.946,192.523 223.97,192.534C223.983,192.54 223.994,192.549 224.007,192.554L223.689,220.5L211.414,224.591L212.977,189.896C213.031,189.881 213.081,189.858 213.127,189.826L224.926,187.913C225.199,187.869 225.384,187.612 225.34,187.339C225.33,187.278 225.306,187.221 225.276,187.17L225.77,187.247C225.795,187.251 225.822,187.253 225.847,187.253C226.089,187.253 226.302,187.077 226.341,186.83C226.383,186.557 226.197,186.301 225.924,186.258L215.257,184.591C214.987,184.553 214.729,184.736 214.686,185.008C214.681,185.041 214.688,185.07 214.69,185.101L203.433,186.926C203.426,186.927 203.421,186.932 203.415,186.933C203.356,186.943 203.303,186.963 203.253,186.994C203.25,186.996 203.246,186.999 203.242,187.001C203.198,187.03 203.161,187.065 203.128,187.108C203.116,187.123 203.105,187.137 203.095,187.154C203.075,187.186 203.06,187.219 203.048,187.256C203.045,187.263 203.04,187.27 203.038,187.278C202.862,187.331 202.72,187.474 202.687,187.668C202.647,187.897 202.775,188.108 202.977,188.2L201.367,223.285C201.366,223.289 201.363,223.291 201.362,223.295C201.343,223.367 201.344,223.438 201.357,223.507L201.347,223.73C201.334,224.006 201.547,224.24 201.823,224.252C201.831,224.253 201.839,224.253 201.847,224.253C202.012,224.253 202.154,224.166 202.245,224.04L210.359,226.143C210.388,226.381 210.576,226.574 210.824,226.585C210.832,226.586 210.839,226.586 210.847,226.586C211.112,226.586 211.333,226.377 211.346,226.108L211.366,225.663L223.705,221.549C223.763,221.758 223.945,221.917 224.173,221.92C224.175,221.92 224.177,221.92 224.179,221.92C224.355,221.92 224.503,221.824 224.592,221.686L263.218,229.963L216.379,242.938C216.266,242.969 216.178,243.043 216.114,243.131L76.564,199.509L104.819,196.59ZM171.906,185.116C171.823,185.009 171.702,184.934 171.557,184.922C171.314,184.908 171.111,185.058 171.043,185.277C171.026,185.283 171.011,185.292 170.995,185.298C170.951,185.316 170.91,185.337 170.874,185.366C170.861,185.375 170.853,185.386 170.841,185.397C170.808,185.428 170.777,185.462 170.753,185.503C170.741,185.523 170.733,185.547 170.724,185.569C170.709,185.604 170.697,185.639 170.691,185.677C170.689,185.689 170.682,185.698 170.681,185.71C170.679,185.732 170.688,185.753 170.688,185.775C170.689,185.798 170.683,185.818 170.687,185.84C170.689,185.853 170.697,185.863 170.7,185.876C170.707,185.902 170.717,185.925 170.728,185.95C170.742,185.983 170.758,186.013 170.779,186.043C170.793,186.063 170.81,186.081 170.827,186.099C170.853,186.125 170.88,186.146 170.91,186.167C170.922,186.173 170.93,186.185 170.942,186.192L168.939,208.722L105.405,195.689L107.897,177.309L183.513,183.052L171.906,185.116ZM169.414,214.684L169.837,209.919C169.84,209.919 169.843,209.92 169.847,209.92C170.079,209.92 170.288,209.756 170.336,209.52C170.392,209.25 170.217,208.985 169.947,208.929L169.925,208.924L171.935,186.32L177.688,186.821C177.689,186.83 177.687,186.838 177.688,186.846C177.717,186.999 177.817,187.116 177.943,187.185L175.425,215.831L169.414,214.684ZM194.513,176.586C194.79,176.586 195.013,176.362 195.013,176.086C195.013,176.042 194.999,176.003 194.988,175.963C197.536,174.05 200.51,172.097 203.731,170.536C214.111,165.503 223.717,162.822 224.58,162.586L240.18,162.586C240.241,162.586 240.298,162.571 240.353,162.55L240.352,162.602L224.764,162.926C222.821,163.251 215.737,165.895 206.243,171.999C197.731,177.47 192.733,182.742 191.921,183.626L179.174,186.054C179.097,185.984 179.002,185.931 178.89,185.922L174.992,185.583L186.267,183.578C186.375,183.558 186.474,183.504 186.548,183.423C186.595,183.372 189.576,180.137 194.164,176.586L194.513,176.586ZM191.29,112.833L241.005,101.809L240.362,161.623C240.306,161.6 240.245,161.586 240.18,161.586L224.513,161.586C224.47,161.586 224.426,161.591 224.384,161.602C224.284,161.63 214.212,164.343 203.295,169.635C199.774,171.342 196.539,173.507 193.828,175.586L186.413,175.586L191.29,112.833ZM75.013,204.618L75.013,200.073L216.346,244.252L216.346,253.285C216.236,253.325 216.15,253.399 216.092,253.493L75.176,204.714C75.128,204.672 75.074,204.639 75.013,204.618ZM368.656,171.972C368.483,172.049 368.353,172.206 368.347,172.408C368.34,172.683 368.559,172.913 368.835,172.92L410.453,173.911C410.464,173.912 410.473,173.918 410.483,173.919L418.965,174.424L419.018,174.819C419.052,175.07 419.267,175.253 419.513,175.253C419.535,175.253 419.558,175.252 419.58,175.249C419.854,175.212 420.046,174.961 420.01,174.686L419.983,174.486L427.317,174.923L266.116,195.589C266.092,195.592 266.072,195.606 266.05,195.612C266.019,195.621 265.988,195.629 265.96,195.642C265.929,195.658 265.902,195.678 265.876,195.699C265.853,195.717 265.83,195.734 265.811,195.756C265.788,195.782 265.771,195.81 265.754,195.839L228.004,191.975L277.127,184.057C277.219,184.173 277.354,184.253 277.514,184.253C277.516,184.253 277.518,184.253 277.521,184.253C277.734,184.25 277.913,184.11 277.981,183.919L335.822,174.595L346.498,174.92C346.504,174.92 346.509,174.92 346.514,174.92C346.733,174.92 346.914,174.775 346.98,174.577L363.19,174.253L363.191,174.253C363.2,174.253 363.209,174.253 363.218,174.252C363.25,174.25 363.277,174.235 363.308,174.226C363.337,174.218 363.368,174.214 363.395,174.202C363.426,174.187 363.45,174.165 363.478,174.144C363.502,174.126 363.528,174.11 363.549,174.088C363.57,174.064 363.583,174.036 363.6,174.009C363.616,173.981 363.637,173.956 363.647,173.924C363.659,173.893 363.66,173.86 363.665,173.827C363.67,173.798 363.682,173.772 363.681,173.743C363.681,173.738 363.678,173.734 363.678,173.73C363.678,173.725 363.68,173.72 363.68,173.715L362.346,155.715C362.325,155.44 362.079,155.232 361.81,155.254C361.534,155.274 361.328,155.514 361.348,155.79L361.357,155.92L359.976,155.92C359.899,155.712 359.698,155.569 359.472,155.588C359.271,155.604 359.108,155.74 359.044,155.92L342.183,155.92L341.372,133.45L349.735,132.639C349.762,132.693 349.795,132.743 349.841,132.786L364.726,146.568C364.691,146.65 364.672,146.737 364.687,146.831L368.656,171.972ZM416.752,150.253L431.266,150.253L434.327,174.025L432.648,174.24L419.849,173.476L416.752,150.253ZM448.15,172.388L449.661,182.662L448.115,183.075L446.24,172.553L448.15,172.388ZM455.48,171.755L456.64,180.801L450.635,182.402L449.149,172.302L455.48,171.755ZM456.123,168.904L471.403,167.987L471.545,169.363L456.35,170.676L456.123,168.904ZM388.272,124.719L385.582,124.158L382.776,88.611L385.056,89.278C384.822,89.34 384.658,89.556 384.684,89.804L388.272,124.719ZM370.014,85.673L370.014,121.362L341.855,125.246L314.387,96.49L370.014,85.673ZM381.282,123.263C381.256,123.257 381.23,123.263 381.204,123.262C381.177,123.261 381.151,123.252 381.123,123.256L344.063,127.557L343.672,127.148L373.246,123.248C373.52,123.212 373.713,122.961 373.677,122.687C373.673,122.653 373.656,122.627 373.646,122.596C373.667,122.539 373.681,122.479 373.681,122.414L373.359,85.855L381.75,88.31L384.563,123.946L381.282,123.263ZM344.912,128.465L381.158,124.258L383.713,124.79L344.959,128.54C344.946,128.513 344.93,128.489 344.912,128.465ZM370.915,122.247C371.188,122.21 371.38,121.957 371.342,121.684C371.316,121.494 371.181,121.349 371.014,121.287L371.014,85.479L372.06,85.276C372.113,85.405 372.215,85.51 372.356,85.557L372.68,122.314L342.816,126.252L342.708,126.138L370.915,122.247ZM331.074,122.307C330.972,122.254 330.859,122.248 330.752,122.27L299.559,90.101C299.549,90.09 299.546,90.077 299.536,90.067L276.765,67.037L300.197,86.14C300.225,86.163 300.256,86.174 300.287,86.19C300.304,86.199 300.319,86.212 300.337,86.218C300.395,86.24 300.454,86.253 300.514,86.253C300.582,86.253 300.649,86.236 300.713,86.209C300.734,86.199 300.751,86.182 300.771,86.17C300.804,86.15 300.839,86.134 300.867,86.106L302.002,84.972L343.402,128.313C343.443,128.392 343.508,128.453 343.582,128.5L343.98,128.918L331.074,122.307ZM472.89,170.251C473.165,170.227 473.368,169.985 473.345,169.71C473.321,169.433 473.07,169.231 472.804,169.255L472.541,169.277L472.401,167.927L472.544,167.919C472.819,167.902 473.029,167.666 473.013,167.389C472.996,167.114 472.783,166.897 472.483,166.921L472.005,166.949C471.939,166.926 471.868,166.915 471.795,166.923C471.738,166.928 471.688,166.949 471.639,166.971L456.203,167.897L447.989,142.598C447.905,142.336 447.623,142.193 447.359,142.277C447.097,142.362 446.953,142.644 447.038,142.907L455.115,167.786C455.039,167.886 455,168.014 455.018,168.149L455.353,170.762L449.004,171.311L445.677,144.025C445.644,143.75 445.391,143.547 445.12,143.589C444.846,143.623 444.651,143.872 444.685,144.146L448.008,171.397L446.063,171.565L442.563,151.92L443.514,151.92C443.79,151.92 444.014,151.696 444.014,151.42C444.014,151.143 443.79,150.92 443.514,150.92L442.385,150.92L442.339,150.665C442.29,150.392 442.033,150.214 441.759,150.26C441.487,150.309 441.306,150.568 441.354,150.84L441.368,150.92L432.36,150.92L432.246,150.038C432.305,149.956 432.347,149.861 432.347,149.753C432.347,149.597 432.271,149.464 432.16,149.372L431.343,143.022C431.308,142.748 431.051,142.548 430.783,142.589C430.509,142.625 430.315,142.876 430.351,143.149L431.137,149.253L415.514,149.253C415.237,149.253 415.014,149.476 415.014,149.753C415.014,150.029 415.237,150.253 415.514,150.253L415.742,150.253L418.83,173.415L417.338,173.326L412.005,144.993C411.954,144.72 411.688,144.542 411.421,144.594C411.149,144.645 410.972,144.907 411.022,145.178L416.309,173.264L410.976,172.946C410.938,172.935 410.9,172.921 410.858,172.92L369.664,171.939L365.817,147.58L366.436,148.152C366.382,148.234 366.344,148.327 366.347,148.432C366.354,148.704 366.576,148.92 366.847,148.92C366.851,148.92 366.854,148.92 366.859,148.92L367.254,148.91L367.756,149.374L370.326,169.624C370.142,169.699 370.012,169.88 370.014,170.089C370.016,170.365 370.239,170.586 370.514,170.586C370.515,170.586 370.517,170.586 370.518,170.586L408.851,170.253C409.127,170.251 409.349,170.024 409.347,169.749C409.345,169.473 409.121,169.253 408.847,169.253C408.846,169.253 408.844,169.253 408.843,169.253L371.328,169.579L368.7,148.874L369.396,148.856L371.625,167.641C371.458,167.725 371.343,167.895 371.347,168.094C371.352,168.368 371.574,168.586 371.847,168.586C371.85,168.586 371.853,168.586 371.855,168.586L372.151,168.581C372.161,168.581 372.17,168.586 372.18,168.586C372.199,168.586 372.22,168.585 372.239,168.582C372.243,168.582 372.245,168.579 372.249,168.579L408.02,167.934L408.014,168.064C408.002,168.34 408.217,168.573 408.492,168.586C408.5,168.586 408.507,168.586 408.514,168.586C408.78,168.586 409.002,168.376 409.014,168.107L409.023,167.882C409.215,167.809 409.351,167.628 409.347,167.411C409.344,167.218 409.223,167.052 409.063,166.972L410.014,144.774C410.025,144.498 409.811,144.265 409.535,144.253C409.208,144.238 409.025,144.456 409.014,144.731L408.063,166.933L372.623,167.572L370.398,148.831L406.859,147.92C407.135,147.913 407.354,147.683 407.347,147.407C407.34,147.135 407.117,146.92 406.847,146.92C406.843,146.92 406.839,146.92 406.834,146.92L367.636,147.899L367.277,147.567L406.189,146.92C406.465,146.915 406.686,146.687 406.681,146.411C406.676,146.135 406.439,145.926 406.172,145.92L366.216,146.585L364.397,144.901L401.864,143.586C402.141,143.576 402.356,143.344 402.347,143.068C402.336,142.793 402.103,142.572 401.829,142.586L363.829,143.92C363.698,143.924 363.583,143.981 363.496,144.067L360.779,141.551L405.876,138.918C406.151,138.902 406.362,138.665 406.346,138.39C406.329,138.114 406.091,137.892 405.817,137.92L404.272,138.01L402.227,128.069C402.315,127.962 402.364,127.822 402.341,127.673L402.328,127.593L407.019,127.828L407.024,127.858C407.075,128.092 407.282,128.252 407.513,128.252C407.548,128.252 407.583,128.249 407.619,128.241C407.81,128.2 407.945,128.053 407.992,127.877L408.821,127.919C408.83,127.919 408.839,127.919 408.847,127.919C409.111,127.919 409.333,127.712 409.346,127.444C409.36,127.168 409.147,126.934 408.872,126.92L407.835,126.868L398.845,85.124C398.993,84.991 399.056,84.777 398.982,84.578C398.926,84.427 398.8,84.326 398.656,84.282C398.585,84.033 398.346,83.872 398.075,83.93C397.806,83.988 397.634,84.254 397.691,84.525L386.673,88.617C386.611,88.64 386.558,88.675 386.512,88.717C386.458,88.668 386.396,88.628 386.321,88.606L382.691,87.544L382.679,87.379C382.657,87.104 382.396,86.904 382.142,86.921C381.938,86.937 381.772,87.074 381.709,87.256L379.008,86.465L385.999,84.229C386.262,84.145 386.407,83.863 386.323,83.6C386.238,83.337 385.956,83.192 385.694,83.276L377.361,85.943C377.343,85.949 377.33,85.962 377.313,85.97L373.792,84.939L373.942,84.91C374.213,84.857 374.391,84.595 374.338,84.324C374.284,84.052 374.016,83.875 373.751,83.928L373.166,84.042C373.079,83.968 372.97,83.919 372.847,83.919C372.846,83.919 372.844,83.919 372.842,83.919C372.652,83.921 372.494,84.032 372.41,84.189L370.921,84.479C370.831,84.345 370.687,84.253 370.514,84.253C370.273,84.253 370.082,84.425 370.034,84.651L313.751,95.595C313.693,95.607 313.642,95.631 313.594,95.66L302.656,84.211C302.699,84.045 302.664,83.862 302.534,83.733C302.393,83.59 302.187,83.555 302.01,83.619C301.839,83.56 301.643,83.59 301.501,83.725C301.37,83.85 301.33,84.028 301.367,84.192L300.479,85.079L270.164,60.365C270.144,60.348 270.119,60.342 270.097,60.33C270.068,60.313 270.042,60.296 270.012,60.285C269.98,60.274 269.948,60.27 269.916,60.266C269.885,60.261 269.855,60.256 269.825,60.257C269.791,60.259 269.76,60.268 269.728,60.276C269.697,60.283 269.669,60.289 269.641,60.302C269.609,60.317 269.583,60.338 269.555,60.358C269.536,60.373 269.514,60.38 269.496,60.397C269.489,60.403 269.487,60.412 269.481,60.419C269.475,60.426 269.466,60.429 269.46,60.437C269.443,60.457 269.438,60.481 269.425,60.503C269.408,60.531 269.391,60.557 269.38,60.588C269.369,60.62 269.365,60.652 269.36,60.685C269.356,60.715 269.352,60.744 269.353,60.775C269.354,60.809 269.362,60.84 269.371,60.873C269.378,60.902 269.384,60.931 269.397,60.959C269.411,60.991 269.433,61.018 269.454,61.046C269.468,61.065 269.476,61.087 269.492,61.104L298.478,90.419C298.481,90.424 298.483,90.43 298.487,90.434L330.487,123.434C330.586,123.535 330.716,123.586 330.847,123.586C330.956,123.586 331.063,123.543 331.154,123.471L344.286,130.197C344.358,130.235 344.437,130.252 344.514,130.252C344.695,130.252 344.87,130.153 344.959,129.98C345.032,129.837 345.022,129.679 344.96,129.544L384.771,125.692C384.861,125.827 385.009,125.919 385.18,125.919C385.193,125.919 385.207,125.918 385.22,125.917C385.413,125.902 385.567,125.776 385.637,125.608L385.895,125.583C386.064,125.567 386.198,125.463 386.275,125.324L388.512,125.79C388.602,125.87 388.719,125.919 388.846,125.919C388.863,125.919 388.881,125.918 388.897,125.916C388.93,125.913 388.956,125.898 388.986,125.888L389.079,125.908C389.113,125.915 389.147,125.919 389.182,125.919C389.413,125.919 389.621,125.756 389.67,125.521C389.726,125.256 389.559,125.001 389.3,124.937L385.678,89.701C385.666,89.588 385.608,89.495 385.534,89.418L386.04,89.566C386.087,89.58 386.135,89.586 386.181,89.586C386.311,89.586 386.423,89.523 386.515,89.435C386.607,89.523 386.718,89.586 386.847,89.586C386.904,89.586 386.964,89.576 387.021,89.555L394.769,86.677L401.163,126.649L341.242,132.459C341.146,132.321 340.994,132.227 340.829,132.253C340.637,132.259 340.479,132.378 340.4,132.54L337.454,132.826C337.481,132.808 337.512,132.796 337.535,132.772C337.728,132.578 337.727,132.268 337.539,132.073C337.566,132.043 337.603,132.024 337.622,131.986C337.752,131.742 337.659,131.44 337.415,131.31L336.042,130.583L285.883,80.744C285.893,80.734 285.905,80.73 285.914,80.719C286.079,80.498 286.034,80.185 285.813,80.019L214.604,26.612L213.555,25.422C213.372,25.214 213.056,25.195 212.849,25.378C212.642,25.56 212.622,25.876 212.805,26.083L213.026,26.334C213.012,26.414 213.021,26.492 213.045,26.568L162.403,123.521C162.276,123.765 162.371,124.068 162.615,124.195C162.689,124.234 162.768,124.252 162.846,124.252C163.026,124.252 163.201,124.154 163.29,123.984L202.182,49.526L163.735,123.856C163.609,124.101 163.705,124.403 163.95,124.53C164.023,124.568 164.102,124.586 164.179,124.586C164.36,124.586 164.535,124.487 164.624,124.315L164.644,124.277L184.247,127.218L180.927,173.927L107.975,176.248C107.913,176.081 107.769,175.95 107.58,175.924C107.336,175.883 107.117,176.044 107.044,176.273C106.845,176.328 106.697,176.499 106.681,176.714C106.667,176.901 106.762,177.066 106.907,177.163L104.403,195.63L74.8,198.687C74.718,198.628 74.622,198.586 74.513,198.586C74.365,198.586 74.236,198.652 74.145,198.754L73.757,198.632C73.534,198.561 73.306,198.663 73.19,198.854L24.127,203.923C23.853,203.951 23.653,204.196 23.681,204.471C23.708,204.728 23.925,204.92 24.178,204.92C24.195,204.92 24.212,204.919 24.23,204.917L74.013,199.773L74.013,204.565C73.97,204.599 73.936,204.639 73.906,204.687L24.123,210.256C23.849,210.287 23.651,210.534 23.682,210.808C23.71,211.064 23.927,211.253 24.178,211.253C24.197,211.253 24.215,211.252 24.234,211.25L74.013,205.682L74.013,206.42C74.013,206.696 74.236,206.92 74.513,206.92C74.789,206.92 75.013,206.696 75.013,206.42L75.013,205.715L216.54,254.706C216.594,254.724 216.649,254.733 216.703,254.733C216.91,254.733 217.104,254.603 217.176,254.396C217.208,254.302 217.203,254.209 217.181,254.119C217.203,254.099 217.219,254.075 217.237,254.051L265.739,238.976C265.822,239.138 265.986,239.253 266.181,239.253C266.457,239.253 266.681,239.029 266.681,238.753L266.681,238.691L436.99,187.564C437.255,187.485 437.405,187.207 437.325,186.942C437.271,186.764 437.125,186.645 436.956,186.606L436.656,184.275L447.379,184.573C447.446,184.778 447.632,184.92 447.846,184.92C447.875,184.92 447.904,184.917 447.935,184.912C448.206,184.863 448.388,184.604 448.339,184.332L448.319,184.22C448.33,184.18 448.346,184.142 448.347,184.099C448.348,184.082 448.34,184.067 448.338,184.05L472.643,177.569C472.654,177.566 472.663,177.557 472.674,177.553C472.729,177.573 472.785,177.586 472.846,177.586C472.863,177.586 472.881,177.585 472.898,177.583C473.173,177.554 473.372,177.309 473.344,177.034L472.645,170.272L472.89,170.251Z" style="fill:rgb(34,30,31);fill-rule:nonzero;"/>
        <path d="M308.329,167.636L306.013,167.715L303.346,127.719C303.328,127.443 303.091,127.243 302.813,127.253C302.568,127.27 302.386,127.463 302.359,127.698L289.917,122.958L303.713,123.684L304.989,124.214C305.052,124.24 305.116,124.252 305.181,124.252C305.377,124.252 305.563,124.136 305.643,123.944C305.664,123.893 305.67,123.84 305.673,123.787L307.371,123.877L308.329,167.636ZM289.724,123.955L302.415,128.79L305.012,167.749L290.962,168.225L289.724,123.955ZM310.014,124.732C310.002,124.456 309.77,124.242 309.493,124.253C309.218,124.264 309.003,124.496 309.014,124.772L310.955,172.662L288.32,175.563L287.022,116.464C287.039,116.642 287.146,116.807 287.322,116.881L300.949,122.537L289.207,121.919C289.2,121.919 289.194,121.922 289.188,121.922C289.181,121.922 289.175,121.919 289.167,121.919C289.127,121.92 289.093,121.935 289.056,121.944C289.039,121.949 289.021,121.949 289.006,121.956C288.955,121.975 288.912,122.003 288.871,122.036C288.862,122.044 288.853,122.048 288.844,122.056C288.811,122.087 288.785,122.124 288.762,122.163C288.75,122.181 288.737,122.196 288.729,122.215C288.713,122.25 288.707,122.288 288.699,122.326C288.694,122.349 288.683,122.368 288.682,122.392C288.682,122.399 288.685,122.404 288.685,122.411C288.685,122.419 288.681,122.425 288.681,122.433L288.686,122.619C288.551,122.666 288.435,122.763 288.38,122.907C288.281,123.166 288.41,123.455 288.669,123.553L288.713,123.569L289.964,168.304C289.791,168.387 289.674,168.566 289.681,168.769C289.688,168.971 289.813,169.141 289.989,169.214L290.014,170.099C290.021,170.371 290.244,170.586 290.514,170.586C290.519,170.586 290.522,170.586 290.527,170.586C290.804,170.578 291.021,170.347 291.014,170.072L290.99,169.225L308.398,168.635C308.479,168.803 308.649,168.92 308.847,168.92C308.851,168.92 308.854,168.92 308.857,168.92C309.064,168.915 309.239,168.785 309.312,168.604L309.863,168.586C310.14,168.576 310.355,168.344 310.347,168.069C310.336,167.793 310.105,167.567 309.83,167.586L309.329,167.602L308.372,123.88C308.544,123.809 308.67,123.644 308.68,123.445C308.691,123.221 308.551,123.03 308.352,122.956L308.347,122.741C308.341,122.465 308.114,122.254 307.836,122.252C307.56,122.258 307.341,122.487 307.347,122.763L307.35,122.874L303.937,122.694L287.705,115.957C287.452,115.852 287.158,115.971 287.052,116.227C287.03,116.279 287.023,116.333 287.021,116.387L287.014,116.075C287.008,115.799 286.806,115.61 286.503,115.586C286.227,115.592 286.008,115.82 286.014,116.096L287.347,176.763C287.353,177.036 287.575,177.253 287.847,177.253C287.851,177.253 287.854,177.253 287.857,177.253C288.134,177.247 288.353,177.017 288.347,176.742L288.343,176.569L310.996,173.665L311.014,174.106C311.025,174.375 311.246,174.586 311.514,174.586C311.521,174.586 311.527,174.586 311.534,174.586C311.81,174.574 312.024,174.341 312.014,174.065L311.992,173.538L314.244,173.249C314.519,173.214 314.712,172.963 314.677,172.689C314.642,172.416 314.382,172.218 314.117,172.256L311.951,172.534L310.014,124.732Z" style="fill:rgb(34,30,31);fill-rule:nonzero;"/>
        <path d="M348.486,136.253C348.211,136.268 347.999,136.504 348.015,136.779L349.015,155.113C349.029,155.38 349.25,155.586 349.514,155.586C349.522,155.586 349.531,155.586 349.541,155.585C349.816,155.57 350.028,155.334 350.013,155.058L349.013,136.725C348.998,136.449 348.796,136.23 348.486,136.253Z" style="fill:rgb(34,30,31);fill-rule:nonzero;"/>
        <path d="M351.818,136.92C351.543,136.936 351.332,137.172 351.348,137.447L352.348,155.114C352.362,155.38 352.583,155.586 352.847,155.586C352.855,155.586 352.865,155.586 352.875,155.585C353.15,155.569 353.361,155.333 353.346,155.057L352.346,137.391C352.331,137.116 352.126,136.911 351.818,136.92Z" style="fill:rgb(34,30,31);fill-rule:nonzero;"/>
        <path d="M355.454,143.256C355.18,143.289 354.984,143.538 355.018,143.812L356.018,152.145C356.048,152.399 356.264,152.586 356.513,152.586C356.533,152.586 356.553,152.585 356.573,152.582C356.848,152.549 357.043,152.3 357.01,152.026L356.01,143.693C355.977,143.418 355.721,143.219 355.454,143.256Z" style="fill:rgb(34,30,31);fill-rule:nonzero;"/>
        <path d="M344.137,142.922C343.861,142.946 343.658,143.188 343.683,143.464L344.683,154.797C344.705,155.056 344.924,155.253 345.18,155.253C345.194,155.253 345.21,155.252 345.225,155.251C345.5,155.226 345.703,154.984 345.679,154.709L344.679,143.376C344.654,143.1 344.399,142.902 344.137,142.922Z" style="fill:rgb(34,30,31);fill-rule:nonzero;"/>
    </g>
</svg>
