<?xml version="1.0" encoding="UTF-8" standalone="no"?>
<!DOCTYPE svg PUBLIC "-//W3C//DTD SVG 1.1//EN" "http://www.w3.org/Graphics/SVG/1.1/DTD/svg11.dtd">
<svg version="1.1" xmlns="http://www.w3.org/2000/svg" xmlns:xlink="http://www.w3.org/1999/xlink" xml:space="preserve" xmlns:serif="http://www.serif.com/">
  <symbol id="finding-a-lot" viewBox="0 0 796 796" xml:space="preserve" style="fill-rule:evenodd;clip-rule:evenodd;stroke-linejoin:round;stroke-miterlimit:1.41421;">
    <g transform="matrix(4.16667,0,0,4.16667,0,0)">
      <path d="M95.25,0.5C42.645,0.5 0,43.145 0,95.75C0,148.355 42.645,191 95.25,191C147.855,191 190.5,148.355 190.5,95.75C190.5,43.145 147.855,0.5 95.25,0.5ZM95.25,5.5C145.014,5.5 185.5,45.986 185.5,95.75C185.5,145.514 145.014,186 95.25,186C45.485,186 5,145.514 5,95.75C5,45.986 45.485,5.5 95.25,5.5Z" style="fill:rgb(13,129,134);fill-rule:nonzero;"/>
      <rect x="92.52" y="102.166" width="4.105" height="9.338" style="fill:rgb(13,129,134);fill-rule:nonzero;"/>
      <path d="M96.625,89.357L88.167,89.357L88.167,93.461L92.52,93.461L92.52,98.063L96.625,98.063L96.625,89.357Z" style="fill:rgb(13,129,134);fill-rule:nonzero;"/>
      <path d="M79.462,93.461L84.063,93.461L84.063,89.357L75.358,89.357L75.358,98.063L79.462,98.063L79.462,93.461Z" style="fill:rgb(13,129,134);fill-rule:nonzero;"/>
      <rect x="75.358" y="102.166" width="4.104" height="9.338" style="fill:rgb(13,129,134);fill-rule:nonzero;"/>
      <path d="M159.132,126.831L158.964,126.785L158.965,126.781C158.954,126.777 158.888,126.761 158.781,126.734L158.772,126.732C157.546,126.415 150.5,124.641 140.34,122.884L140.34,112.303L148.922,112.303L138.475,77.729L128.524,112.303L137.106,112.303L137.106,122.344C130.695,121.311 123.279,120.338 115.43,119.736L115.43,117.849L111.067,117.849L111.067,119.446C107.439,119.24 103.743,119.118 100.03,119.118C98.891,119.118 97.757,119.132 96.625,119.152L96.625,115.608L92.52,115.608L92.52,119.273C88.042,119.454 83.659,119.78 79.462,120.202L79.462,115.608L75.358,115.608L75.358,120.648C70.169,121.259 65.338,121.991 61.05,122.734L61.05,117.849L56.688,117.849L56.688,123.525C49.028,124.981 43.768,126.325 42.395,126.687L42.392,126.675L42.034,126.781L42.105,127.021L42.138,127.143C42.139,127.143 42.14,127.143 42.14,127.142L45.398,138.152L45.428,138.27C45.691,138.204 72.091,131.738 100.249,131.738C128.404,131.738 155.692,138.205 155.964,138.271L156.051,137.908L156.049,137.908L159.132,126.831Z" style="fill:rgb(13,129,134);fill-rule:nonzero;"/>
      <rect x="56.688" y="99.927" width="4.362" height="10.582" style="fill:rgb(13,129,134);fill-rule:nonzero;"/>
      <rect x="56.688" y="82.004" width="4.362" height="10.581" style="fill:rgb(13,129,134);fill-rule:nonzero;"/>
      <rect x="111.067" y="99.927" width="4.363" height="10.582" style="fill:rgb(13,129,134);fill-rule:nonzero;"/>
      <rect x="111.067" y="82.004" width="4.363" height="10.581" style="fill:rgb(13,129,134);fill-rule:nonzero;"/>
      <path d="M61.05,69.967L64.482,66.536L61.58,63.634L57.028,68.186L56.688,68.186L56.688,75.037L61.05,75.037L61.05,69.967Z" style="fill:rgb(13,129,134);fill-rule:nonzero;"/>
      <path d="M111.067,75.037L115.43,75.037L115.43,68.186L115.164,68.186L115.251,68.105L110.101,63.261L107.017,66.163L111.067,69.973L111.067,75.037Z" style="fill:rgb(13,129,134);fill-rule:nonzero;"/>
      <path d="M75.293,57.202L77.279,55.333L74.193,52.432L69.043,57.276L67.059,59.143L70.144,62.045L75.293,57.202Z" style="fill:rgb(13,129,134);fill-rule:nonzero;"/>
      <path d="M102.377,62.045L105.461,59.143L103.478,57.276L98.327,52.432L95.242,55.333L97.226,57.202L102.377,62.045Z" style="fill:rgb(13,129,134);fill-rule:nonzero;"/>
      <path d="M86.061,47.071L90.071,50.843L93.157,47.941L91.17,46.074L89.146,44.169L89.186,44.132L86.101,41.23L86.061,41.267L86.021,41.23L82.937,44.132L82.976,44.169L80.952,46.074L78.966,47.941L82.051,50.843L86.061,47.071Z" style="fill:rgb(13,129,134);fill-rule:nonzero;"/>
    </g>
  </symbol>

  <symbol id="designing-your-home" viewBox="0 0 796 796" xml:space="preserve" style="fill-rule:evenodd;clip-rule:evenodd;stroke-linejoin:round;stroke-miterlimit:1.41421;">
    <g transform="matrix(4.16667,0,0,4.16667,0,0)">
      <path d="M92.194,54.314L92.194,51.969L97.514,51.969L97.514,54.314C95.732,54.067 93.979,54.067 92.194,54.314ZM80.395,71.114C81.675,64.213 87.791,59.079 94.855,59.079C101.919,59.079 108.035,64.213 109.315,71.114L80.395,71.114ZM94.855,77.36C93.606,77.36 92.393,76.889 91.448,76.064L98.266,76.064C97.322,76.897 96.124,77.36 94.855,77.36ZM94.855,82.31C98.919,82.31 102.641,79.814 104.221,76.064L114.537,76.064L114.509,73.561C114.42,65.726 109.705,58.743 102.465,55.677L102.465,51.074C102.465,48.838 100.646,47.019 98.409,47.019L97.331,47.019L97.331,39.223C97.331,37.858 96.22,36.748 94.855,36.748C93.49,36.748 92.38,37.858 92.38,39.223L92.38,47.019L91.299,47.019C89.064,47.019 87.244,48.838 87.244,51.074L87.244,55.678C80.004,58.743 75.29,65.726 75.202,73.561L75.173,76.064L85.488,76.064C87.068,79.814 90.789,82.31 94.855,82.31Z" style="fill:rgb(13,129,134);fill-rule:nonzero;"/>
      <path d="M55.843,99.162L44.2,99.162L44.2,93.841L54.632,93.841C54.938,96.106 55.336,97.86 55.843,99.162ZM130.948,93.841C129.373,98.207 128.64,103.745 127.863,109.591C126.612,119.041 125.318,128.813 120.564,132.245C117.973,134.113 115.494,135.021 112.988,135.021C107.582,135.021 101.489,130.956 92.617,121.427C81.124,109.08 71.394,103.984 65.559,100.929C63.291,99.74 61.332,98.712 60.765,97.981C60.655,97.839 60.107,96.999 59.629,93.841L130.948,93.841ZM146.3,93.841L146.3,99.162L134.568,99.162C135.076,96.955 135.647,95.206 136.306,93.841L146.3,93.841ZM147.207,88.892L43.293,88.892C41.064,88.892 39.25,90.711 39.25,92.948L39.25,104.11L44.78,104.11L44.78,146.272C44.78,147.637 45.89,148.747 47.255,148.747C48.62,148.747 49.73,147.637 49.73,146.272L49.73,104.11L56.639,104.11L56.639,133.236C56.639,134.602 57.75,135.712 59.114,135.712C60.479,135.712 61.589,134.602 61.589,133.236L61.589,104.428C62.114,104.711 62.679,105.008 63.295,105.33C68.83,108.231 78.092,113.088 88.994,124.8C98.892,135.434 106.068,139.971 112.989,139.972C116.573,139.972 119.999,138.757 123.461,136.258C125.167,135.026 126.597,133.315 127.799,131.06L127.799,133.236C127.799,134.602 128.909,135.712 130.272,135.712C131.639,135.712 132.749,134.602 132.749,133.236L132.751,110.402L132.772,110.241C133.025,108.328 133.311,106.176 133.637,104.11L139.658,104.11L139.658,146.272C139.658,147.637 140.769,148.747 142.134,148.747C143.498,148.747 144.608,147.637 144.608,146.272L144.608,104.11L151.25,104.11L151.25,92.948C151.25,90.711 149.437,88.892 147.207,88.892Z" style="fill:rgb(13,129,134);fill-rule:nonzero;"/>
      <path d="M95.25,0.5C42.645,0.5 0,43.145 0,95.75C0,148.355 42.645,191 95.25,191C147.855,191 190.5,148.355 190.5,95.75C190.5,43.145 147.855,0.5 95.25,0.5ZM95.25,5.5C145.014,5.5 185.5,45.986 185.5,95.75C185.5,145.514 145.014,186 95.25,186C45.485,186 5,145.514 5,95.75C5,45.986 45.485,5.5 95.25,5.5Z" style="fill:rgb(13,129,134);fill-rule:nonzero;"/>
    </g>
  </symbol>

  <symbol id="applying-for-permits" viewBox="0 0 796 796" xml:space="preserve" style="fill-rule:evenodd;clip-rule:evenodd;stroke-linejoin:round;stroke-miterlimit:1.41421;">
    <g transform="matrix(4.16667,0,0,4.16667,0,0)">
      <path d="M95.25,0.5C42.645,0.5 0,43.145 0,95.75C0,148.355 42.645,191 95.25,191C147.855,191 190.5,148.355 190.5,95.75C190.5,43.145 147.855,0.5 95.25,0.5ZM95.25,5.5C145.014,5.5 185.5,45.986 185.5,95.75C185.5,145.514 145.014,186 95.25,186C45.485,186 5,145.514 5,95.75C5,45.986 45.485,5.5 95.25,5.5Z" style="fill:rgb(13,129,134);fill-rule:nonzero;"/>
      <rect x="134.479" y="52.732" width="4.856" height="8.742" style="fill:rgb(13,129,134);fill-rule:nonzero;"/>
      <rect x="134.479" y="66.341" width="4.856" height="8.742" style="fill:rgb(13,129,134);fill-rule:nonzero;"/>
      <rect x="134.479" y="79.951" width="4.856" height="8.742" style="fill:rgb(13,129,134);fill-rule:nonzero;"/>
      <rect x="134.479" y="92.588" width="4.856" height="8.741" style="fill:rgb(13,129,134);fill-rule:nonzero;"/>
      <rect x="134.479" y="105.226" width="4.856" height="8.742" style="fill:rgb(13,129,134);fill-rule:nonzero;"/>
      <rect x="130.106" y="118.833" width="13.6" height="4.857" style="fill:rgb(13,129,134);fill-rule:nonzero;"/>
      <rect x="130.106" y="43.984" width="13.6" height="4.857" style="fill:rgb(13,129,134);fill-rule:nonzero;"/>
      <rect x="103.408" y="136.286" width="8.742" height="4.858" style="fill:rgb(13,129,134);fill-rule:nonzero;"/>
      <rect x="89.798" y="136.286" width="8.743" height="4.858" style="fill:rgb(13,129,134);fill-rule:nonzero;"/>
      <rect x="77.162" y="136.286" width="8.741" height="4.858" style="fill:rgb(13,129,134);fill-rule:nonzero;"/>
      <rect x="64.524" y="136.286" width="8.742" height="4.858" style="fill:rgb(13,129,134);fill-rule:nonzero;"/>
      <rect x="54.801" y="131.915" width="4.856" height="13.6" style="fill:rgb(13,129,134);fill-rule:nonzero;"/>
      <rect x="117.014" y="131.915" width="4.856" height="13.6" style="fill:rgb(13,129,134);fill-rule:nonzero;"/>
      <path d="M83.232,103.411L73.405,93.585L77.526,89.465L83.232,95.169L99.137,79.266L103.258,83.387L83.232,103.411ZM121.842,67.787L88.332,45.429L54.822,67.787L54.822,123.636L121.842,123.636L121.842,67.787Z" style="fill:rgb(13,129,134);fill-rule:nonzero;"/>
    </g>
  </symbol>

  <symbol id="building-your-home" viewBox="0 0 796 796" xml:space="preserve" style="fill-rule:evenodd;clip-rule:evenodd;stroke-linejoin:round;stroke-miterlimit:1.41421;">
    <g transform="matrix(4.16667,0,0,4.16667,0,0)">
      <path d="M144.12,92.137L98.04,48.195C97.889,47.912 97.71,47.673 97.494,47.466C96.927,46.926 96.169,46.628 95.361,46.628L95.27,46.631L95.138,46.628C94.328,46.628 93.571,46.926 93.005,47.466C92.789,47.672 92.61,47.912 92.459,48.195L46.378,92.137C45.8,92.688 45.482,93.423 45.482,94.206C45.482,94.989 45.801,95.724 46.378,96.274C47.522,97.365 49.506,97.366 50.649,96.275L95.25,53.745L139.85,96.274C140.422,96.82 141.18,97.121 141.985,97.121C142.791,97.121 143.549,96.82 144.12,96.275C144.698,95.724 145.018,94.989 145.018,94.206C145.018,93.423 144.699,92.688 144.12,92.137Z" style="fill:rgb(13,129,134);fill-rule:nonzero;"/>
      <path d="M130.705,94.454C129.05,94.454 127.705,95.799 127.705,97.456L127.732,135.87C127.732,136.422 127.284,136.87 126.732,136.87L111.482,136.87L111.482,111.62C111.482,108.863 109.239,106.62 106.482,106.62L84.982,106.62C82.225,106.62 79.982,108.863 79.982,111.62L79.982,136.87L63.732,136.87C63.181,136.87 62.732,136.422 62.732,135.87L62.732,97.371C62.732,95.716 61.386,94.371 59.732,94.371C58.078,94.371 56.732,95.716 56.732,97.371L56.732,135.87C56.732,139.729 59.872,142.87 63.732,142.87L85.982,142.87L85.982,112.62L105.482,112.62L105.482,142.87L126.732,142.87C130.591,142.87 133.732,139.729 133.732,135.87L133.705,97.454C133.705,95.799 132.359,94.454 130.705,94.454Z" style="fill:rgb(13,129,134);fill-rule:nonzero;"/>
      <path d="M95.25,0.5C42.645,0.5 0,43.145 0,95.75C0,148.355 42.645,191 95.25,191C147.855,191 190.5,148.355 190.5,95.75C190.5,43.145 147.855,0.5 95.25,0.5ZM95.25,5.5C145.014,5.5 185.5,45.986 185.5,95.75C185.5,145.514 145.014,186 95.25,186C45.485,186 5,145.514 5,95.75C5,45.986 45.485,5.5 95.25,5.5Z" style="fill:rgb(13,129,134);fill-rule:nonzero;"/>
    </g>
  </symbol>
</svg>
