<?xml version="1.0" encoding="UTF-8" standalone="no"?>
<!DOCTYPE svg PUBLIC "-//W3C//DTD SVG 1.1//EN" "http://www.w3.org/Graphics/SVG/1.1/DTD/svg11.dtd">
<svg width="100%" height="100%" viewBox="0 0 134 40" version="1.1" xmlns="http://www.w3.org/2000/svg" xmlns:xlink="http://www.w3.org/1999/xlink" xml:space="preserve" xmlns:serif="http://www.serif.com/" style="fill-rule:evenodd;clip-rule:evenodd;stroke-linejoin:round;stroke-miterlimit:1.41421;">
    <g id="Layer-1" serif:id="Layer 1" transform="matrix(0.457711,0,0,0.457711,-21.166,-41.9104)">
        <g transform="matrix(0.869565,0,0,0.869565,171.61,129.945)">
            <path d="M0,12.142C0.349,16.08 -1.389,23.416 -12.535,23.873C-17.467,24.076 -23.658,22.541 -26.11,21.404L-26.11,11.946L-24.879,11.946C-24.615,13.106 -22.294,21.853 -14.146,22.246C-9.419,22.466 -5.822,20.488 -5.733,16.554C-5.625,12.002 -10.672,10.431 -15.221,8.613C-20.361,6.561 -25.335,4.527 -26.027,-1.04C-26.841,-7.522 -20.833,-11.934 -13.96,-11.653C-10.172,-11.498 -6.359,-10.568 -3.445,-9.385L-3.445,-1.416L-4.66,-1.416C-5.351,-5.749 -7.963,-9.849 -13.881,-10.214C-17.335,-10.431 -20.496,-9.141 -20.501,-5.379C-20.501,-1.634 -14.224,-0.087 -9.678,1.711C-5.055,3.549 -0.548,6.064 0,12.142" style="fill:rgb(13,129,134);"/>
        </g>
        <g transform="matrix(0.869565,0,0,0.869565,310.878,129.945)">
            <path d="M0,12.142C0.349,16.08 -1.389,23.416 -12.534,23.873C-17.467,24.076 -23.657,22.541 -26.11,21.404L-26.11,11.946L-24.879,11.946C-24.615,13.106 -22.295,21.853 -14.145,22.246C-9.419,22.466 -5.821,20.488 -5.731,16.554C-5.625,12.002 -10.672,10.431 -15.22,8.613C-20.36,6.561 -25.336,4.527 -26.025,-1.04C-26.841,-7.522 -20.833,-11.934 -13.961,-11.653C-10.172,-11.498 -6.359,-10.568 -3.444,-9.385L-3.444,-1.416L-4.659,-1.416C-5.35,-5.749 -7.964,-9.849 -13.881,-10.214C-17.333,-10.431 -20.496,-9.141 -20.501,-5.379C-20.501,-1.634 -14.224,-0.087 -9.678,1.711C-5.056,3.549 -0.548,6.064 0,12.142" style="fill:rgb(13,129,134);"/>
        </g>
        <g transform="matrix(0.869565,0,0,0.869565,337.638,129.945)">
            <path d="M0,12.142C0.349,16.08 -1.388,23.416 -12.535,23.873C-17.467,24.076 -23.657,22.541 -26.109,21.404L-26.109,11.946L-24.879,11.946C-24.615,13.106 -22.294,21.853 -14.146,22.246C-9.419,22.466 -5.821,20.488 -5.732,16.554C-5.625,12.002 -10.671,10.431 -15.221,8.613C-20.361,6.561 -25.334,4.527 -26.025,-1.04C-26.84,-7.522 -20.832,-11.934 -13.959,-11.653C-10.173,-11.498 -6.359,-10.568 -3.443,-9.385L-3.443,-1.416L-4.659,-1.416C-5.35,-5.749 -7.963,-9.849 -13.88,-10.214C-17.334,-10.431 -20.496,-9.141 -20.502,-5.379C-20.502,-1.634 -14.224,-0.087 -9.678,1.711C-5.055,3.549 -0.548,6.064 0,12.142" style="fill:rgb(13,129,134);"/>
        </g>
        <g transform="matrix(0.869565,0,0,0.869565,274.763,146.037)">
            <path d="M0,-24.643L-0.03,-24.643L-12.74,4.389L-14.337,4.389L-26.416,-25.174L-26.416,-5.146C-26.416,-3.765 -26.378,-2.056 -26.019,-0.715C-25.818,0.037 -25.472,0.875 -24.838,1.379C-24.341,1.811 -23.157,2.131 -22.529,2.29C-21.881,2.455 -20.871,2.736 -20.209,2.767L-19.999,2.776L-19.999,4.929L-35.487,4.929L-35.487,2.784L-35.284,2.767C-34.46,2.699 -33.641,2.575 -32.829,2.411C-32.171,2.276 -31.451,2.055 -30.902,1.654C-30.263,1.187 -29.911,0.479 -29.728,-0.275C-29.4,-1.628 -29.394,-3.486 -29.394,-4.876L-29.394,-22.283C-29.394,-23.067 -29.474,-23.942 -29.772,-24.674C-30.006,-25.249 -30.351,-25.75 -30.838,-26.14C-31.4,-26.591 -32.069,-26.875 -32.761,-27.059C-33.513,-27.257 -34.282,-27.378 -35.061,-27.412L-35.271,-27.42L-35.271,-29.572L-22.176,-29.572L-11.695,-4.34L-2.769,-25.253C-2.43,-26.045 -2.146,-26.861 -1.915,-27.691C-1.791,-28.136 -1.561,-28.901 -1.546,-29.359L-1.539,-29.572L11.121,-29.572L11.121,-27.418L10.907,-27.412C10.293,-27.391 9.663,-27.302 9.058,-27.201C8.529,-27.114 7.937,-27.013 7.426,-26.849C6.973,-26.703 6.552,-26.454 6.345,-26.007C6.145,-25.575 6.051,-25.11 6.051,-24.634L6.051,-0.109C6.051,0.343 6.123,0.801 6.339,1.203C6.563,1.623 7.036,1.918 7.461,2.119C7.878,2.338 8.612,2.463 9.075,2.541C9.688,2.643 10.341,2.746 10.961,2.767L11.174,2.774L11.174,4.929L-5.824,4.929L-5.824,2.774L-5.609,2.767C-4.846,2.746 -4.075,2.68 -3.316,2.605C-2.791,2.551 -1.935,2.449 -1.462,2.218C-1.034,1.981 -0.624,1.664 -0.352,1.244C-0.088,0.842 0,0.366 0,-0.109L0,-24.643ZM-59.793,-27.214L-59.793,-14.14L-55.816,-14.14C-54.972,-14.14 -53.742,-14.17 -52.945,-14.471C-52.333,-14.7 -51.828,-15.084 -51.401,-15.568C-50.975,-16.083 -50.68,-16.73 -50.461,-17.358C-50.219,-18.052 -50.027,-18.772 -49.932,-19.502L-49.906,-19.694L-47.497,-19.694L-47.497,-5.933L-49.913,-5.933L-49.933,-6.133C-50.007,-6.945 -50.211,-7.746 -50.487,-8.512C-50.692,-9.087 -50.994,-9.836 -51.398,-10.303C-51.87,-10.847 -52.443,-11.26 -53.143,-11.454C-53.978,-11.686 -54.953,-11.732 -55.816,-11.732L-59.793,-11.732L-59.793,-1.738C-59.793,-0.986 -59.761,-0.109 -59.566,0.62C-59.433,1.126 -59.169,1.545 -58.732,1.838C-58.229,2.172 -57.561,2.324 -56.969,2.392C-55.881,2.516 -54.718,2.521 -53.624,2.521L-51.34,2.521C-50.553,2.521 -49.755,2.503 -48.971,2.424C-48.285,2.356 -47.603,2.243 -46.932,2.084C-46.472,1.977 -45.875,1.784 -45.522,1.451C-44.536,0.515 -43.696,-0.81 -43.028,-1.987C-42.457,-2.995 -41.709,-4.287 -41.348,-5.387L-41.297,-5.539L-39.013,-5.539L-39.754,4.929L-71.183,4.929L-71.183,2.779L-70.976,2.767C-70.275,2.724 -69.571,2.649 -68.876,2.564C-68.437,2.511 -67.623,2.425 -67.221,2.26C-66.809,2.082 -66.374,1.816 -66.146,1.408C-65.91,1.014 -65.844,0.515 -65.844,0.063L-65.844,-24.396C-65.844,-24.849 -65.922,-25.293 -66.109,-25.702C-66.319,-26.136 -66.791,-26.411 -67.22,-26.594C-67.804,-26.842 -68.469,-27.005 -69.091,-27.129C-69.704,-27.251 -70.352,-27.369 -70.977,-27.412L-71.183,-27.425L-71.183,-29.572L-41.834,-29.572L-41.834,-20.924L-44.216,-20.924L-44.262,-21.082C-44.665,-22.475 -45.561,-23.777 -46.491,-24.867C-47.274,-25.784 -48.414,-26.872 -49.664,-27.027C-50.305,-27.094 -50.949,-27.138 -51.592,-27.165C-52.448,-27.203 -53.306,-27.214 -54.162,-27.214L-59.793,-27.214ZM-105.178,-14.288L-88.093,-14.288L-88.093,-24.389C-88.093,-24.85 -88.193,-25.286 -88.407,-25.694C-88.634,-26.12 -89.039,-26.397 -89.47,-26.586C-90.008,-26.823 -90.579,-26.995 -91.15,-27.131C-91.702,-27.262 -92.282,-27.373 -92.848,-27.412L-93.055,-27.425L-93.055,-29.572L-77.08,-29.572L-77.08,-27.418L-77.294,-27.412C-77.89,-27.392 -78.5,-27.305 -79.087,-27.201C-79.616,-27.107 -80.164,-26.999 -80.676,-26.849C-81.125,-26.702 -81.55,-26.453 -81.757,-26.007C-81.957,-25.575 -82.042,-25.108 -82.042,-24.634L-82.042,-0.109C-82.042,0.34 -81.977,0.804 -81.763,1.203C-81.538,1.623 -81.063,1.918 -80.647,2.116C-80.221,2.32 -79.551,2.446 -79.085,2.532C-78.506,2.639 -77.881,2.745 -77.293,2.767L-77.08,2.775L-77.08,4.929L-93.055,4.929L-93.055,2.783L-92.851,2.767C-92.244,2.721 -91.641,2.666 -91.034,2.619C-90.604,2.587 -89.866,2.525 -89.456,2.346C-89.032,2.192 -88.669,1.947 -88.427,1.561C-88.171,1.149 -88.093,0.639 -88.093,0.162L-88.093,-11.732L-105.178,-11.732L-105.178,-0.109C-105.178,0.34 -105.114,0.804 -104.899,1.203C-104.674,1.623 -104.201,1.918 -103.785,2.116C-103.357,2.32 -102.688,2.446 -102.222,2.532C-101.644,2.641 -101.019,2.745 -100.43,2.767L-100.217,2.775L-100.217,4.929L-116.19,4.929L-116.19,2.783L-115.987,2.767C-115.382,2.721 -114.777,2.666 -114.171,2.619C-113.743,2.587 -113.003,2.525 -112.593,2.346C-112.169,2.192 -111.805,1.947 -111.563,1.561C-111.308,1.149 -111.229,0.639 -111.229,0.162L-111.229,-24.396C-111.229,-24.854 -111.332,-25.289 -111.545,-25.694C-111.771,-26.122 -112.173,-26.404 -112.607,-26.594C-113.141,-26.83 -113.72,-26.995 -114.286,-27.131C-114.838,-27.262 -115.417,-27.373 -115.984,-27.412L-116.19,-27.425L-116.19,-29.572L-100.217,-29.572L-100.217,-27.418L-100.43,-27.412C-101.027,-27.392 -101.637,-27.305 -102.224,-27.201C-102.754,-27.107 -103.302,-26.999 -103.812,-26.849C-104.269,-26.7 -104.685,-26.449 -104.893,-26C-105.092,-25.57 -105.178,-25.106 -105.178,-24.634L-105.178,-14.288Z" style="fill:rgb(13,129,134);"/>
        </g>
        <g transform="matrix(0.869565,0,0,0.869565,87.8637,136.587)">
            <path d="M0,9.707C-0.437,9.547 -0.686,9.598 -1.141,9.34C-2.798,8.4 0.284,7.379 0.405,7.281C-0.184,7.008 -1.859,6.734 -1.752,6.059C-1.702,5.744 -1.128,5.428 -0.784,5.309C-0.248,5.125 0.188,5.131 0.781,5.129L0.152,4.646C-0.491,4.137 -0.958,3.697 -1.384,2.893C-2.661,0.484 -0.381,-2.412 1.763,-1.713C2.858,-1.358 3.695,-0.559 4.136,0.309C4.071,-0.5 3.902,-0.857 4.029,-1.812C4.521,-5.525 6.078,-6.46 2.819,-10.697C2.421,-11.215 1.101,-12.728 0.565,-13.111C1.502,-11.436 2.501,-9.68 2.402,-7.449C2.267,-4.392 0.181,-6.532 -0.541,-5.996C-1.443,-5.326 -0.729,-2.948 -1.773,-2.155C-3.147,-1.111 -3.672,-3.883 -7.061,-0.43C-7.618,0.137 -9.091,1.693 -9.462,2.187C-11.713,5.182 -9.559,6.588 -7.853,8.77C-7.006,9.852 -5.034,12.348 -5.94,13.91C-6.849,15.477 -6.598,18.84 -6.118,20.465C-5.693,21.906 -4.94,22.578 -3.326,22.752C-2.695,22.818 -1.58,22.746 -1.276,22.35C-0.922,21.887 -1.224,20.709 -1.445,20.273C-1.882,19.412 -3.031,18.301 -3.014,16.775C-2.999,15.447 -1.95,15.193 -1.059,13.717C-0.632,13.012 -0.646,12.559 -0.584,11.65C-0.512,10.592 -0.151,10.232 0,9.707" style="fill:rgb(13,129,134);"/>
        </g>
        <g transform="matrix(0.869565,0,0,0.869565,83.7077,129.017)">
            <path d="M0,-1.602C0.524,-1.353 1.557,-1.194 2.187,-1.286C2.89,-1.388 3.186,-1.57 3.93,-0.697C4.322,-0.235 4.668,0.222 5.062,0.708C5.457,1.196 5.812,1.709 6.224,2.113C6.143,1.434 5.413,-0.223 5.108,-0.742C4.821,-1.231 4.561,-1.509 4.27,-1.901C3.859,-2.452 3.887,-2.561 3.614,-3.243C3.295,-4.04 2.157,-4.556 1.166,-4.785C-0.651,-5.202 -2.183,-3.537 -3.881,-4.377C-4.435,-4.652 -4.543,-5.022 -5.004,-5.25C-5.652,-5.575 -7.917,-6.267 -7.626,-4.794C-7.392,-3.611 -6.188,-3.271 -6.953,-1.953C-7.283,-1.384 -8.466,-0.089 -8.487,0.559C-8.506,1.136 -7.977,1.509 -7.744,1.804C-7.081,2.64 -7.56,2.485 -7.672,3.21C-7.763,3.799 -7.33,4.252 -6.914,4.428C-6.414,4.64 -5.723,4.665 -5.159,4.54C-4.238,4.335 -2.985,3.668 -3.181,2.583C-3.375,1.505 -5.354,-0.022 -5.323,-1.333C-5.312,-1.79 -5.042,-2.58 -4.822,-2.843C-4.455,-3.283 -3.776,-3.131 -3.148,-3.061C-2.305,-2.968 -2.14,-2.995 -1.438,-3.289C-0.473,-3.698 0.749,-4.045 1.675,-3.353C2.231,-2.935 2.068,-2.518 1.446,-2.186C1.144,-2.025 0.156,-1.73 0,-1.602" style="fill:rgb(13,129,134);"/>
        </g>
        <g transform="matrix(0.869565,0,0,0.869565,98.5681,139.256)">
            <path d="M0,10.982C0.139,8.703 -1.351,9.158 -1.279,7.56C-1.223,6.261 -0.396,5.086 0.177,4.341C0.619,3.767 1.371,3.029 1.956,2.613C2.631,2.134 3.469,1.716 3.684,0.779C3.722,0.611 3.738,0.4 3.721,0.212C3.678,-0.204 3.653,-0.022 2.654,0.398C0.247,1.412 1.025,-0.508 -3.176,-0.088C-4.257,0.019 -4.273,-0.288 -4.789,-0.772C-6.059,-1.965 -7.324,0.144 -6.112,0.931C-4.432,2.021 -3.12,1.923 -2.066,3.951C-1.754,4.554 -1.753,7.621 -2.305,8.064C-2.555,8.265 -3.625,8.586 -4.036,8.711C-5.838,9.252 -7.621,10.062 -9.387,10.423C-9.965,10.543 -11.071,10.523 -11.456,10.728C-13.274,11.689 -11.625,12.947 -10.285,11.953C-10.036,11.769 -9.958,11.527 -9.732,11.318C-8.685,10.336 -4.6,9.654 -3.275,9.509C-1.941,9.363 -0.953,9.837 -0.184,10.808C-0.057,10.97 -0.194,10.867 0,10.982" style="fill:rgb(13,129,134);"/>
        </g>
        <g transform="matrix(0.869565,0,0,0.869565,97.3741,127.919)">
            <path d="M0,1.679C0.434,1.916 1.418,1.6 1.909,1.446C2.928,1.124 3.12,0.892 3.601,0.714C3.486,1.581 2.432,2.374 1.784,2.884C1.739,2.918 1.689,2.951 1.633,2.999L1.453,3.186C2.746,3.073 3.756,2.273 4.137,1.352C4.372,0.782 4.469,0.007 4.156,-0.539C3.658,-1.411 1.342,-1.507 0.711,-0.996C-0.871,0.28 1.113,0.138 1.547,0.397C1.754,0.521 1.857,1.017 1.611,1.202C1.232,1.488 -0.207,0.8 0,1.679" style="fill:rgb(13,129,134);"/>
        </g>
        <g transform="matrix(0.869565,0,0,0.869565,91.5088,114.131)">
            <path d="M0,9.679C-0.217,7.397 -2.108,4.474 -3.432,2.944C-4.01,2.274 -5.86,0.153 -6.602,0C-6.64,0.285 -6.067,1.005 -5.896,1.252L-0.849,8.506C-0.61,8.85 -0.257,9.407 0,9.679" style="fill:rgb(13,129,134);"/>
        </g>
        <g transform="matrix(0.869565,0,0,0.869565,95.2698,118.61)">
            <path d="M0,7.544C-0.926,5.841 -1.159,5.548 -1.741,3.374C-1.984,2.468 -2.242,1.995 -2.727,1.393C-2.979,1.078 -3.885,0.136 -4.303,0C-4.332,0.954 -4.236,1.782 -3.955,2.623C-3.434,4.177 -2.07,5.164 -1.076,6.379L0,7.544Z" style="fill:rgb(13,129,134);"/>
        </g>
        <g transform="matrix(0.869565,0,0,0.869565,58.3651,147.175)">
            <path d="M0,8.363C-0.54,7.683 -0.986,6.998 -1.338,6.306C-1.479,6.031 -1.601,5.765 -1.702,5.508C-1.803,5.251 -1.891,4.952 -1.964,4.611C-2.039,4.27 -2.062,3.96 -2.035,3.681C-2.008,3.402 -1.909,3.128 -1.738,2.858C-1.568,2.588 -1.317,2.368 -0.986,2.198L1.963,0.691C3.315,0 4.521,0.692 5.583,2.768C5.844,3.279 6.131,4.028 6.445,5.016L5.235,5.634C5.008,4.716 4.745,3.963 4.445,3.376C4.325,3.141 4.221,2.954 4.131,2.813C4.041,2.672 3.927,2.534 3.79,2.4C3.651,2.266 3.501,2.19 3.34,2.173C3.179,2.155 3.002,2.196 2.809,2.295L-0.047,3.755C-0.654,4.065 -0.673,4.775 -0.105,5.886C0.145,6.375 0.587,6.994 1.221,7.74L0,8.363Z" style="fill:rgb(13,129,134);fill-rule:nonzero;"/>
        </g>
        <g transform="matrix(0.869565,0,0,0.869565,63.684,154.502)">
            <path d="M0,4.872L2.57,2.783C2.853,2.554 2.957,2.276 2.883,1.952C2.809,1.628 2.589,1.24 2.223,0.789C1.851,0.332 1.517,0.035 1.22,-0.103C0.923,-0.241 0.631,-0.192 0.342,0.042L-2.228,2.131C-2.378,2.253 -2.471,2.393 -2.507,2.552C-2.542,2.711 -2.521,2.881 -2.444,3.062C-2.366,3.244 -2.28,3.408 -2.185,3.556C-2.09,3.703 -1.962,3.876 -1.801,4.074C-1.64,4.272 -1.497,4.434 -1.372,4.557C-1.247,4.68 -1.104,4.796 -0.945,4.906C-0.786,5.017 -0.626,5.068 -0.466,5.063C-0.306,5.058 -0.15,4.994 0,4.872M3.705,4.197L1.144,6.278C0.813,6.547 0.459,6.689 0.083,6.706C-0.293,6.722 -0.659,6.631 -1.016,6.432C-1.373,6.232 -1.695,6.005 -1.982,5.749C-2.27,5.493 -2.548,5.2 -2.816,4.87C-3.07,4.558 -3.289,4.248 -3.472,3.943C-3.656,3.638 -3.819,3.286 -3.962,2.889C-4.106,2.491 -4.132,2.103 -4.041,1.725C-3.949,1.346 -3.726,1.012 -3.371,0.724L-0.81,-1.357C-0.51,-1.602 -0.19,-1.749 0.148,-1.8C0.486,-1.85 0.792,-1.829 1.067,-1.738C1.341,-1.647 1.625,-1.495 1.921,-1.286C2.216,-1.077 2.458,-0.874 2.647,-0.679C2.836,-0.482 3.025,-0.268 3.216,-0.033C3.412,0.207 3.587,0.441 3.743,0.67C3.898,0.897 4.048,1.178 4.193,1.509C4.337,1.841 4.428,2.151 4.464,2.441C4.5,2.731 4.459,3.034 4.341,3.35C4.223,3.665 4.011,3.948 3.705,4.197" style="fill:rgb(13,129,134);fill-rule:nonzero;"/>
        </g>
        <g transform="matrix(0.869565,0,0,0.869565,70.0206,157.695)">
            <path d="M0,10.308L-1.455,9.187L-1.154,2.818L-4.345,6.961L-5.625,5.975L-1.023,0L0.432,1.12L0.181,7.426L3.322,3.347L4.602,4.333L0,10.308Z" style="fill:rgb(13,129,134);fill-rule:nonzero;"/>
        </g>
        <g transform="matrix(0.869565,0,0,0.869565,77.8467,163.918)">
            <path d="M0,4.735L-0.213,5.187C-0.406,5.593 -0.641,5.9 -0.918,6.107C-1.196,6.314 -1.513,6.422 -1.868,6.43C-2.223,6.438 -2.584,6.391 -2.952,6.291C-3.32,6.189 -3.738,6.028 -4.208,5.806C-4.859,5.499 -5.635,5.054 -6.535,4.475L-5.944,3.225C-4.867,3.957 -4.098,4.431 -3.635,4.65C-2.725,5.08 -2.159,5.061 -1.937,4.591L-1.729,4.15C-1.632,3.947 -1.614,3.753 -1.671,3.567C-1.729,3.381 -1.937,3.204 -2.294,3.035L-3.092,2.658C-4.591,1.949 -5.06,1 -4.497,-0.191L-4.258,-0.696C-3.98,-1.284 -3.528,-1.603 -2.9,-1.654C-2.272,-1.703 -1.416,-1.472 -0.33,-0.959C0.196,-0.711 0.885,-0.329 1.739,0.185L1.163,1.404C0.158,0.774 -0.541,0.367 -0.933,0.182C-1.473,-0.073 -1.865,-0.202 -2.111,-0.207C-2.357,-0.212 -2.532,-0.107 -2.634,0.111L-2.863,0.594C-3.032,0.951 -2.815,1.272 -2.212,1.556L-1.393,1.944C-0.594,2.321 -0.095,2.737 0.106,3.192C0.307,3.646 0.271,4.161 0,4.735" style="fill:rgb(13,129,134);fill-rule:nonzero;"/>
        </g>
        <g transform="matrix(0.869565,0,0,0.869565,84.7518,168.912)">
            <path d="M0,-2.501L-2.232,-3.105L-3.865,2.93L-5.615,2.456L-3.982,-3.579L-6.225,-4.186L-5.888,-5.431L0.337,-3.746L0,-2.501Z" style="fill:rgb(13,129,134);fill-rule:nonzero;"/>
        </g>
        <g transform="matrix(0.869565,0,0,0.869565,89.5365,170.213)">
            <path d="M0,-2.283L0.034,-2.816C0.051,-3.095 -0.02,-3.291 -0.179,-3.406C-0.339,-3.521 -0.62,-3.592 -1.022,-3.617L-2.576,-3.716L-2.708,-1.628L-1.154,-1.529C-0.729,-1.503 -0.436,-1.54 -0.274,-1.642C-0.112,-1.745 -0.021,-1.958 0,-2.283M1.922,2.834L-0.165,2.701L-1.949,-0.381L-2.784,-0.433L-2.971,2.524L-4.78,2.409L-4.303,-5.117L-0.917,-4.902C0.073,-4.84 0.788,-4.674 1.229,-4.405C1.669,-4.137 1.873,-3.713 1.835,-3.133L1.751,-1.81C1.722,-1.354 1.536,-1.013 1.191,-0.787C0.847,-0.56 0.43,-0.431 -0.062,-0.4L1.922,2.834Z" style="fill:rgb(13,129,134);fill-rule:nonzero;"/>
        </g>
        <g transform="matrix(0.869565,0,0,0.869565,97.9498,172.511)">
            <path d="M0,-8.389L0.82,-2.977C1.039,-1.537 0.068,-0.654 -2.092,-0.326C-4.244,0 -5.43,-0.557 -5.647,-1.996L-6.468,-7.409L-4.676,-7.68L-3.855,-2.269C-3.805,-1.931 -3.658,-1.716 -3.416,-1.624C-3.176,-1.532 -2.791,-1.525 -2.262,-1.605C-1.741,-1.684 -1.383,-1.803 -1.187,-1.962C-0.992,-2.12 -0.92,-2.368 -0.972,-2.705L-1.792,-8.117L0,-8.389Z" style="fill:rgb(13,129,134);fill-rule:nonzero;"/>
        </g>
        <g transform="matrix(0.869565,0,0,0.869565,106.066,164.581)">
            <path d="M0,5.234C-0.738,5.692 -1.471,6.056 -2.197,6.327C-2.487,6.435 -2.766,6.525 -3.033,6.595C-3.301,6.667 -3.607,6.719 -3.954,6.754C-4.301,6.788 -4.611,6.775 -4.886,6.716C-5.16,6.658 -5.421,6.528 -5.67,6.327C-5.918,6.127 -6.107,5.851 -6.237,5.504L-7.396,2.4C-7.926,0.978 -7.1,-0.141 -4.914,-0.956C-4.378,-1.157 -3.6,-1.356 -2.582,-1.554L-2.107,-0.28C-3.047,-0.161 -3.825,0.014 -4.441,0.244C-4.689,0.337 -4.888,0.419 -5.038,0.492C-5.189,0.564 -5.338,0.662 -5.487,0.783C-5.637,0.905 -5.729,1.045 -5.765,1.203C-5.801,1.361 -5.781,1.542 -5.705,1.745L-4.584,4.75C-4.346,5.388 -3.643,5.49 -2.474,5.053C-1.959,4.861 -1.293,4.494 -0.479,3.95L0,5.234Z" style="fill:rgb(13,129,134);fill-rule:nonzero;"/>
        </g>
        <g transform="matrix(0.869565,0,0,0.869565,109.538,166.527)">
            <path d="M0,-6.385L-1.973,-5.179L1.285,0.156L-0.262,1.101L-3.52,-4.235L-5.503,-3.023L-6.176,-4.123L-0.672,-7.486L0,-6.385Z" style="fill:rgb(13,129,134);fill-rule:nonzero;"/>
        </g>
        <g transform="matrix(-0.669746,0.554603,0.554603,0.669746,108.901,161.584)">
            <rect x="-4.01" y="-1.444" width="1.814" height="7.542" style="fill:rgb(13,129,134);"/>
        </g>
        <g transform="matrix(0.869565,0,0,0.869565,118.401,157.735)">
            <path d="M0,-0.464L-2.497,-2.64C-2.771,-2.879 -3.062,-2.935 -3.368,-2.807C-3.676,-2.679 -4.021,-2.396 -4.401,-1.957C-4.788,-1.514 -5.024,-1.134 -5.11,-0.818C-5.195,-0.501 -5.098,-0.221 -4.817,0.023L-2.321,2.199C-2.175,2.326 -2.021,2.393 -1.858,2.402C-1.695,2.41 -1.531,2.36 -1.366,2.253C-1.2,2.145 -1.053,2.032 -0.924,1.913C-0.794,1.795 -0.646,1.639 -0.478,1.446C-0.31,1.254 -0.177,1.085 -0.076,0.941C0.023,0.797 0.114,0.637 0.195,0.461C0.276,0.285 0.301,0.119 0.269,-0.038C0.235,-0.195 0.146,-0.337 0,-0.464M-1.297,-3.999L1.19,-1.831C1.513,-1.551 1.713,-1.227 1.793,-0.86C1.873,-0.491 1.846,-0.114 1.71,0.27C1.575,0.656 1.405,1.013 1.202,1.339C1,1.666 0.759,1.99 0.479,2.311C0.214,2.615 -0.053,2.883 -0.322,3.116C-0.592,3.349 -0.91,3.569 -1.277,3.778C-1.646,3.988 -2.022,4.08 -2.411,4.054C-2.8,4.029 -3.167,3.866 -3.512,3.565L-5.999,1.397C-6.292,1.142 -6.491,0.853 -6.599,0.528C-6.706,0.204 -6.738,-0.102 -6.694,-0.388C-6.651,-0.673 -6.552,-0.98 -6.396,-1.306C-6.239,-1.632 -6.081,-1.905 -5.921,-2.125C-5.76,-2.345 -5.58,-2.568 -5.382,-2.796C-5.179,-3.029 -4.978,-3.242 -4.778,-3.435C-4.581,-3.627 -4.331,-3.822 -4.028,-4.022C-3.727,-4.221 -3.437,-4.362 -3.156,-4.448C-2.876,-4.533 -2.571,-4.544 -2.24,-4.483C-1.909,-4.42 -1.595,-4.259 -1.297,-3.999" style="fill:rgb(13,129,134);fill-rule:nonzero;"/>
        </g>
        <g transform="matrix(0.869565,0,0,0.869565,125.131,152.127)">
            <path d="M0,-2.782L-0.854,-1.157L-7.179,-0.355L-2.549,2.074L-3.299,3.504L-9.977,0L-9.124,-1.626L-2.87,-2.465L-7.429,-4.856L-6.678,-6.286L0,-2.782Z" style="fill:rgb(13,129,134);fill-rule:nonzero;"/>
        </g>
        <g transform="matrix(0.869565,0,0,0.869565,113.735,127.249)">
            <path d="M0,18.428C-0.229,19.105 -0.474,19.774 -0.749,20.428L-0.754,20.428C-5.14,30.797 -15.417,38.092 -27.366,38.092C-39.314,38.092 -49.592,30.797 -53.978,20.428L-53.981,20.428C-54.257,19.774 -54.502,19.105 -54.729,18.428L-73.707,18.428C-74.298,15.447 -74.615,12.366 -74.615,9.214C-74.615,6.062 -74.298,2.983 -73.707,0.001L-54.729,0.001C-54.502,-0.676 -54.257,-1.345 -53.981,-1.999L-53.978,-1.999C-49.592,-12.369 -39.314,-19.664 -27.366,-19.664C-15.417,-19.664 -5.14,-12.369 -0.754,-1.999L-0.749,-1.999C-0.474,-1.345 -0.229,-0.676 0,0.001L18.977,0.001C19.568,2.983 19.885,6.062 19.885,9.214C19.885,12.366 19.568,15.447 18.977,18.428L0,18.428ZM-27.365,56.464C-49.555,56.464 -68.211,41.085 -73.259,20.428L-56.127,20.428C-51.629,31.924 -40.438,40.092 -27.366,40.092C-14.295,40.092 -3.103,31.924 1.396,20.428L18.529,20.428C13.48,41.085 -5.176,56.464 -27.365,56.464M-27.365,-38.036C-5.175,-38.036 13.481,-22.656 18.529,-1.999L18.247,-1.999L1.396,-1.999C-3.103,-13.496 -14.295,-21.664 -27.366,-21.664C-40.438,-21.664 -51.629,-13.496 -56.127,-1.999L-72.979,-1.999L-73.26,-1.999C-68.211,-22.656 -49.556,-38.036 -27.365,-38.036M-27.365,-41.036C-55.073,-41.036 -77.615,-18.494 -77.615,9.214C-77.615,36.922 -55.073,59.464 -27.365,59.464C0.343,59.464 22.885,36.922 22.885,9.214C22.885,-18.494 0.343,-41.036 -27.365,-41.036" style="fill:rgb(13,129,134);fill-rule:nonzero;"/>
        </g>
        <g transform="matrix(0.869565,0,0,0.869565,56.2425,132.432)">
            <path d="M0,6.49L-5.05,6.49L-5.05,0L-0.1,0L-0.1,1.11L-3.49,1.11L-3.49,2.6L-0.43,2.6L-0.43,3.71L-3.49,3.71L-3.49,5.38L0,5.38L0,6.49Z" style="fill:rgb(13,129,134);fill-rule:nonzero;"/>
        </g>
        <g transform="matrix(0.869565,0,0,0.869565,61.4863,134.415)">
            <path d="M0,1.93L0,2.359C0,2.746 -0.07,3.072 -0.21,3.335C-0.35,3.598 -0.557,3.799 -0.83,3.935C-1.104,4.072 -1.402,4.168 -1.725,4.224C-2.049,4.281 -2.434,4.31 -2.88,4.31C-3.5,4.31 -4.267,4.25 -5.18,4.13L-5.18,2.939C-4.074,3.113 -3.3,3.2 -2.86,3.2C-1.994,3.2 -1.56,2.976 -1.56,2.529L-1.56,2.109C-1.56,1.916 -1.617,1.758 -1.73,1.635C-1.844,1.512 -2.07,1.45 -2.41,1.45L-3.17,1.45C-4.597,1.45 -5.31,0.883 -5.31,-0.25L-5.31,-0.73C-5.31,-1.29 -5.075,-1.705 -4.605,-1.975C-4.135,-2.245 -3.384,-2.38 -2.35,-2.38C-1.85,-2.38 -1.174,-2.337 -0.32,-2.25L-0.32,-1.09C-1.333,-1.21 -2.027,-1.27 -2.4,-1.27C-2.914,-1.27 -3.267,-1.227 -3.46,-1.14C-3.654,-1.053 -3.75,-0.907 -3.75,-0.7L-3.75,-0.24C-3.75,0.1 -3.463,0.27 -2.89,0.27L-2.11,0.27C-1.35,0.27 -0.809,0.41 -0.485,0.69C-0.162,0.97 0,1.383 0,1.93" style="fill:rgb(13,129,134);fill-rule:nonzero;"/>
        </g>
        <g transform="matrix(0.869565,0,0,0.869565,66.3814,137.111)">
            <path d="M0,-4.27L-1.99,-4.27L-1.99,1.11L-3.55,1.11L-3.55,-4.27L-5.55,-4.27L-5.55,-5.38L0,-5.38L0,-4.27Z" style="fill:rgb(13,129,134);fill-rule:nonzero;"/>
        </g>
        <g transform="matrix(-0.869565,-0,0,0.869565,129.466,14.473)">
            <rect x="71.287" y="140.763" width="1.56" height="1.38" style="fill:rgb(13,129,134);"/>
        </g>
        <g transform="matrix(0.869565,0,0,0.869565,115.282,132.345)">
            <path d="M0,6.59L-4.56,6.59L-4.56,5.111C-4.56,4.736 -4.455,4.419 -4.245,4.155C-4.035,3.892 -3.781,3.695 -3.485,3.565C-3.188,3.435 -2.892,3.32 -2.595,3.22C-2.298,3.12 -2.045,3.007 -1.835,2.88C-1.625,2.754 -1.52,2.597 -1.52,2.41L-1.52,1.58C-1.52,1.38 -1.604,1.243 -1.77,1.17C-1.937,1.097 -2.217,1.06 -2.61,1.06C-3.057,1.06 -3.663,1.143 -4.43,1.31L-4.43,0.21C-3.757,0.07 -3.06,0 -2.34,0C-1.573,0 -0.993,0.117 -0.6,0.35C-0.207,0.584 -0.01,0.986 -0.01,1.56L-0.01,2.46C-0.01,2.814 -0.116,3.113 -0.33,3.36C-0.543,3.607 -0.802,3.792 -1.104,3.915C-1.408,4.038 -1.713,4.152 -2.02,4.255C-2.326,4.359 -2.587,4.484 -2.8,4.63C-3.014,4.777 -3.12,4.956 -3.12,5.17L-3.12,5.5L0,5.5L0,6.59Z" style="fill:rgb(13,129,134);fill-rule:nonzero;"/>
        </g>
        <g transform="matrix(0.869565,0,0,0.869565,117.499,136.693)">
            <path d="M0,-3.31L0,0C0,0.314 0.05,0.517 0.15,0.61C0.25,0.703 0.507,0.75 0.92,0.75C1.326,0.75 1.578,0.703 1.675,0.61C1.771,0.517 1.82,0.314 1.82,0L1.82,-3.31C1.82,-3.623 1.771,-3.827 1.675,-3.92C1.578,-4.014 1.326,-4.06 0.92,-4.06C0.507,-4.06 0.25,-4.014 0.15,-3.92C0.05,-3.827 0,-3.623 0,-3.31M-1.48,-0.101L-1.48,-3.21C-1.48,-3.53 -1.432,-3.805 -1.335,-4.035C-1.238,-4.265 -1.122,-4.442 -0.985,-4.565C-0.849,-4.688 -0.665,-4.783 -0.435,-4.85C-0.205,-4.916 0.007,-4.958 0.2,-4.975C0.394,-4.992 0.627,-5 0.9,-5C1.167,-5 1.395,-4.992 1.585,-4.975C1.775,-4.958 1.986,-4.915 2.22,-4.845C2.453,-4.775 2.642,-4.68 2.785,-4.56C2.929,-4.44 3.05,-4.265 3.15,-4.035C3.25,-3.805 3.3,-3.53 3.3,-3.21L3.3,-0.101C3.3,0.22 3.25,0.495 3.15,0.725C3.05,0.955 2.929,1.13 2.785,1.25C2.642,1.37 2.453,1.465 2.22,1.534C1.986,1.605 1.775,1.648 1.585,1.665C1.395,1.682 1.167,1.69 0.9,1.69C0.627,1.69 0.394,1.682 0.2,1.665C0.007,1.648 -0.205,1.607 -0.435,1.54C-0.665,1.474 -0.849,1.378 -0.985,1.255C-1.122,1.132 -1.238,0.955 -1.335,0.725C-1.432,0.495 -1.48,0.22 -1.48,-0.101" style="fill:rgb(13,129,134);fill-rule:nonzero;"/>
        </g>
        <g transform="matrix(0.869565,0,0,0.869565,123.925,132.432)">
            <path d="M0,6.49L-1.46,6.49L-1.46,1.53L-3.229,2.51L-3.229,1.28L-1.18,0L0,0L0,6.49Z" style="fill:rgb(13,129,134);fill-rule:nonzero;"/>
        </g>
        <g transform="matrix(0.869565,0,0,0.869565,129.021,132.345)">
            <path d="M0,6.59L-4.56,6.59L-4.56,5.111C-4.56,4.736 -4.455,4.419 -4.245,4.155C-4.035,3.892 -3.781,3.695 -3.485,3.565C-3.188,3.435 -2.892,3.32 -2.595,3.22C-2.298,3.12 -2.045,3.007 -1.835,2.88C-1.625,2.754 -1.52,2.597 -1.52,2.41L-1.52,1.58C-1.52,1.38 -1.604,1.243 -1.77,1.17C-1.937,1.097 -2.217,1.06 -2.61,1.06C-3.057,1.06 -3.663,1.143 -4.43,1.31L-4.43,0.21C-3.757,0.07 -3.06,0 -2.34,0C-1.573,0 -0.993,0.117 -0.6,0.35C-0.207,0.584 -0.01,0.986 -0.01,1.56L-0.01,2.46C-0.01,2.814 -0.116,3.113 -0.33,3.36C-0.543,3.607 -0.802,3.792 -1.104,3.915C-1.408,4.038 -1.713,4.152 -2.02,4.255C-2.326,4.359 -2.587,4.484 -2.8,4.63C-3.014,4.777 -3.12,4.956 -3.12,5.17L-3.12,5.5L0,5.5L0,6.59Z" style="fill:rgb(13,129,134);fill-rule:nonzero;"/>
        </g>
        <g transform="matrix(0.869565,0,0,0.869565,101.319,96.5004)">
            <path d="M0,13.762C-1.269,13.197 -1.477,12.742 -1.186,11.821C-0.199,8.698 0.293,7.135 1.279,4.011C1.57,3.087 2.07,2.84 3.423,3.332C3.524,3.045 3.573,2.901 3.674,2.614C1.921,1.929 1.023,1.622 -0.82,1.099C-0.999,1.407 -1.195,1.711 -1.461,2.085C-3.413,4.82 -4.322,6.226 -6.006,9.098C-6.236,9.49 -6.304,9.564 -6.363,9.552C-6.427,9.539 -6.455,9.444 -6.515,8.994C-6.854,6.173 -7.079,4.764 -7.633,1.955C-7.787,1.185 -7.97,0.413 -8.085,-0.367C-10.105,-0.613 -11.111,-0.681 -13.107,-0.718C-13.125,-0.415 -13.135,-0.262 -13.152,0.041C-11.462,0.105 -11.099,0.536 -11.189,1.499C-11.475,4.54 -11.618,6.061 -11.904,9.102C-12.019,10.339 -12.413,10.951 -13.804,10.985C-13.822,11.289 -13.832,11.441 -13.85,11.745C-12.173,11.744 -11.327,11.792 -9.626,11.999C-9.582,11.698 -9.56,11.548 -9.516,11.246C-10.919,11.041 -11.174,10.391 -11.037,9.155C-10.68,5.929 -10.5,4.315 -10.144,1.089C-10.124,0.917 -10.061,0.853 -9.954,0.862C-9.901,0.866 -9.854,0.922 -9.832,1.047C-8.989,4.525 -8.653,6.275 -8.147,9.781C-7.991,10.834 -7.953,11.401 -7.937,12.244C-7.487,12.322 -7.262,12.362 -6.81,12.454C-6.593,11.918 -6.308,11.307 -5.9,10.601C-4.068,7.427 -3.069,5.88 -0.917,2.87C-0.763,2.645 -0.695,2.611 -0.626,2.632C-0.522,2.662 -0.507,2.74 -0.581,3.006C-1.499,6.306 -1.957,7.955 -2.875,11.254C-3.134,12.186 -3.537,12.431 -4.929,12.109C-5,12.404 -5.037,12.551 -5.108,12.846C-3.091,13.364 -2.119,13.698 -0.252,14.48C-0.15,14.193 -0.102,14.049 0,13.762" style="fill:rgb(13,129,134);"/>
        </g>
        <g transform="matrix(0.869565,0,0,0.869565,87.2204,101.335)">
            <path d="M0,2.021C-0.172,5.112 -0.809,5.546 -3.437,6.146C-3.898,6.251 -4.35,6.329 -4.789,6.411C-5.029,5.646 -5.254,4.965 -5.439,4.258C-5.739,3.111 -5.887,2.537 -6.187,1.391C-3.866,0.808 -3.494,1.214 -3.054,2.793C-2.796,2.742 -2.667,2.716 -2.409,2.669C-2.771,0.742 -2.953,-0.222 -3.316,-2.148C-3.601,-2.096 -3.745,-2.069 -4.028,-2.012C-3.831,-0.386 -4.04,0.011 -6.379,0.667C-6.634,-0.308 -6.761,-0.796 -7.017,-1.771C-7.202,-2.48 -7.334,-3.186 -7.486,-3.974C-6.878,-4.133 -6.572,-4.207 -5.959,-4.347C-2.446,-5.151 -1.77,-4.369 -1.238,-2.002C-0.954,-2.043 -0.813,-2.062 -0.528,-2.099C-0.745,-3.705 -0.852,-4.508 -1.068,-6.115C-2.071,-5.935 -3.113,-5.684 -4.144,-5.489C-7.148,-4.923 -8.634,-4.53 -11.522,-3.532C-11.426,-3.248 -11.377,-3.105 -11.281,-2.821C-9.869,-3.274 -9.392,-3.007 -9.117,-2.094C-8.187,1 -7.722,2.548 -6.793,5.643C-6.519,6.556 -6.708,6.991 -7.821,7.425C-7.725,7.709 -7.679,7.851 -7.583,8.136C-4.31,6.966 -2.593,6.563 0.863,6.168C0.768,4.479 0.726,3.635 0.654,1.944C0.392,1.973 0.261,1.988 0,2.021" style="fill:rgb(13,129,134);"/>
        </g>
        <g transform="matrix(0.869565,0,0,0.869565,63.5243,109.724)">
            <path d="M0,8.321C2.441,9.676 3.965,8.964 4.895,7.871C5.845,6.752 6.086,5.358 4.958,4.266C2.879,2.257 -1.032,8.245 -4.274,5.897C-5.789,4.802 -5.965,2.473 -3.753,-0.07C-2.826,-1.135 -1.522,-2.107 -0.436,-2.819C0.471,-1.895 0.927,-1.432 1.835,-0.509C1.55,-0.239 1.409,-0.103 1.13,0.174C-0.577,-1.275 -2.233,-0.732 -3.476,0.723C-4.598,2.037 -4.453,3.392 -3.722,3.961C-1.401,5.769 3.02,-0.349 5.912,2.67C7.261,4.077 7.292,6.144 5.318,8.493C4.504,9.461 3.271,10.548 2.641,11.14C1.376,10.319 0.743,9.91 -0.528,9.097C-0.321,8.784 -0.215,8.629 0,8.321" style="fill:rgb(13,129,134);"/>
        </g>
        <g transform="matrix(0.869565,0,0,0.869565,111.806,114.393)">
            <path d="M0,-3.336C-1.914,-1.303 -1.596,0.35 -0.765,1.52C0.086,2.716 1.379,3.292 2.715,2.466C5.173,0.945 0.328,-4.317 3.4,-6.883C4.834,-8.082 7.134,-7.682 9.057,-4.915C9.862,-3.754 10.483,-2.25 10.906,-1.021C9.787,-0.368 9.229,-0.043 8.111,0.611C7.919,0.268 7.822,0.1 7.622,-0.238C9.445,-1.537 9.326,-3.279 8.22,-4.84C7.221,-6.25 5.87,-6.44 5.139,-5.872C2.817,-4.066 7.665,1.722 4.027,3.784C2.332,4.746 0.321,4.27 -1.473,1.778C-2.212,0.751 -2.962,-0.712 -3.381,-1.468C-2.274,-2.493 -1.722,-3.007 -0.622,-4.039C-0.37,-3.761 -0.245,-3.62 0,-3.336" style="fill:rgb(13,129,134);"/>
        </g>
        <g transform="matrix(0.869565,0,0,0.869565,104.421,107.071)">
            <path d="M0,-1.019C-1.259,1.473 -0.488,2.966 0.64,3.854C1.794,4.76 3.198,4.948 4.245,3.778C6.171,1.625 0.034,-2.053 2.255,-5.383C3.291,-6.938 5.613,-7.204 8.24,-5.093C9.341,-4.207 10.362,-2.94 11.116,-1.882C10.227,-0.94 9.783,-0.469 8.895,0.474C8.614,0.2 8.471,0.064 8.184,-0.203C9.565,-1.964 8.96,-3.602 7.457,-4.787C6.1,-5.856 4.753,-5.657 4.213,-4.904C2.496,-2.517 8.781,1.666 5.876,4.671C4.522,6.073 2.46,6.185 0.035,4.302C-0.963,3.526 -2.098,2.335 -2.714,1.729C-1.943,0.433 -1.559,-0.217 -0.796,-1.518C-0.475,-1.322 -0.316,-1.222 0,-1.019" style="fill:rgb(13,129,134);"/>
        </g>
        <g transform="matrix(0.869565,0,0,0.869565,70.4996,104.912)">
            <path d="M0,3.644C0.869,4.891 1.302,5.514 2.171,6.761C2.724,7.555 3.186,7.69 4.191,7.092C4.356,7.346 4.438,7.473 4.604,7.727C3.107,8.68 2.376,9.188 0.967,10.261C0.776,10.023 0.681,9.904 0.49,9.666C1.398,8.933 1.419,8.462 0.837,7.687C-1.13,5.064 -2.115,3.753 -4.082,1.13C-4.664,0.354 -5.204,0.254 -6.388,1.097C-6.579,0.859 -6.673,0.74 -6.863,0.502C-5.043,-0.858 -4.105,-1.504 -2.181,-2.721C-2.016,-2.466 -1.931,-2.338 -1.766,-2.083C-2.977,-1.277 -3.063,-0.749 -2.51,0.045C-1.712,1.19 -1.313,1.764 -0.515,2.909C1.278,1.706 2.203,1.139 4.092,0.09C3.421,-1.131 3.085,-1.741 2.414,-2.962C1.949,-3.809 1.436,-3.973 0.166,-3.263C0.011,-3.524 -0.067,-3.656 -0.222,-3.917C1.739,-5.073 2.743,-5.615 4.786,-6.617C4.914,-6.341 4.979,-6.203 5.107,-5.927C3.815,-5.256 3.664,-4.734 4.099,-3.872C5.572,-0.95 6.311,0.512 7.784,3.433C8.22,4.296 8.652,4.486 9.718,4.01C9.846,4.286 9.911,4.425 10.039,4.701C8.442,5.47 7.656,5.888 6.128,6.79C5.974,6.529 5.897,6.399 5.743,6.139C6.732,5.515 6.816,5.048 6.351,4.201C5.62,2.871 5.255,2.206 4.524,0.876C2.669,1.907 1.761,2.461 0,3.644" style="fill:rgb(13,129,134);"/>
        </g>
    </g>
</svg>
