<svg xmlns="http://www.w3.org/2000/svg" viewBox="0 0 1385 446.01"><defs><style>.cls-1,.cls-2{fill:#068085;}.cls-1{fill-rule:evenodd;}</style></defs><title>Shemss  2019 New LOGO Simbol Plus WordMark Teal</title><g id="Layer_3" data-name="Layer 3"><path class="cls-1" d="M477,377.82c1.71,19.3-6.81,55.26-61.44,57.5-24.17,1-54.52-6.53-66.54-12.1V376.86h6c1.29,5.69,12.66,48.56,52.6,50.48,23.17,1.09,40.8-8.61,41.24-27.89.52-22.31-24.21-30-46.51-38.93-25.19-10-49.57-20-53-47.31-4-31.77,25.46-53.39,59.14-52a159.69,159.69,0,0,1,51.54,11.12v39.06h-5.95c-3.39-21.24-16.2-41.33-45.2-43.12-16.93-1.06-32.42,5.26-32.45,23.7s30.77,25.94,53.05,34.75C452.2,335.71,474.29,348,477,377.82Z" transform="translate(-28 -129.99)"/><path class="cls-1" d="M1262,377.82c1.71,19.3-6.81,55.26-61.44,57.5-24.17,1-54.52-6.53-66.54-12.1V376.86h6c1.29,5.69,12.66,48.56,52.61,50.48,23.16,1.09,40.79-8.61,41.24-27.89.52-22.31-24.22-30-46.51-38.93-25.2-10-49.58-20-53-47.31-4-31.77,25.45-53.39,59.13-52a159.69,159.69,0,0,1,51.54,11.12v39.06h-5.95c-3.38-21.24-16.2-41.33-45.2-43.12-16.92-1.06-32.42,5.26-32.45,23.7s30.77,25.94,53,34.75C1237.19,335.71,1259.28,348,1262,377.82Z" transform="translate(-28 -129.99)"/><path class="cls-1" d="M1412.8,377.82c1.71,19.3-6.8,55.26-61.44,57.5-24.17,1-54.51-6.53-66.53-12.1V376.86h6c1.3,5.69,12.67,48.56,52.61,50.48,23.17,1.09,40.8-8.61,41.24-27.89.52-22.31-24.21-30-46.51-38.93-25.2-10-49.57-20-53-47.31-4-31.77,25.46-53.39,59.14-52a159.93,159.93,0,0,1,51.55,11.12v39.06h-6c-3.39-21.24-16.2-41.33-45.2-43.12-16.93-1.06-32.43,5.26-32.45,23.7s30.77,25.94,53,34.75C1388,335.71,1410.12,348,1412.8,377.82Z" transform="translate(-28 -129.99)"/><path class="cls-1" d="M542.89,339h83.74V289.47a13.58,13.58,0,0,0-1.54-6.4,10.4,10.4,0,0,0-5.21-4.37,48.61,48.61,0,0,0-8.24-2.67,51,51,0,0,0-8.32-1.37l-1-.07V264.07h78.3v10.56l-1.05,0a62,62,0,0,0-8.79,1,72.53,72.53,0,0,0-7.79,1.73,8.36,8.36,0,0,0-5.3,4.12,15.93,15.93,0,0,0-1.39,6.73V408.48a13.69,13.69,0,0,0,1.36,6.43c1.11,2.06,3.44,3.5,5.47,4.47a34.49,34.49,0,0,0,7.66,2,60.65,60.65,0,0,0,8.78,1.15l1.05.05v10.55h-78.3V422.65l1-.08c3-.22,5.93-.49,8.9-.72,2.11-.16,5.73-.46,7.74-1.34a9.53,9.53,0,0,0,5-3.85,13,13,0,0,0,1.64-6.85v-58.3H542.89v57a13.57,13.57,0,0,0,1.36,6.43c1.11,2.06,3.43,3.5,5.47,4.47a34.34,34.34,0,0,0,7.66,2,60.28,60.28,0,0,0,8.78,1.15l1,.05v10.55H488.91V422.65l1-.08c3-.22,5.93-.49,8.9-.72,2.1-.16,5.72-.46,7.73-1.34a9.48,9.48,0,0,0,5-3.85,13.06,13.06,0,0,0,1.64-6.85V289.44a13.57,13.57,0,0,0-1.55-6.37,10.37,10.37,0,0,0-5.2-4.41,49.58,49.58,0,0,0-8.23-2.63,51.15,51.15,0,0,0-8.33-1.37l-1-.07V264.07H567.2v10.56l-1,0a61.64,61.64,0,0,0-8.79,1,71.3,71.3,0,0,0-7.78,1.73,8.24,8.24,0,0,0-5.31,4.16,15.9,15.9,0,0,0-1.39,6.69V339Zm222.45-63.35v64.08h19.49c4.14,0,10.16-.15,14.07-1.62a19.05,19.05,0,0,0,7.57-5.38,28.72,28.72,0,0,0,4.61-8.78,53.54,53.54,0,0,0,2.59-10.5l.12-.95H825.6v67.45H813.76l-.1-1A47.29,47.29,0,0,0,811,367.29c-1-2.82-2.49-6.49-4.47-8.78a17.49,17.49,0,0,0-8.55-5.64,50.57,50.57,0,0,0-13.1-1.36H765.34v49a46.67,46.67,0,0,0,1.11,11.56,9.93,9.93,0,0,0,4.08,6,20.13,20.13,0,0,0,8.65,2.71,147,147,0,0,0,16.39.64h11.2a115.33,115.33,0,0,0,11.61-.48,74.88,74.88,0,0,0,10-1.66c2.26-.53,5.18-1.47,6.91-3.11,4.84-4.59,9-11.08,12.23-16.85,2.8-4.94,6.46-11.27,8.23-16.66l.25-.75h11.2l-3.64,51.31h-154V422.63l1-.06c3.43-.21,6.88-.58,10.29-1,2.15-.26,6.14-.68,8.11-1.49a10.71,10.71,0,0,0,5.27-4.18,13.07,13.07,0,0,0,1.48-6.59V289.44a15.22,15.22,0,0,0-1.3-6.4c-1-2.13-3.34-3.48-5.45-4.38a48.31,48.31,0,0,0-9.17-2.62,73.81,73.81,0,0,0-9.24-1.38l-1-.07V264.07H853.36v42.39H841.69l-.23-.78c-2-6.83-6.37-13.21-10.93-18.55-3.84-4.49-9.42-9.83-15.55-10.59-3.14-.33-6.3-.54-9.45-.68-4.2-.18-8.4-.23-12.6-.23Zm293.06,12.6h-.15L996,430.52h-7.83l-59.2-144.89v98.16c0,6.77.18,15.15,2,21.72,1,3.68,2.68,7.79,5.78,10.26,2.44,2.12,8.24,3.69,11.32,4.47s8.13,2.18,11.37,2.33l1,.05v10.55H884.47V422.66l1-.09a104.22,104.22,0,0,0,12-1.74,24.69,24.69,0,0,0,9.44-3.71c3.13-2.29,4.86-5.76,5.76-9.46,1.6-6.63,1.63-15.74,1.63-22.55V299.8a31.89,31.89,0,0,0-1.85-11.72,17.42,17.42,0,0,0-5.23-7.19,25.19,25.19,0,0,0-9.42-4.5,52.45,52.45,0,0,0-11.27-1.73l-1-.05V264.07h64.19l51.37,123.67,43.75-102.5a96.66,96.66,0,0,0,4.19-11.95c.6-2.18,1.73-5.93,1.81-8.18l0-1h62.05v10.56l-1.05,0a70.57,70.57,0,0,0-9.06,1,57.27,57.27,0,0,0-8,1.73,8.22,8.22,0,0,0-5.3,4.12,15.94,15.94,0,0,0-1.44,6.73V408.48a13.49,13.49,0,0,0,1.41,6.43c1.1,2.06,3.42,3.5,5.5,4.49s5.64,1.68,7.91,2.07a73.86,73.86,0,0,0,9.25,1.1l1,0v10.56h-83.31V422.61l1.05,0c3.74-.1,7.52-.42,11.24-.79,2.57-.27,6.77-.76,9.09-1.9a15.12,15.12,0,0,0,5.44-4.77,11.93,11.93,0,0,0,1.72-6.63Z" transform="translate(-28 -129.99)"/></g><g id="Layer_4" data-name="Layer 4"><path class="cls-2" d="M194.1,323.2c2-8.72,8.07-15.25,7.48-21a8.62,8.62,0,0,0-4-6c-1.91-1.26-5-2.67-6.7-2.8-2-.15-3.8-.12-5.56-1.13l0,0c-1.83-1.07-3.61-3.28-5.43-8a14.39,14.39,0,0,1-.11-8.75c1.34-5.34,4.58-10.93,6.91-15.47,2.22-4.27,3.61-7.61,1.85-8.91-3.19-2.48-3.79,4.23-12.78,2.66a32.84,32.84,0,0,1-8.77-3.12c-1.39-.62-2.58-1.07-3.6-1.47h0c-2.43-.94-3.91-1.62-5-3.73v0a17.74,17.74,0,0,1-1.27-4.38,4,4,0,0,0-.59-1.52l0,0A18.19,18.19,0,0,0,154,237a0,0,0,0,0,0,0,5.78,5.78,0,0,1-1.55-3.65c0-.2,0-.67,0-.67-.06-1.5.43-1.94,1.06-2.31a5.83,5.83,0,0,0,1.57-1.31,3.78,3.78,0,0,0,.38-.52,25.34,25.34,0,0,0,1.62-4.11,27.73,27.73,0,0,0,1.05-12.2,23.71,23.71,0,0,0-2-6.66.86.86,0,0,0-.4.54s0,0,0,0a39.51,39.51,0,0,1-1.18,5.4l0,.08a20.24,20.24,0,0,1-2.92,5.24,25.76,25.76,0,0,1-2.19,2.47l-.36.35c-2.43,2.35-5.16,4.26-6.66,5.86a5.72,5.72,0,0,0-.94,1.29.14.14,0,0,0,0,.06c-.65,1.44.2,2.19,1.16,3s2.1,1.75,1.84,3.57a14.17,14.17,0,0,1-.31,1.39c-.49,1.8-1.38,3.92-2,5.9l0,.08c-.59,1.84-1,3.55-2,4.77l0,.05a4.57,4.57,0,0,1-1.86,1.33,1.68,1.68,0,0,1-.62.13c-2.55.15-5-4.66-8.11-4.83a20.87,20.87,0,0,0-5.57.55h0c-4,.87-9.64,2.68-19.59,5.42h0a13.45,13.45,0,0,1-3.79.42c-2.93-.06-5.94-.66-8.87-.11h0q-1.11.23-2.16.39h0a54.75,54.75,0,0,1-12.68,1c-2.17-.13-10.14-1.45-14.64-3.51a40.51,40.51,0,0,1-8.58-5.33s-2.2-1.75-2.25-1.8c-3-2.37-5.45-3.78-8.94-2.07-1.3.64-3.07,3.89-2.57,7.2.56,3.81,3.66,5.11,3.51,9.73-.12,3.63-8.4,10.36-11.3,13.86A17.88,17.88,0,0,0,28,279.85c1.76,31.18,52.81,51.69,64.2,37.27,6.13-7.76-.69-26.06-20.66-33-7.18-2.49-11.47-8.38-11.4-15a17.86,17.86,0,0,1,5.16-11.95,11.7,11.7,0,0,1,2.86-2.08c3.54-1.8,7.72-1.48,12.38-.35,2.81.68,5.29,3,8.68,3.4,6.22.54,6.91-.51,8.8-.15a3.61,3.61,0,0,1,2,1.17c6.47,6.47,9.39,9,15.33,11.82,6.88,3.28,16.66,2.35,18,2.66l.42.11a9.49,9.49,0,0,1,2.08.94c.82.49,2,1.48,2.42,1.74A16.1,16.1,0,0,0,141,278a13.94,13.94,0,0,1,5.44,3.64c3.21,3.62,6.22,9.41,8.09,11.84a19.44,19.44,0,0,0,4.73,5.06,52.9,52.9,0,0,0,9.18,4.72c1.84.3.64-1.54-.95-2.88-10.58-8.9-19.71-36.34-22-46.7-.29-1.28.29-3.47,1.23-4.12s2.92.2,4.09.8a51.72,51.72,0,0,1,5.89,3.89c4.78,3.45,10.28,7.58,11.66,9.91,1.18,2,4.08,4.55,6.21,15.21.41,2.08.89,4.49,1.57,7.55.36,1.61,3.06,11.32,2,16.92a9.36,9.36,0,0,1-6.68,7.59c-2.56.42-5.66.11-8.73.16h-.08c-3,0-6,.43-8.46,2.13l-.11.09c-4.9,3.53-5.86,10.2-7.22,16.55-.74,3.41-2.18,6.43-3.21,9.41-6.21,18-20.71,6-33.53,6-11.21,0-38.56,32.15-40.07,58.26-1,17.87,32.07,21.3,27.57,49.94C95.82,465.51,82.92,489.88,88,505.6c5.16,16.09,23.55,24.92,25.92,26.46,24.77,16.1,12.19,28.91,20.83,39.89,6.09,7.73,13.21,3.53,19.66-5.34,5.89-8.1,17.21-35.63,6.19-39-5.18-2-9,4.59-21,1.52-8.36-2.14-12.74-12.26-12.23-18.37.6-7.17,3.13-18.84,13.59-31.16,6.37-7.5,8.07-4.51,12.63-10.17,3.51-4.36,5.45-12,7.19-15.27a64.85,64.85,0,0,1,7.57-10.79,39.41,39.41,0,0,1-7.73-.42,11.69,11.69,0,0,1-5.85-2.31,4.05,4.05,0,0,1-.9-5.1c1.61-3.58,7-7.67,14.78-10.73.84-.33,1.71-.64,2.6-.95-7.24-1.53-12.12-3.51-14.94-5.61-7.39-5.44-.62-11.59,15.11-12.15l2.35,0a49,49,0,0,1-16-16.43,35.78,35.78,0,0,1-4.85-16.18c-.51-11,4.84-20.52,14-23.79,7.72-2.75,18.14-1.1,30.08,7.79l.64.48C193.44,345.31,191.13,336.25,194.1,323.2Zm-73.34-55.76c-4.88.49-10.49-3.67-11-7.86-.27-2.24,1-2.68,1.31-2.63,2,.27,7.63,1.41,18.32,2.37C128.42,263.84,125.12,267,120.76,267.44Z" transform="translate(-28 -129.99)"/><path class="cls-2" d="M283.76,251a10.23,10.23,0,0,0,5.22-.53c0,4.47-2.78,7.74-4.69,9.43a1.36,1.36,0,0,1-1.7.22c-2.35-1-4.8-1.51-7.24-.29a3.32,3.32,0,0,0-1.56,1.56c-2,5.54-6.09,9.19-11,12.07-1.64.95-3.25,2-4.9,2.88a1.41,1.41,0,0,0-.79,1.54c.55,10.67,7,23.81,6.83,28.16-10.57-13.22-16.86-28.63-14.8-43.53a12.21,12.21,0,0,1,3-6.64c2.88-3.17,6.54-2.63,8.84-3.45,1.94-.7,8.88-6.58,17-6.2,2.17.1,3.09,1.75,4,3.51A2.72,2.72,0,0,0,283.76,251Zm-17.09,9.73c-4.64,0-9.28.22-13.91.26a1.39,1.39,0,0,0-1.5,1.55,25.81,25.81,0,0,0,.54,4.29c.73,3.17,2.75,5.57,7,4.89A9.68,9.68,0,0,0,266.67,260.77Z" transform="translate(-28 -129.99)"/><path class="cls-2" d="M213.8,251.34a17,17,0,0,0-5-7.14,3.93,3.93,0,0,1-1.32-3.09c-.21-4.16-.6-8.87-4-11.36s-3.68-4.58-3.21-8.11a10.25,10.25,0,0,0-1.2-6.17c-1.45-2.87-1.56-6.05-1.51-9.23a75.92,75.92,0,0,0-.16-9.18c-.35-3.28-3.53-7.06-7.64-7.17-4.86-.12-7.89-3.53-8.13-8.36s-5.43-5.56-6.74-6.18c-2.42-1.15-3.57-4.42-1.63-7.66,2.25-4,1.72-8-.87-11.5a107.5,107.5,0,0,0-14.81-16.73q-3.66-3.26-7.22-6.62c-.69-.64-1.91-2-1.67-2.62.18-.47,1-.09,1.49,0,2.67.59,4.78,2.21,7,3.73a33.33,33.33,0,0,0,4.14,2.48,52.52,52.52,0,0,1,10.83,6.79c3,2.58,6.16,5.07,9.18,7.68a29.7,29.7,0,0,1,3,3.29,92.54,92.54,0,0,0,11,11.44c3.22,2.69,6.18,5.69,9.23,8.58,1.62,1.53,1.48,3.32.73,5.24q-2.07,5.26-4,10.59a8.86,8.86,0,0,0-.58,2.81,3.82,3.82,0,0,0,.74,1.92,25.69,25.69,0,0,1,2.45,3.63c1.81,4.42,4.54,8.26,7.31,12.08.31.41,2.67,1.81,2.49-.94a19.76,19.76,0,0,1,1.75-9.43c.65-1.48,2.4-2,3-.05,1.13,3.37,4.08,5.43,6,8.23.87,1.26.92,2-.23,3.06a30.43,30.43,0,0,1-2.76,2.15,4.44,4.44,0,0,0-1.62,4.55,2.47,2.47,0,0,0,3,2.16c.93-.08,1.86-.11,2.78-.18s1.29.37,1.13,1.15c-.53,2.52-1,5.07-1.76,7.52a19.29,19.29,0,0,1-4,6.71c-1.83,2.15-1.9,4.85-2.14,7.44-.33,3.42-.45,6.86-.72,10.28a25.06,25.06,0,0,1-.55,2.82C215.6,255.79,214.44,253.1,213.8,251.34Z" transform="translate(-28 -129.99)"/><path class="cls-2" d="M293,366.94c8.53,9.16,10.41,19.85,6.93,24.08a15.73,15.73,0,0,1-8.78,5.39,10.2,10.2,0,0,0-2.6.55c-2.29.89-3.91,2.72-5.39,4.83-1.85,2.64-3.32,5.65-5.72,7.79A83.76,83.76,0,0,0,266,422.24c-1.05,1.56-1.45,3.58-2.1,5.4-2.76,7.73-4.79,13-4.1,19.38a11.25,11.25,0,0,0,4.42,7.59A33.24,33.24,0,0,1,277,476.34c.66,4.67-1.85,6.75-5.92,7-1.37.07-2-.76-1.7-2.11.43-1.72,1-3.4,1.5-5.1,1-2.84-.68-4.13-3.16-5.77-1.79-1.18-3.79-2.74-6.39-4.28-1.65-1-2.62-1.81-4.76-1.23a32.48,32.48,0,0,0-7.25,2.95c-3.3,1.82-8.41,5.27-14.24,6.75-1.58.41-16.59,2.69-21.31,2.69a212.7,212.7,0,0,0-23.59,2.58c-2.28.52-4.58,1-6.79,1.72-6.82,2.17-17,8.46-19.84,16.36-1.15,3.5-4.39,4.48-7.49-.33a5.71,5.71,0,0,1-.5-.91,7.71,7.71,0,0,1,.13-7,29.35,29.35,0,0,1,8.88-10.54c2.09-1.52,9-4.94,18.24-5.31,5.76-.24,8.62-1.06,14.29-1.63,16-1.62,24-2.43,28-4.31,5.17-2.4,15.52-8.6,19.85-10.65,1-.49,6.28-2.24,9.11-6.46,3.18-4.76,3.92-12.13,4.47-14.26.44-1.7,1.21-3.31,1.73-5a14.15,14.15,0,0,0-.12-8.68c-1.37-4.29-4.29-7.5-7.1-10.84-2.66-3.16-6.06-4.52-10-5.36-6.13-1.31-7.58-3.14-10.29-5.56-2.91-2.6-4.55-5.88-6.18-9.26a14.65,14.65,0,0,0-5-4.72c-1.53-.57-3.48-.62-4.43.67-2.75,3.77-5.58,2-6.77,0a5.48,5.48,0,0,1-.48-2.69c0-3.49-1.52-4.34-3.81-6.63-2.52-2.52-1.7-6.08,1.75-7.15a8.21,8.21,0,0,1,3.35-.34,28.36,28.36,0,0,1,7.54,1.48c6.3,2.51,9.8,9.59,15.71,12.52,10.69,5.3,20.82-5,35.53-3.68a45.77,45.77,0,0,1,11.53,2.6,16.28,16.28,0,0,0,6.8,1.39,13.9,13.9,0,0,0,3.34-.57A5,5,0,0,0,295.1,381a22.61,22.61,0,0,0-.12-6.79A25,25,0,0,0,293,366.94Z" transform="translate(-28 -129.99)"/></g></svg>